<?xml version="1.0" encoding="UTF-8" standalone="no"?><svg xmlns="http://www.w3.org/2000/svg" xmlns:xlink="http://www.w3.org/1999/xlink" contentStyleType="text/css" height="444px" preserveAspectRatio="none" style="width:243px;height:444px;background:#FFFFFF;" version="1.1" viewBox="0 0 243 444" width="243px" zoomAndPan="magnify"><defs/><g><!--MD5=[553552a3040e282f764f3b63d5514f46]
class nz.ac.vuw.ecs.swen225.gp22.domain.Collectable--><a href="Collectable.html" target="_top" title="Collectable.html" xlink:actuate="onRequest" xlink:href="Collectable.html" xlink:show="new" xlink:title="Collectable.html" xlink:type="simple"><g id="elem_nz.ac.vuw.ecs.swen225.gp22.domain.Collectable"><rect codeLine="5" fill="#F1F1F1" height="249.8906" id="nz.ac.vuw.ecs.swen225.gp22.domain.Collectable" rx="2.5" ry="2.5" style="stroke:#181818;stroke-width:0.5;" width="227" x="9" y="168"/><ellipse cx="32.55" cy="188.0938" fill="#ADD1B2" rx="11" ry="11" style="stroke:#181818;stroke-width:1.0;"/><path d="M35.3156,183.9688 Q35.4719,183.75 35.6594,183.6406 Q35.8469,183.5313 36.0656,183.5313 Q36.4406,183.5313 36.675,183.7969 Q36.9094,184.0469 36.9094,184.6563 L36.9094,186.1094 Q36.9094,186.7188 36.675,186.9844 Q36.4406,187.25 36.0656,187.25 Q35.7219,187.25 35.5188,187.0469 Q35.3156,186.8594 35.2063,186.3438 Q35.1594,185.9844 34.9719,185.7969 Q34.6438,185.4219 34.0344,185.2031 Q33.425,184.9844 32.8,184.9844 Q32.0344,184.9844 31.3937,185.3125 Q30.7687,185.6406 30.2687,186.3906 Q29.7844,187.1406 29.7844,188.1719 L29.7844,189.2656 Q29.7844,190.5 30.675,191.3281 Q31.5656,192.1406 33.1594,192.1406 Q34.0969,192.1406 34.7531,191.8906 Q35.1438,191.7344 35.5656,191.2969 Q35.8313,191.0313 35.9719,190.9531 Q36.1281,190.875 36.3313,190.875 Q36.6594,190.875 36.9094,191.1406 Q37.175,191.3906 37.175,191.7344 Q37.175,192.0781 36.8313,192.4844 Q36.3313,193.0625 35.5344,193.3906 Q34.4563,193.8438 33.1594,193.8438 Q31.6437,193.8438 30.4406,193.2188 Q29.4562,192.7188 28.7687,191.6563 Q28.0812,190.5781 28.0812,189.2969 L28.0812,188.1406 Q28.0812,186.8125 28.6906,185.6719 Q29.3156,184.5156 30.4094,183.9063 Q31.5031,183.2813 32.7375,183.2813 Q33.4719,183.2813 34.1125,183.4531 Q34.7688,183.6094 35.3156,183.9688 Z " fill="#000000"/><text fill="#000000" font-family="sans-serif" font-size="14" lengthAdjust="spacing" textLength="70" x="101.45" y="187.5332">Collectable</text><text fill="#000000" font-family="sans-serif" font-size="10" lengthAdjust="spacing" textLength="176" x="48.45" y="200.9902">nz.ac.vuw.ecs.swen225.gp22.domain</text><line style="stroke:#181818;stroke-width:0.5;" x1="10" x2="235" y1="208.1875" y2="208.1875"/><rect fill="none" height="6" style="stroke:#C82930;stroke-width:1.0;" width="6" x="17" y="219.4922"/><text fill="#000000" font-family="sans-serif" font-size="14" lengthAdjust="spacing" textLength="116" x="29" y="226.7207">spriteName: String</text><rect fill="none" height="6" style="stroke:#C82930;stroke-width:1.0;" width="6" x="17" y="237.1016"/><text fill="#000000" font-family="sans-serif" font-size="14" lengthAdjust="spacing" textLength="71" x="29" y="244.3301">point: Point</text><ellipse cx="20" cy="257.7109" fill="none" rx="3" ry="3" style="stroke:#038048;stroke-width:1.0;"/><text fill="#000000" font-family="sans-serif" font-size="14" lengthAdjust="spacing" textLength="144" x="29" y="261.9395">soundEffect: Runnable</text><line style="stroke:#181818;stroke-width:0.5;" x1="10" x2="235" y1="269.0156" y2="269.0156"/><polygon fill="#FFFF44" points="20,278.3203,24,282.3203,20,286.3203,16,282.3203" style="stroke:#B38D22;stroke-width:1.0;"/><text fill="#000000" font-family="sans-serif" font-size="14" lengthAdjust="spacing" textLength="157" x="29" y="287.5488">Collectable(String, Point)</text><polygon fill="#FFFF44" points="20,295.9297,24,299.9297,20,303.9297,16,299.9297" style="stroke:#B38D22;stroke-width:1.0;"/><text fill="#000000" font-family="sans-serif" font-size="14" lengthAdjust="spacing" textLength="112" x="29" y="305.1582">Collectable(Point)</text><ellipse cx="20" cy="318.5391" fill="#84BE84" rx="3" ry="3" style="stroke:#038048;stroke-width:1.0;"/><text fill="#000000" font-family="sans-serif" font-size="14" lengthAdjust="spacing" textLength="201" x="29" y="322.7676">setSoundEffect(Runnable): void</text><polygon fill="#FFFF44" points="20,331.1484,24,335.1484,20,339.1484,16,335.1484" style="stroke:#B38D22;stroke-width:1.0;"/><text fill="#000000" font-family="sans-serif" font-size="14" lengthAdjust="spacing" textLength="173" x="29" y="340.377">setSpriteName(String): void</text><polygon fill="#FFFF44" points="20,348.7578,24,352.7578,20,356.7578,16,352.7578" style="stroke:#B38D22;stroke-width:1.0;"/><text fill="#000000" font-family="sans-serif" font-size="14" lengthAdjust="spacing" textLength="127" x="29" y="357.9863">setPoint(Point): void</text><ellipse cx="20" cy="371.3672" fill="#84BE84" rx="3" ry="3" style="stroke:#038048;stroke-width:1.0;"/><text fill="#000000" font-family="sans-serif" font-size="14" lengthAdjust="spacing" textLength="148" x="29" y="375.5957">getSpriteName(): String</text><ellipse cx="20" cy="388.9766" fill="#84BE84" rx="3" ry="3" style="stroke:#038048;stroke-width:1.0;"/><text fill="#000000" font-family="sans-serif" font-size="14" lengthAdjust="spacing" textLength="102" x="29" y="393.2051">getPoint(): Point</text><ellipse cx="20" cy="406.5859" fill="#84BE84" rx="3" ry="3" style="stroke:#038048;stroke-width:1.0;"/><text fill="#000000" font-family="sans-serif" font-size="14" lengthAdjust="spacing" textLength="91" x="29" y="410.8145">getDepth(): int</text></g></a><!--MD5=[c1afd2d57aec8c90a42dc3be3bff6847]
class nz.ac.vuw.ecs.swen225.gp22.domain.Entity--><a href="Entity.html" target="_top" title="Entity.html" xlink:actuate="onRequest" xlink:href="Entity.html" xlink:show="new" xlink:title="Entity.html" xlink:type="simple"><g id="elem_nz.ac.vuw.ecs.swen225.gp22.domain.Entity"><rect codeLine="19" fill="#F1F1F1" height="101.0156" id="nz.ac.vuw.ecs.swen225.gp22.domain.Entity" rx="2.5" ry="2.5" style="stroke:#181818;stroke-width:0.5;" width="208" x="18.5" y="7"/><ellipse cx="33.5" cy="27.0938" fill="#B4A7E5" rx="11" ry="11" style="stroke:#181818;stroke-width:1.0;"/><path d="M34.4531,23.7344 L34.4531,30.3906 L36.1719,30.3906 Q36.7813,30.3906 37.0469,30.625 Q37.3125,30.8594 37.3125,31.25 Q37.3125,31.625 37.0469,31.8594 Q36.7813,32.0938 36.1719,32.0938 L31.0313,32.0938 Q30.4219,32.0938 30.1563,31.8594 Q29.8906,31.625 29.8906,31.2344 Q29.8906,30.8594 30.1563,30.625 Q30.4219,30.3906 31.0313,30.3906 L32.75,30.3906 L32.75,23.7344 L31.0313,23.7344 Q30.4219,23.7344 30.1563,23.5 Q29.8906,23.2656 29.8906,22.875 Q29.8906,22.5 30.1563,22.2656 Q30.4219,22.0313 31.0313,22.0313 L36.1719,22.0313 Q36.7813,22.0313 37.0469,22.2656 Q37.3125,22.5 37.3125,22.875 Q37.3125,23.2656 37.0469,23.5 Q36.7813,23.7344 36.1719,23.7344 L34.4531,23.7344 Z " fill="#000000"/><text fill="#000000" font-family="sans-serif" font-size="14" font-style="italic" lengthAdjust="spacing" textLength="35" x="118" y="26.5332">Entity</text><text fill="#000000" font-family="sans-serif" font-size="10" font-style="italic" lengthAdjust="spacing" textLength="176" x="47.5" y="39.9902">nz.ac.vuw.ecs.swen225.gp22.domain</text><line style="stroke:#181818;stroke-width:0.5;" x1="19.5" x2="225.5" y1="47.1875" y2="47.1875"/><ellipse cx="29.5" cy="61.4922" fill="#84BE84" rx="3" ry="3" style="stroke:#038048;stroke-width:1.0;"/><text fill="#000000" font-family="sans-serif" font-size="14" font-style="italic" lengthAdjust="spacing" textLength="149" x="38.5" y="65.7207">getSpriteName(): String</text><ellipse cx="29.5" cy="79.1016" fill="#84BE84" rx="3" ry="3" style="stroke:#038048;stroke-width:1.0;"/><text fill="#000000" font-family="sans-serif" font-size="14" font-style="italic" lengthAdjust="spacing" textLength="102" x="38.5" y="83.3301">getPoint(): Point</text><ellipse cx="29.5" cy="96.7109" fill="#84BE84" rx="3" ry="3" style="stroke:#038048;stroke-width:1.0;"/><text fill="#000000" font-family="sans-serif" font-size="14" font-style="italic" lengthAdjust="spacing" textLength="91" x="38.5" y="100.9395">getDepth(): int</text></g></a><!--MD5=[46a5be8602d54f884557721c3f121362]
reverse link nz.ac.vuw.ecs.swen225.gp22.domain.Entity to nz.ac.vuw.ecs.swen225.gp22.domain.Collectable--><g id="link_nz.ac.vuw.ecs.swen225.gp22.domain.Entity_nz.ac.vuw.ecs.swen225.gp22.domain.Collectable"><path codeLine="25" d="M122.5,128.15 C122.5,140.68 122.5,154.07 122.5,167.6 " fill="none" id="nz.ac.vuw.ecs.swen225.gp22.domain.Entity-backto-nz.ac.vuw.ecs.swen225.gp22.domain.Collectable" style="stroke:#181818;stroke-width:1.0;stroke-dasharray:7.0,7.0;"/><polygon fill="none" points="115.5,128.02,122.5,108.02,129.5,128.02,115.5,128.02" style="stroke:#181818;stroke-width:1.0;"/></g><rect fill="none" height="12.5781" style="stroke:none;stroke-width:1.0;" width="184" x="22.5" y="423.8906"/><text fill="#888888" font-family="sans-serif" font-size="10" lengthAdjust="spacing" textLength="184" x="22.5" y="434.2715">UMLDoclet 2.0.19, PlantUML 1.2022.8</text><!--MD5=[c18b493d5a83ef98d2710c82b478a798]
@startuml
    set namespaceSeparator none
    hide empty fields
    hide empty methods

    class "<size:14>Collectable\n<size:10>nz.ac.vuw.ecs.swen225.gp22.domain" as nz.ac.vuw.ecs.swen225.gp22.domain.Collectable [[Collectable.html]] {
        -spriteName: String
        -point: Point
        +soundEffect: Runnable
        #Collectable(String, Point)
        #Collectable(Point)
        +setSoundEffect(Runnable): void
        #setSpriteName(String): void
        #setPoint(Point): void
        +getSpriteName(): String
        +getPoint(): Point
        +getDepth(): int
    }

    interface "<size:14>Entity\n<size:10>nz.ac.vuw.ecs.swen225.gp22.domain" as nz.ac.vuw.ecs.swen225.gp22.domain.Entity [[Entity.html]] {
        {abstract} +getSpriteName(): String
        {abstract} +getPoint(): Point
        {abstract} +getDepth(): int
    }

    nz.ac.vuw.ecs.swen225.gp22.domain.Entity <|.. nz.ac.vuw.ecs.swen225.gp22.domain.Collectable

    center footer UMLDoclet 2.0.19, PlantUML 1.2022.8
@enduml

PlantUML version 1.2022.8(Sun Sep 25 22:00:33 NZDT 2022)
(APACHE source distribution)
Java Runtime: OpenJDK Runtime Environment
JVM: OpenJDK 64-Bit Server VM
Default Encoding: Cp1252
Language: en
Country: NZ
--></g></svg>