<?xml version="1.0" encoding="UTF-8" standalone="no"?><svg xmlns="http://www.w3.org/2000/svg" xmlns:xlink="http://www.w3.org/1999/xlink" contentStyleType="text/css" height="426px" preserveAspectRatio="none" style="width:319px;height:426px;background:#FFFFFF;" version="1.1" viewBox="0 0 319 426" width="319px" zoomAndPan="magnify"><defs/><g><!--MD5=[e7ccf89f1fb90ecd4edbcca648d4973e]
class nz.ac.vuw.ecs.swen225.gp22.domain.Door--><a href="Door.html" target="_top" title="Door.html" xlink:actuate="onRequest" xlink:href="Door.html" xlink:show="new" xlink:title="Door.html" xlink:type="simple"><g id="elem_nz.ac.vuw.ecs.swen225.gp22.domain.Door"><rect codeLine="5" fill="#F1F1F1" height="232.2813" id="nz.ac.vuw.ecs.swen225.gp22.domain.Door" rx="2.5" ry="2.5" style="stroke:#181818;stroke-width:0.5;" width="303" x="9" y="168"/><ellipse cx="68.25" cy="188.0938" fill="#ADD1B2" rx="11" ry="11" style="stroke:#181818;stroke-width:1.0;"/><path d="M71.0156,183.9688 Q71.1719,183.75 71.3594,183.6406 Q71.5469,183.5313 71.7656,183.5313 Q72.1406,183.5313 72.375,183.7969 Q72.6094,184.0469 72.6094,184.6563 L72.6094,186.1094 Q72.6094,186.7188 72.375,186.9844 Q72.1406,187.25 71.7656,187.25 Q71.4219,187.25 71.2188,187.0469 Q71.0156,186.8594 70.9063,186.3438 Q70.8594,185.9844 70.6719,185.7969 Q70.3438,185.4219 69.7344,185.2031 Q69.125,184.9844 68.5,184.9844 Q67.7344,184.9844 67.0938,185.3125 Q66.4688,185.6406 65.9688,186.3906 Q65.4844,187.1406 65.4844,188.1719 L65.4844,189.2656 Q65.4844,190.5 66.375,191.3281 Q67.2656,192.1406 68.8594,192.1406 Q69.7969,192.1406 70.4531,191.8906 Q70.8438,191.7344 71.2656,191.2969 Q71.5313,191.0313 71.6719,190.9531 Q71.8281,190.875 72.0313,190.875 Q72.3594,190.875 72.6094,191.1406 Q72.875,191.3906 72.875,191.7344 Q72.875,192.0781 72.5313,192.4844 Q72.0313,193.0625 71.2344,193.3906 Q70.1563,193.8438 68.8594,193.8438 Q67.3438,193.8438 66.1406,193.2188 Q65.1563,192.7188 64.4688,191.6563 Q63.7813,190.5781 63.7813,189.2969 L63.7813,188.1406 Q63.7813,186.8125 64.3906,185.6719 Q65.0156,184.5156 66.1094,183.9063 Q67.2031,183.2813 68.4375,183.2813 Q69.1719,183.2813 69.8125,183.4531 Q70.4688,183.6094 71.0156,183.9688 Z " fill="#000000"/><text fill="#000000" font-family="sans-serif" font-size="14" lengthAdjust="spacing" textLength="31" x="161.25" y="187.5332">Door</text><text fill="#000000" font-family="sans-serif" font-size="10" lengthAdjust="spacing" textLength="176" x="88.75" y="200.9902">nz.ac.vuw.ecs.swen225.gp22.domain</text><line style="stroke:#181818;stroke-width:0.5;" x1="10" x2="311" y1="208.1875" y2="208.1875"/><rect fill="none" height="6" style="stroke:#C82930;stroke-width:1.0;" width="6" x="17" y="219.4922"/><text fill="#000000" font-family="sans-serif" font-size="14" lengthAdjust="spacing" textLength="116" x="29" y="226.7207">spriteName: String</text><rect fill="none" height="6" style="stroke:#C82930;stroke-width:1.0;" width="6" x="17" y="237.1016"/><text fill="#000000" font-family="sans-serif" font-size="14" lengthAdjust="spacing" textLength="71" x="29" y="244.3301">point: Point</text><ellipse cx="20" cy="257.7109" fill="none" rx="3" ry="3" style="stroke:#038048;stroke-width:1.0;"/><text fill="#000000" font-family="sans-serif" font-size="14" lengthAdjust="spacing" textLength="144" x="29" y="261.9395">soundEffect: Runnable</text><line style="stroke:#181818;stroke-width:0.5;" x1="10" x2="311" y1="269.0156" y2="269.0156"/><polygon fill="#FFFF44" points="20,278.3203,24,282.3203,20,286.3203,16,282.3203" style="stroke:#B38D22;stroke-width:1.0;"/><text fill="#000000" font-family="sans-serif" font-size="14" lengthAdjust="spacing" textLength="73" x="29" y="287.5488">Door(Point)</text><ellipse cx="20" cy="300.9297" fill="#84BE84" rx="3" ry="3" style="stroke:#038048;stroke-width:1.0;"/><text fill="#000000" font-family="sans-serif" font-size="14" lengthAdjust="spacing" textLength="201" x="29" y="305.1582">setSoundEffect(Runnable): void</text><ellipse cx="20" cy="318.5391" fill="#84BE84" rx="3" ry="3" style="stroke:#038048;stroke-width:1.0;"/><text fill="#000000" font-family="sans-serif" font-size="14" lengthAdjust="spacing" textLength="173" x="29" y="322.7676">setSpriteName(String): void</text><ellipse cx="20" cy="336.1484" fill="#84BE84" rx="3" ry="3" style="stroke:#038048;stroke-width:1.0;"/><text fill="#000000" font-family="sans-serif" font-size="14" lengthAdjust="spacing" textLength="277" x="29" y="340.377">checkRobotMove(Model, Robot, Point): void</text><ellipse cx="20" cy="353.7578" fill="#84BE84" rx="3" ry="3" style="stroke:#038048;stroke-width:1.0;"/><text fill="#000000" font-family="sans-serif" font-size="14" lengthAdjust="spacing" textLength="148" x="29" y="357.9863">getSpriteName(): String</text><ellipse cx="20" cy="371.3672" fill="#84BE84" rx="3" ry="3" style="stroke:#038048;stroke-width:1.0;"/><text fill="#000000" font-family="sans-serif" font-size="14" lengthAdjust="spacing" textLength="102" x="29" y="375.5957">getPoint(): Point</text><ellipse cx="20" cy="388.9766" fill="#84BE84" rx="3" ry="3" style="stroke:#038048;stroke-width:1.0;"/><text fill="#000000" font-family="sans-serif" font-size="14" lengthAdjust="spacing" textLength="91" x="29" y="393.2051">getDepth(): int</text></g></a><!--MD5=[c1afd2d57aec8c90a42dc3be3bff6847]
class nz.ac.vuw.ecs.swen225.gp22.domain.Entity--><a href="Entity.html" target="_top" title="Entity.html" xlink:actuate="onRequest" xlink:href="Entity.html" xlink:show="new" xlink:title="Entity.html" xlink:type="simple"><g id="elem_nz.ac.vuw.ecs.swen225.gp22.domain.Entity"><rect codeLine="18" fill="#F1F1F1" height="101.0156" id="nz.ac.vuw.ecs.swen225.gp22.domain.Entity" rx="2.5" ry="2.5" style="stroke:#181818;stroke-width:0.5;" width="208" x="56.5" y="7"/><ellipse cx="71.5" cy="27.0938" fill="#B4A7E5" rx="11" ry="11" style="stroke:#181818;stroke-width:1.0;"/><path d="M72.4531,23.7344 L72.4531,30.3906 L74.1719,30.3906 Q74.7813,30.3906 75.0469,30.625 Q75.3125,30.8594 75.3125,31.25 Q75.3125,31.625 75.0469,31.8594 Q74.7813,32.0938 74.1719,32.0938 L69.0313,32.0938 Q68.4219,32.0938 68.1563,31.8594 Q67.8906,31.625 67.8906,31.2344 Q67.8906,30.8594 68.1563,30.625 Q68.4219,30.3906 69.0313,30.3906 L70.75,30.3906 L70.75,23.7344 L69.0313,23.7344 Q68.4219,23.7344 68.1563,23.5 Q67.8906,23.2656 67.8906,22.875 Q67.8906,22.5 68.1563,22.2656 Q68.4219,22.0313 69.0313,22.0313 L74.1719,22.0313 Q74.7813,22.0313 75.0469,22.2656 Q75.3125,22.5 75.3125,22.875 Q75.3125,23.2656 75.0469,23.5 Q74.7813,23.7344 74.1719,23.7344 L72.4531,23.7344 Z " fill="#000000"/><text fill="#000000" font-family="sans-serif" font-size="14" font-style="italic" lengthAdjust="spacing" textLength="35" x="156" y="26.5332">Entity</text><text fill="#000000" font-family="sans-serif" font-size="10" font-style="italic" lengthAdjust="spacing" textLength="176" x="85.5" y="39.9902">nz.ac.vuw.ecs.swen225.gp22.domain</text><line style="stroke:#181818;stroke-width:0.5;" x1="57.5" x2="263.5" y1="47.1875" y2="47.1875"/><ellipse cx="67.5" cy="61.4922" fill="#84BE84" rx="3" ry="3" style="stroke:#038048;stroke-width:1.0;"/><text fill="#000000" font-family="sans-serif" font-size="14" font-style="italic" lengthAdjust="spacing" textLength="149" x="76.5" y="65.7207">getSpriteName(): String</text><ellipse cx="67.5" cy="79.1016" fill="#84BE84" rx="3" ry="3" style="stroke:#038048;stroke-width:1.0;"/><text fill="#000000" font-family="sans-serif" font-size="14" font-style="italic" lengthAdjust="spacing" textLength="102" x="76.5" y="83.3301">getPoint(): Point</text><ellipse cx="67.5" cy="96.7109" fill="#84BE84" rx="3" ry="3" style="stroke:#038048;stroke-width:1.0;"/><text fill="#000000" font-family="sans-serif" font-size="14" font-style="italic" lengthAdjust="spacing" textLength="91" x="76.5" y="100.9395">getDepth(): int</text></g></a><!--MD5=[3a33c36bdbaf87b3c4e075d2764e62d4]
reverse link nz.ac.vuw.ecs.swen225.gp22.domain.Entity to nz.ac.vuw.ecs.swen225.gp22.domain.Door--><g id="link_nz.ac.vuw.ecs.swen225.gp22.domain.Entity_nz.ac.vuw.ecs.swen225.gp22.domain.Door"><path codeLine="24" d="M160.5,128.32 C160.5,140.92 160.5,154.36 160.5,167.85 " fill="none" id="nz.ac.vuw.ecs.swen225.gp22.domain.Entity-backto-nz.ac.vuw.ecs.swen225.gp22.domain.Door" style="stroke:#181818;stroke-width:1.0;stroke-dasharray:7.0,7.0;"/><polygon fill="none" points="153.5,128.05,160.5,108.05,167.5,128.05,153.5,128.05" style="stroke:#181818;stroke-width:1.0;"/></g><rect fill="none" height="12.5781" style="stroke:none;stroke-width:1.0;" width="184" x="60.5" y="406.2813"/><text fill="#888888" font-family="sans-serif" font-size="10" lengthAdjust="spacing" textLength="184" x="60.5" y="416.6621">UMLDoclet 2.0.19, PlantUML 1.2022.8</text><!--MD5=[b6af78fa40ec0897d48ceecb0a8b8195]
@startuml
    set namespaceSeparator none
    hide empty fields
    hide empty methods

    class "<size:14>Door\n<size:10>nz.ac.vuw.ecs.swen225.gp22.domain" as nz.ac.vuw.ecs.swen225.gp22.domain.Door [[Door.html]] {
        -spriteName: String
        -point: Point
        +soundEffect: Runnable
        #Door(Point)
        +setSoundEffect(Runnable): void
        +setSpriteName(String): void
        +checkRobotMove(Model, Robot, Point): void
        +getSpriteName(): String
        +getPoint(): Point
        +getDepth(): int
    }

    interface "<size:14>Entity\n<size:10>nz.ac.vuw.ecs.swen225.gp22.domain" as nz.ac.vuw.ecs.swen225.gp22.domain.Entity [[Entity.html]] {
        {abstract} +getSpriteName(): String
        {abstract} +getPoint(): Point
        {abstract} +getDepth(): int
    }

    nz.ac.vuw.ecs.swen225.gp22.domain.Entity <|.. nz.ac.vuw.ecs.swen225.gp22.domain.Door

    center footer UMLDoclet 2.0.19, PlantUML 1.2022.8
@enduml

PlantUML version 1.2022.8(Sun Sep 25 22:00:33 NZDT 2022)
(APACHE source distribution)
Java Runtime: OpenJDK Runtime Environment
JVM: OpenJDK 64-Bit Server VM
Default Encoding: Cp1252
Language: en
Country: NZ
--></g></svg>