<?xml version="1.0" encoding="UTF-8" standalone="no"?><svg xmlns="http://www.w3.org/2000/svg" xmlns:xlink="http://www.w3.org/1999/xlink" contentStyleType="text/css" height="409px" preserveAspectRatio="none" style="width:228px;height:409px;background:#FFFFFF;" version="1.1" viewBox="0 0 228 409" width="228px" zoomAndPan="magnify"><defs/><g><!--MD5=[d0b5c817c54beb7afb2a0d7616fab686]
class nz.ac.vuw.ecs.swen225.gp22.domain.Entity.Colours--><a href="Entity.Colours.html" target="_top" title="Entity.Colours.html" xlink:actuate="onRequest" xlink:href="Entity.Colours.html" xlink:show="new" xlink:title="Entity.Colours.html" xlink:type="simple"><g id="elem_nz.ac.vuw.ecs.swen225.gp22.domain.Entity.Colours"><rect codeLine="5" fill="#F1F1F1" height="214.6719" id="nz.ac.vuw.ecs.swen225.gp22.domain.Entity.Colours" rx="2.5" ry="2.5" style="stroke:#181818;stroke-width:0.5;" width="212" x="9" y="168"/><ellipse cx="25.8" cy="188.0938" fill="#EB937F" rx="11" ry="11" style="stroke:#181818;stroke-width:1.0;"/><path d="M24.6594,188.8906 L24.6594,191.3906 L28.9875,191.3906 L28.9875,190.4688 Q28.9875,189.8594 29.2219,189.5938 Q29.4719,189.3281 29.8469,189.3281 Q30.2219,189.3281 30.4563,189.5938 Q30.6906,189.8594 30.6906,190.4688 L30.6906,193.0938 L22.6906,193.0938 Q22.0656,193.0938 21.8,192.8594 Q21.55,192.625 21.55,192.2344 Q21.55,191.8594 21.8156,191.625 Q22.0813,191.3906 22.6906,191.3906 L22.9563,191.3906 L22.9563,184.7344 L22.6906,184.7344 Q22.0656,184.7344 21.8,184.5 Q21.55,184.2656 21.55,183.875 Q21.55,183.5 21.8,183.2656 Q22.0656,183.0313 22.6906,183.0313 L30.3156,183.0313 L30.3156,185.625 Q30.3156,186.2344 30.0813,186.5 Q29.8625,186.75 29.4719,186.75 Q29.0969,186.75 28.8625,186.5 Q28.6281,186.2344 28.6281,185.625 L28.6281,184.7344 L24.6594,184.7344 L24.6594,187.1875 L26.1438,187.1875 Q26.1438,186.5313 26.2688,186.3438 Q26.5344,185.9375 27.0031,185.9375 Q27.3781,185.9375 27.6125,186.2031 Q27.8469,186.4531 27.8469,187.0625 L27.8469,189.0313 Q27.8469,189.5781 27.7219,189.7656 Q27.4563,190.1563 27.0031,190.1563 Q26.5344,190.1563 26.2688,189.75 Q26.1438,189.5625 26.1438,188.8906 L24.6594,188.8906 Z " fill="#000000"/><text fill="#000000" font-family="sans-serif" font-size="14" lengthAdjust="spacing" textLength="88" x="84.2" y="187.5332">Entity.Colours</text><text fill="#000000" font-family="sans-serif" font-size="10" lengthAdjust="spacing" textLength="176" x="40.2" y="200.9902">nz.ac.vuw.ecs.swen225.gp22.domain</text><line style="stroke:#181818;stroke-width:0.5;" x1="10" x2="220" y1="208.1875" y2="208.1875"/><ellipse cx="20" cy="222.4922" fill="none" rx="3" ry="3" style="stroke:#038048;stroke-width:1.0;"/><text fill="#000000" font-family="sans-serif" font-size="14" lengthAdjust="spacing" text-decoration="underline" textLength="58" x="29" y="226.7207">YELLOW</text><ellipse cx="20" cy="240.1016" fill="none" rx="3" ry="3" style="stroke:#038048;stroke-width:1.0;"/><text fill="#000000" font-family="sans-serif" font-size="14" lengthAdjust="spacing" text-decoration="underline" textLength="48" x="29" y="244.3301">GREEN</text><ellipse cx="20" cy="257.7109" fill="none" rx="3" ry="3" style="stroke:#038048;stroke-width:1.0;"/><text fill="#000000" font-family="sans-serif" font-size="14" lengthAdjust="spacing" text-decoration="underline" textLength="35" x="29" y="261.9395">BLUE</text><ellipse cx="20" cy="275.3203" fill="none" rx="3" ry="3" style="stroke:#038048;stroke-width:1.0;"/><text fill="#000000" font-family="sans-serif" font-size="14" lengthAdjust="spacing" text-decoration="underline" textLength="29" x="29" y="279.5488">RED</text><polygon fill="none" points="20,288.9297,16,294.9297,24,294.9297" style="stroke:#1963A0;stroke-width:1.0;"/><text fill="#000000" font-family="sans-serif" font-size="14" lengthAdjust="spacing" textLength="67" x="29" y="297.1582">key: String</text><polygon fill="none" points="20,306.5391,16,312.5391,24,312.5391" style="stroke:#1963A0;stroke-width:1.0;"/><text fill="#000000" font-family="sans-serif" font-size="14" lengthAdjust="spacing" textLength="74" x="29" y="314.7676">door: String</text><polygon fill="none" points="20,324.1484,16,330.1484,24,330.1484" style="stroke:#1963A0;stroke-width:1.0;"/><text fill="#000000" font-family="sans-serif" font-size="14" lengthAdjust="spacing" textLength="80" x="29" y="332.377">name: String</text><line style="stroke:#181818;stroke-width:0.5;" x1="10" x2="220" y1="339.4531" y2="339.4531"/><rect fill="#F24D5C" height="6" style="stroke:#C82930;stroke-width:1.0;" width="6" x="17" y="350.7578"/><text fill="#000000" font-family="sans-serif" font-size="14" lengthAdjust="spacing" textLength="186" x="29" y="357.9863">Colours(String, String, String)</text><polygon fill="#4177AF" points="20,367.3672,16,373.3672,24,373.3672" style="stroke:#1963A0;stroke-width:1.0;"/><text fill="#000000" font-family="sans-serif" font-size="14" lengthAdjust="spacing" textLength="111" x="29" y="375.5957">getName(): String</text></g></a><!--MD5=[c1afd2d57aec8c90a42dc3be3bff6847]
class nz.ac.vuw.ecs.swen225.gp22.domain.Entity--><a href="Entity.html" target="_top" title="Entity.html" xlink:actuate="onRequest" xlink:href="Entity.html" xlink:show="new" xlink:title="Entity.html" xlink:type="simple"><g id="elem_nz.ac.vuw.ecs.swen225.gp22.domain.Entity"><rect codeLine="17" fill="#F1F1F1" height="101.0156" id="nz.ac.vuw.ecs.swen225.gp22.domain.Entity" rx="2.5" ry="2.5" style="stroke:#181818;stroke-width:0.5;" width="208" x="11" y="7"/><ellipse cx="26" cy="27.0938" fill="#B4A7E5" rx="11" ry="11" style="stroke:#181818;stroke-width:1.0;"/><path d="M26.9531,23.7344 L26.9531,30.3906 L28.6719,30.3906 Q29.2813,30.3906 29.5469,30.625 Q29.8125,30.8594 29.8125,31.25 Q29.8125,31.625 29.5469,31.8594 Q29.2813,32.0938 28.6719,32.0938 L23.5313,32.0938 Q22.9219,32.0938 22.6563,31.8594 Q22.3906,31.625 22.3906,31.2344 Q22.3906,30.8594 22.6563,30.625 Q22.9219,30.3906 23.5313,30.3906 L25.25,30.3906 L25.25,23.7344 L23.5313,23.7344 Q22.9219,23.7344 22.6563,23.5 Q22.3906,23.2656 22.3906,22.875 Q22.3906,22.5 22.6563,22.2656 Q22.9219,22.0313 23.5313,22.0313 L28.6719,22.0313 Q29.2813,22.0313 29.5469,22.2656 Q29.8125,22.5 29.8125,22.875 Q29.8125,23.2656 29.5469,23.5 Q29.2813,23.7344 28.6719,23.7344 L26.9531,23.7344 Z " fill="#000000"/><text fill="#000000" font-family="sans-serif" font-size="14" font-style="italic" lengthAdjust="spacing" textLength="35" x="110.5" y="26.5332">Entity</text><text fill="#000000" font-family="sans-serif" font-size="10" font-style="italic" lengthAdjust="spacing" textLength="176" x="40" y="39.9902">nz.ac.vuw.ecs.swen225.gp22.domain</text><line style="stroke:#181818;stroke-width:0.5;" x1="12" x2="218" y1="47.1875" y2="47.1875"/><ellipse cx="22" cy="61.4922" fill="#84BE84" rx="3" ry="3" style="stroke:#038048;stroke-width:1.0;"/><text fill="#000000" font-family="sans-serif" font-size="14" font-style="italic" lengthAdjust="spacing" textLength="149" x="31" y="65.7207">getSpriteName(): String</text><ellipse cx="22" cy="79.1016" fill="#84BE84" rx="3" ry="3" style="stroke:#038048;stroke-width:1.0;"/><text fill="#000000" font-family="sans-serif" font-size="14" font-style="italic" lengthAdjust="spacing" textLength="102" x="31" y="83.3301">getPoint(): Point</text><ellipse cx="22" cy="96.7109" fill="#84BE84" rx="3" ry="3" style="stroke:#038048;stroke-width:1.0;"/><text fill="#000000" font-family="sans-serif" font-size="14" font-style="italic" lengthAdjust="spacing" textLength="91" x="31" y="100.9395">getDepth(): int</text></g></a><!--MD5=[7fe27dcee75ae0055e3f393bda09da7e]
reverse link nz.ac.vuw.ecs.swen225.gp22.domain.Entity to nz.ac.vuw.ecs.swen225.gp22.domain.Entity.Colours--><g id="link_nz.ac.vuw.ecs.swen225.gp22.domain.Entity_nz.ac.vuw.ecs.swen225.gp22.domain.Entity.Colours"><path codeLine="23" d="M115,123.39 C115,137.48 115,152.73 115,167.94 " fill="none" id="nz.ac.vuw.ecs.swen225.gp22.domain.Entity-backto-nz.ac.vuw.ecs.swen225.gp22.domain.Entity.Colours" style="stroke:#181818;stroke-width:1.0;"/><ellipse cx="115" cy="116.05" fill="#FFFFFF" rx="8" ry="8" style="stroke:#181818;stroke-width:1.0;"/><line style="stroke:#181818;stroke-width:1.0;" x1="115" x2="115" y1="124.05" y2="108.05"/><line style="stroke:#181818;stroke-width:1.0;" x1="107" x2="123" y1="116.05" y2="116.05"/></g><rect fill="none" height="12.5781" style="stroke:none;stroke-width:1.0;" width="184" x="15" y="388.6719"/><text fill="#888888" font-family="sans-serif" font-size="10" lengthAdjust="spacing" textLength="184" x="15" y="399.0527">UMLDoclet 2.0.19, PlantUML 1.2022.8</text><!--MD5=[40e82b5ec6c1401907fae51635c3c5d2]
@startuml
    set namespaceSeparator none
    hide empty fields
    hide empty methods

    enum "<size:14>Entity.Colours\n<size:10>nz.ac.vuw.ecs.swen225.gp22.domain" as nz.ac.vuw.ecs.swen225.gp22.domain.Entity.Colours [[Entity.Colours.html]] {
        {static} +YELLOW
        {static} +GREEN
        {static} +BLUE
        {static} +RED
        ~key: String
        ~door: String
        ~name: String
        -Colours(String, String, String)
        ~getName(): String
    }

    interface "<size:14>Entity\n<size:10>nz.ac.vuw.ecs.swen225.gp22.domain" as nz.ac.vuw.ecs.swen225.gp22.domain.Entity [[Entity.html]] {
        {abstract} +getSpriteName(): String
        {abstract} +getPoint(): Point
        {abstract} +getDepth(): int
    }

    nz.ac.vuw.ecs.swen225.gp22.domain.Entity +- - nz.ac.vuw.ecs.swen225.gp22.domain.Entity.Colours

    center footer UMLDoclet 2.0.19, PlantUML 1.2022.8
@enduml

PlantUML version 1.2022.8(Sun Sep 25 22:00:33 NZDT 2022)
(APACHE source distribution)
Java Runtime: OpenJDK Runtime Environment
JVM: OpenJDK 64-Bit Server VM
Default Encoding: Cp1252
Language: en
Country: NZ
--></g></svg>