<?xml version="1.0" encoding="UTF-8" standalone="no"?><svg xmlns="http://www.w3.org/2000/svg" xmlns:xlink="http://www.w3.org/1999/xlink" contentStyleType="text/css" height="321px" preserveAspectRatio="none" style="width:317px;height:321px;background:#FFFFFF;" version="1.1" viewBox="0 0 317 321" width="317px" zoomAndPan="magnify"><defs/><g><!--MD5=[c1afd2d57aec8c90a42dc3be3bff6847]
class nz.ac.vuw.ecs.swen225.gp22.domain.Entity--><a href="Entity.html" target="_top" title="Entity.html" xlink:actuate="onRequest" xlink:href="Entity.html" xlink:show="new" xlink:title="Entity.html" xlink:type="simple"><g id="elem_nz.ac.vuw.ecs.swen225.gp22.domain.Entity"><rect codeLine="5" fill="#F1F1F1" height="189.0625" id="nz.ac.vuw.ecs.swen225.gp22.domain.Entity" rx="2.5" ry="2.5" style="stroke:#181818;stroke-width:0.5;" width="303" x="7" y="7"/><ellipse cx="66.25" cy="27.0938" fill="#B4A7E5" rx="11" ry="11" style="stroke:#181818;stroke-width:1.0;"/><path d="M67.2031,23.7344 L67.2031,30.3906 L68.9219,30.3906 Q69.5313,30.3906 69.7969,30.625 Q70.0625,30.8594 70.0625,31.25 Q70.0625,31.625 69.7969,31.8594 Q69.5313,32.0938 68.9219,32.0938 L63.7813,32.0938 Q63.1719,32.0938 62.9063,31.8594 Q62.6406,31.625 62.6406,31.2344 Q62.6406,30.8594 62.9063,30.625 Q63.1719,30.3906 63.7813,30.3906 L65.5,30.3906 L65.5,23.7344 L63.7813,23.7344 Q63.1719,23.7344 62.9063,23.5 Q62.6406,23.2656 62.6406,22.875 Q62.6406,22.5 62.9063,22.2656 Q63.1719,22.0313 63.7813,22.0313 L68.9219,22.0313 Q69.5313,22.0313 69.7969,22.2656 Q70.0625,22.5 70.0625,22.875 Q70.0625,23.2656 69.7969,23.5 Q69.5313,23.7344 68.9219,23.7344 L67.2031,23.7344 Z " fill="#000000"/><text fill="#000000" font-family="sans-serif" font-size="14" font-style="italic" lengthAdjust="spacing" textLength="35" x="157.25" y="26.5332">Entity</text><text fill="#000000" font-family="sans-serif" font-size="10" font-style="italic" lengthAdjust="spacing" textLength="176" x="86.75" y="39.9902">nz.ac.vuw.ecs.swen225.gp22.domain</text><line style="stroke:#181818;stroke-width:0.5;" x1="8" x2="309" y1="47.1875" y2="47.1875"/><ellipse cx="18" cy="61.4922" fill="#84BE84" rx="3" ry="3" style="stroke:#038048;stroke-width:1.0;"/><text fill="#000000" font-family="sans-serif" font-size="14" lengthAdjust="spacing" textLength="109" x="27" y="65.7207">ping(Model): void</text><ellipse cx="18" cy="79.1016" fill="#84BE84" rx="3" ry="3" style="stroke:#038048;stroke-width:1.0;"/><text fill="#000000" font-family="sans-serif" font-size="14" font-style="italic" lengthAdjust="spacing" textLength="149" x="27" y="83.3301">getSpriteName(): String</text><ellipse cx="18" cy="96.7109" fill="#84BE84" rx="3" ry="3" style="stroke:#038048;stroke-width:1.0;"/><text fill="#000000" font-family="sans-serif" font-size="14" font-style="italic" lengthAdjust="spacing" textLength="102" x="27" y="100.9395">getPoint(): Point</text><ellipse cx="18" cy="114.3203" fill="#84BE84" rx="3" ry="3" style="stroke:#038048;stroke-width:1.0;"/><text fill="#000000" font-family="sans-serif" font-size="14" font-style="italic" lengthAdjust="spacing" textLength="91" x="27" y="118.5488">getDepth(): int</text><ellipse cx="18" cy="131.9297" fill="#84BE84" rx="3" ry="3" style="stroke:#038048;stroke-width:1.0;"/><text fill="#000000" font-family="sans-serif" font-size="14" lengthAdjust="spacing" textLength="225" x="27" y="136.1582">doAction(Model, Player, Point): void</text><ellipse cx="18" cy="149.5391" fill="#84BE84" rx="3" ry="3" style="stroke:#038048;stroke-width:1.0;"/><text fill="#000000" font-family="sans-serif" font-size="14" lengthAdjust="spacing" textLength="277" x="27" y="153.7676">checkRobotMove(Model, Robot, Point): void</text><ellipse cx="18" cy="167.1484" fill="#84BE84" rx="3" ry="3" style="stroke:#038048;stroke-width:1.0;"/><text fill="#000000" font-family="sans-serif" font-size="14" lengthAdjust="spacing" textLength="201" x="27" y="171.377">setSoundEffect(Runnable): void</text><ellipse cx="18" cy="184.7578" fill="#84BE84" rx="3" ry="3" style="stroke:#038048;stroke-width:1.0;"/><text fill="#000000" font-family="sans-serif" font-size="14" lengthAdjust="spacing" textLength="166" x="27" y="188.9863">getColour(String): Colours</text></g></a><!--MD5=[d0b5c817c54beb7afb2a0d7616fab686]
class nz.ac.vuw.ecs.swen225.gp22.domain.Entity.Colours--><a href="Entity.Colours.html" target="_top" title="Entity.Colours.html" xlink:actuate="onRequest" xlink:href="Entity.Colours.html" xlink:show="new" xlink:title="Entity.Colours.html" xlink:type="simple"><g id="elem_nz.ac.vuw.ecs.swen225.gp22.domain.Entity.Colours"><rect codeLine="15" fill="#F1F1F1" height="40.1875" id="nz.ac.vuw.ecs.swen225.gp22.domain.Entity.Colours" rx="2.5" ry="2.5" style="stroke:#181818;stroke-width:0.5;" width="208" x="54.5" y="256"/><ellipse cx="69.5" cy="276.0938" fill="#EB937F" rx="11" ry="11" style="stroke:#181818;stroke-width:1.0;"/><path d="M68.3594,276.8906 L68.3594,279.3906 L72.6875,279.3906 L72.6875,278.4688 Q72.6875,277.8594 72.9219,277.5938 Q73.1719,277.3281 73.5469,277.3281 Q73.9219,277.3281 74.1563,277.5938 Q74.3906,277.8594 74.3906,278.4688 L74.3906,281.0938 L66.3906,281.0938 Q65.7656,281.0938 65.5,280.8594 Q65.25,280.625 65.25,280.2344 Q65.25,279.8594 65.5156,279.625 Q65.7813,279.3906 66.3906,279.3906 L66.6563,279.3906 L66.6563,272.7344 L66.3906,272.7344 Q65.7656,272.7344 65.5,272.5 Q65.25,272.2656 65.25,271.875 Q65.25,271.5 65.5,271.2656 Q65.7656,271.0313 66.3906,271.0313 L74.0156,271.0313 L74.0156,273.625 Q74.0156,274.2344 73.7813,274.5 Q73.5625,274.75 73.1719,274.75 Q72.7969,274.75 72.5625,274.5 Q72.3281,274.2344 72.3281,273.625 L72.3281,272.7344 L68.3594,272.7344 L68.3594,275.1875 L69.8438,275.1875 Q69.8438,274.5313 69.9688,274.3438 Q70.2344,273.9375 70.7031,273.9375 Q71.0781,273.9375 71.3125,274.2031 Q71.5469,274.4531 71.5469,275.0625 L71.5469,277.0313 Q71.5469,277.5781 71.4219,277.7656 Q71.1563,278.1563 70.7031,278.1563 Q70.2344,278.1563 69.9688,277.75 Q69.8438,277.5625 69.8438,276.8906 L68.3594,276.8906 Z " fill="#000000"/><text fill="#000000" font-family="sans-serif" font-size="14" lengthAdjust="spacing" textLength="88" x="127.5" y="275.5332">Entity.Colours</text><text fill="#000000" font-family="sans-serif" font-size="10" lengthAdjust="spacing" textLength="176" x="83.5" y="288.9902">nz.ac.vuw.ecs.swen225.gp22.domain</text></g></a><!--MD5=[7fe27dcee75ae0055e3f393bda09da7e]
reverse link nz.ac.vuw.ecs.swen225.gp22.domain.Entity to nz.ac.vuw.ecs.swen225.gp22.domain.Entity.Colours--><g id="link_nz.ac.vuw.ecs.swen225.gp22.domain.Entity_nz.ac.vuw.ecs.swen225.gp22.domain.Entity.Colours"><path codeLine="17" d="M158.5,211.13 C158.5,228.38 158.5,244.34 158.5,255.99 " fill="none" id="nz.ac.vuw.ecs.swen225.gp22.domain.Entity-backto-nz.ac.vuw.ecs.swen225.gp22.domain.Entity.Colours" style="stroke:#181818;stroke-width:1.0;"/><ellipse cx="158.5" cy="204.07" fill="#FFFFFF" rx="8" ry="8" style="stroke:#181818;stroke-width:1.0;"/><line style="stroke:#181818;stroke-width:1.0;" x1="158.5" x2="158.5" y1="212.07" y2="196.07"/><line style="stroke:#181818;stroke-width:1.0;" x1="150.5" x2="166.5" y1="204.07" y2="204.07"/></g><rect fill="none" height="12.5781" style="stroke:none;stroke-width:1.0;" width="184" x="59.5" y="301.1875"/><text fill="#888888" font-family="sans-serif" font-size="10" lengthAdjust="spacing" textLength="184" x="59.5" y="311.5684">UMLDoclet 2.0.19, PlantUML 1.2022.8</text><!--MD5=[c5b41bac7d07ca3b25c969f3ec144947]
@startuml
    set namespaceSeparator none
    hide empty fields
    hide empty methods

    interface "<size:14>Entity\n<size:10>nz.ac.vuw.ecs.swen225.gp22.domain" as nz.ac.vuw.ecs.swen225.gp22.domain.Entity [[Entity.html]] {
        +ping(Model): void
        {abstract} +getSpriteName(): String
        {abstract} +getPoint(): Point
        {abstract} +getDepth(): int
        +doAction(Model, Player, Point): void
        +checkRobotMove(Model, Robot, Point): void
        +setSoundEffect(Runnable): void
        +getColour(String): Colours
    }
    enum "<size:14>Entity.Colours\n<size:10>nz.ac.vuw.ecs.swen225.gp22.domain" as nz.ac.vuw.ecs.swen225.gp22.domain.Entity.Colours [[Entity.Colours.html]]

    nz.ac.vuw.ecs.swen225.gp22.domain.Entity +- - nz.ac.vuw.ecs.swen225.gp22.domain.Entity.Colours

    center footer UMLDoclet 2.0.19, PlantUML 1.2022.8
@enduml

PlantUML version 1.2022.8(Sun Sep 25 22:00:33 NZDT 2022)
(APACHE source distribution)
Java Runtime: OpenJDK Runtime Environment
JVM: OpenJDK 64-Bit Server VM
Default Encoding: Cp1252
Language: en
Country: NZ
--></g></svg>