<?xml version="1.0" encoding="UTF-8" standalone="no"?><svg xmlns="http://www.w3.org/2000/svg" xmlns:xlink="http://www.w3.org/1999/xlink" contentStyleType="text/css" height="391px" preserveAspectRatio="none" style="width:267px;height:391px;background:#FFFFFF;" version="1.1" viewBox="0 0 267 391" width="267px" zoomAndPan="magnify"><defs/><g><!--MD5=[a1c5a2c6632b13a22bf0ab6e00cc6658]
class nz.ac.vuw.ecs.swen225.gp22.domain.Exit--><a href="Exit.html" target="_top" title="Exit.html" xlink:actuate="onRequest" xlink:href="Exit.html" xlink:show="new" xlink:title="Exit.html" xlink:type="simple"><g id="elem_nz.ac.vuw.ecs.swen225.gp22.domain.Exit"><rect codeLine="5" fill="#F1F1F1" height="197.0625" id="nz.ac.vuw.ecs.swen225.gp22.domain.Exit" rx="2.5" ry="2.5" style="stroke:#181818;stroke-width:0.5;" width="251" x="9" y="168"/><ellipse cx="43.35" cy="188.0938" fill="#ADD1B2" rx="11" ry="11" style="stroke:#181818;stroke-width:1.0;"/><path d="M46.1156,183.9688 Q46.2719,183.75 46.4594,183.6406 Q46.6469,183.5313 46.8656,183.5313 Q47.2406,183.5313 47.475,183.7969 Q47.7094,184.0469 47.7094,184.6563 L47.7094,186.1094 Q47.7094,186.7188 47.475,186.9844 Q47.2406,187.25 46.8656,187.25 Q46.5219,187.25 46.3188,187.0469 Q46.1156,186.8594 46.0063,186.3438 Q45.9594,185.9844 45.7719,185.7969 Q45.4438,185.4219 44.8344,185.2031 Q44.225,184.9844 43.6,184.9844 Q42.8344,184.9844 42.1938,185.3125 Q41.5688,185.6406 41.0688,186.3906 Q40.5844,187.1406 40.5844,188.1719 L40.5844,189.2656 Q40.5844,190.5 41.475,191.3281 Q42.3656,192.1406 43.9594,192.1406 Q44.8969,192.1406 45.5531,191.8906 Q45.9438,191.7344 46.3656,191.2969 Q46.6313,191.0313 46.7719,190.9531 Q46.9281,190.875 47.1313,190.875 Q47.4594,190.875 47.7094,191.1406 Q47.975,191.3906 47.975,191.7344 Q47.975,192.0781 47.6313,192.4844 Q47.1313,193.0625 46.3344,193.3906 Q45.2563,193.8438 43.9594,193.8438 Q42.4438,193.8438 41.2406,193.2188 Q40.2563,192.7188 39.5688,191.6563 Q38.8813,190.5781 38.8813,189.2969 L38.8813,188.1406 Q38.8813,186.8125 39.4906,185.6719 Q40.1156,184.5156 41.2094,183.9063 Q42.3031,183.2813 43.5375,183.2813 Q44.2719,183.2813 44.9125,183.4531 Q45.5688,183.6094 46.1156,183.9688 Z " fill="#000000"/><text fill="#000000" font-family="sans-serif" font-size="14" lengthAdjust="spacing" textLength="22" x="138.65" y="187.5332">Exit</text><text fill="#000000" font-family="sans-serif" font-size="10" lengthAdjust="spacing" textLength="176" x="61.65" y="200.9902">nz.ac.vuw.ecs.swen225.gp22.domain</text><line style="stroke:#181818;stroke-width:0.5;" x1="10" x2="259" y1="208.1875" y2="208.1875"/><rect fill="none" height="6" style="stroke:#C82930;stroke-width:1.0;" width="6" x="17" y="219.4922"/><text fill="#000000" font-family="sans-serif" font-size="14" lengthAdjust="spacing" textLength="71" x="29" y="226.7207">point: Point</text><ellipse cx="20" cy="240.1016" fill="none" rx="3" ry="3" style="stroke:#038048;stroke-width:1.0;"/><text fill="#000000" font-family="sans-serif" font-size="14" lengthAdjust="spacing" textLength="144" x="29" y="244.3301">soundEffect: Runnable</text><line style="stroke:#181818;stroke-width:0.5;" x1="10" x2="259" y1="251.4063" y2="251.4063"/><polygon fill="#FFFF44" points="20,260.7109,24,264.7109,20,268.7109,16,264.7109" style="stroke:#B38D22;stroke-width:1.0;"/><text fill="#000000" font-family="sans-serif" font-size="14" lengthAdjust="spacing" textLength="64" x="29" y="269.9395">Exit(Point)</text><ellipse cx="20" cy="283.3203" fill="#84BE84" rx="3" ry="3" style="stroke:#038048;stroke-width:1.0;"/><text fill="#000000" font-family="sans-serif" font-size="14" lengthAdjust="spacing" textLength="201" x="29" y="287.5488">setSoundEffect(Runnable): void</text><ellipse cx="20" cy="300.9297" fill="#84BE84" rx="3" ry="3" style="stroke:#038048;stroke-width:1.0;"/><text fill="#000000" font-family="sans-serif" font-size="14" lengthAdjust="spacing" textLength="148" x="29" y="305.1582">getSpriteName(): String</text><ellipse cx="20" cy="318.5391" fill="#84BE84" rx="3" ry="3" style="stroke:#038048;stroke-width:1.0;"/><text fill="#000000" font-family="sans-serif" font-size="14" lengthAdjust="spacing" textLength="102" x="29" y="322.7676">getPoint(): Point</text><ellipse cx="20" cy="336.1484" fill="#84BE84" rx="3" ry="3" style="stroke:#038048;stroke-width:1.0;"/><text fill="#000000" font-family="sans-serif" font-size="14" lengthAdjust="spacing" textLength="91" x="29" y="340.377">getDepth(): int</text><ellipse cx="20" cy="353.7578" fill="#84BE84" rx="3" ry="3" style="stroke:#038048;stroke-width:1.0;"/><text fill="#000000" font-family="sans-serif" font-size="14" lengthAdjust="spacing" textLength="225" x="29" y="357.9863">doAction(Model, Player, Point): void</text></g></a><!--MD5=[c1afd2d57aec8c90a42dc3be3bff6847]
class nz.ac.vuw.ecs.swen225.gp22.domain.Entity--><a href="Entity.html" target="_top" title="Entity.html" xlink:actuate="onRequest" xlink:href="Entity.html" xlink:show="new" xlink:title="Entity.html" xlink:type="simple"><g id="elem_nz.ac.vuw.ecs.swen225.gp22.domain.Entity"><rect codeLine="16" fill="#F1F1F1" height="101.0156" id="nz.ac.vuw.ecs.swen225.gp22.domain.Entity" rx="2.5" ry="2.5" style="stroke:#181818;stroke-width:0.5;" width="208" x="30.5" y="7"/><ellipse cx="45.5" cy="27.0938" fill="#B4A7E5" rx="11" ry="11" style="stroke:#181818;stroke-width:1.0;"/><path d="M46.4531,23.7344 L46.4531,30.3906 L48.1719,30.3906 Q48.7813,30.3906 49.0469,30.625 Q49.3125,30.8594 49.3125,31.25 Q49.3125,31.625 49.0469,31.8594 Q48.7813,32.0938 48.1719,32.0938 L43.0313,32.0938 Q42.4219,32.0938 42.1563,31.8594 Q41.8906,31.625 41.8906,31.2344 Q41.8906,30.8594 42.1563,30.625 Q42.4219,30.3906 43.0313,30.3906 L44.75,30.3906 L44.75,23.7344 L43.0313,23.7344 Q42.4219,23.7344 42.1563,23.5 Q41.8906,23.2656 41.8906,22.875 Q41.8906,22.5 42.1563,22.2656 Q42.4219,22.0313 43.0313,22.0313 L48.1719,22.0313 Q48.7813,22.0313 49.0469,22.2656 Q49.3125,22.5 49.3125,22.875 Q49.3125,23.2656 49.0469,23.5 Q48.7813,23.7344 48.1719,23.7344 L46.4531,23.7344 Z " fill="#000000"/><text fill="#000000" font-family="sans-serif" font-size="14" font-style="italic" lengthAdjust="spacing" textLength="35" x="130" y="26.5332">Entity</text><text fill="#000000" font-family="sans-serif" font-size="10" font-style="italic" lengthAdjust="spacing" textLength="176" x="59.5" y="39.9902">nz.ac.vuw.ecs.swen225.gp22.domain</text><line style="stroke:#181818;stroke-width:0.5;" x1="31.5" x2="237.5" y1="47.1875" y2="47.1875"/><ellipse cx="41.5" cy="61.4922" fill="#84BE84" rx="3" ry="3" style="stroke:#038048;stroke-width:1.0;"/><text fill="#000000" font-family="sans-serif" font-size="14" font-style="italic" lengthAdjust="spacing" textLength="149" x="50.5" y="65.7207">getSpriteName(): String</text><ellipse cx="41.5" cy="79.1016" fill="#84BE84" rx="3" ry="3" style="stroke:#038048;stroke-width:1.0;"/><text fill="#000000" font-family="sans-serif" font-size="14" font-style="italic" lengthAdjust="spacing" textLength="102" x="50.5" y="83.3301">getPoint(): Point</text><ellipse cx="41.5" cy="96.7109" fill="#84BE84" rx="3" ry="3" style="stroke:#038048;stroke-width:1.0;"/><text fill="#000000" font-family="sans-serif" font-size="14" font-style="italic" lengthAdjust="spacing" textLength="91" x="50.5" y="100.9395">getDepth(): int</text></g></a><!--MD5=[b175c42321d00bb7e35f5c49415bff45]
reverse link nz.ac.vuw.ecs.swen225.gp22.domain.Entity to nz.ac.vuw.ecs.swen225.gp22.domain.Exit--><g id="link_nz.ac.vuw.ecs.swen225.gp22.domain.Entity_nz.ac.vuw.ecs.swen225.gp22.domain.Exit"><path codeLine="22" d="M134.5,128.43 C134.5,141.03 134.5,154.38 134.5,167.6 " fill="none" id="nz.ac.vuw.ecs.swen225.gp22.domain.Entity-backto-nz.ac.vuw.ecs.swen225.gp22.domain.Exit" style="stroke:#181818;stroke-width:1.0;stroke-dasharray:7.0,7.0;"/><polygon fill="none" points="127.5,128.08,134.5,108.08,141.5,128.08,127.5,128.08" style="stroke:#181818;stroke-width:1.0;"/></g><rect fill="none" height="12.5781" style="stroke:none;stroke-width:1.0;" width="184" x="34.5" y="371.0625"/><text fill="#888888" font-family="sans-serif" font-size="10" lengthAdjust="spacing" textLength="184" x="34.5" y="381.4434">UMLDoclet 2.0.19, PlantUML 1.2022.8</text><!--MD5=[9d1a429a02d8c50251415e96560c7592]
@startuml
    set namespaceSeparator none
    hide empty fields
    hide empty methods

    class "<size:14>Exit\n<size:10>nz.ac.vuw.ecs.swen225.gp22.domain" as nz.ac.vuw.ecs.swen225.gp22.domain.Exit [[Exit.html]] {
        -point: Point
        +soundEffect: Runnable
        #Exit(Point)
        +setSoundEffect(Runnable): void
        +getSpriteName(): String
        +getPoint(): Point
        +getDepth(): int
        +doAction(Model, Player, Point): void
    }

    interface "<size:14>Entity\n<size:10>nz.ac.vuw.ecs.swen225.gp22.domain" as nz.ac.vuw.ecs.swen225.gp22.domain.Entity [[Entity.html]] {
        {abstract} +getSpriteName(): String
        {abstract} +getPoint(): Point
        {abstract} +getDepth(): int
    }

    nz.ac.vuw.ecs.swen225.gp22.domain.Entity <|.. nz.ac.vuw.ecs.swen225.gp22.domain.Exit

    center footer UMLDoclet 2.0.19, PlantUML 1.2022.8
@enduml

PlantUML version 1.2022.8(Sun Sep 25 22:00:33 NZDT 2022)
(APACHE source distribution)
Java Runtime: OpenJDK Runtime Environment
JVM: OpenJDK 64-Bit Server VM
Default Encoding: Cp1252
Language: en
Country: NZ
--></g></svg>