<?xml version="1.0" encoding="UTF-8" standalone="no"?><svg xmlns="http://www.w3.org/2000/svg" xmlns:xlink="http://www.w3.org/1999/xlink" contentStyleType="text/css" height="199px" preserveAspectRatio="none" style="width:224px;height:199px;background:#FFFFFF;" version="1.1" viewBox="0 0 224 199" width="224px" zoomAndPan="magnify"><defs/><g><!--MD5=[d341b28dbf35b0ddd4d6ecae9b814654]
class nz.ac.vuw.ecs.swen225.gp22.domain.FloorTile--><a href="FloorTile.html" target="_top" title="FloorTile.html" xlink:actuate="onRequest" xlink:href="FloorTile.html" xlink:show="new" xlink:title="FloorTile.html" xlink:type="simple"><g id="elem_nz.ac.vuw.ecs.swen225.gp22.domain.FloorTile"><rect codeLine="5" fill="#F1F1F1" height="65.7969" id="nz.ac.vuw.ecs.swen225.gp22.domain.FloorTile" rx="2.5" ry="2.5" style="stroke:#181818;stroke-width:0.5;" width="208" x="9" y="107"/><ellipse cx="24" cy="127.0938" fill="#ADD1B2" rx="11" ry="11" style="stroke:#181818;stroke-width:1.0;"/><path d="M26.7656,122.9688 Q26.9219,122.75 27.1094,122.6406 Q27.2969,122.5313 27.5156,122.5313 Q27.8906,122.5313 28.125,122.7969 Q28.3594,123.0469 28.3594,123.6563 L28.3594,125.1094 Q28.3594,125.7188 28.125,125.9844 Q27.8906,126.25 27.5156,126.25 Q27.1719,126.25 26.9688,126.0469 Q26.7656,125.8594 26.6563,125.3438 Q26.6094,124.9844 26.4219,124.7969 Q26.0938,124.4219 25.4844,124.2031 Q24.875,123.9844 24.25,123.9844 Q23.4844,123.9844 22.8438,124.3125 Q22.2188,124.6406 21.7188,125.3906 Q21.2344,126.1406 21.2344,127.1719 L21.2344,128.2656 Q21.2344,129.5 22.125,130.3281 Q23.0156,131.1406 24.6094,131.1406 Q25.5469,131.1406 26.2031,130.8906 Q26.5938,130.7344 27.0156,130.2969 Q27.2813,130.0313 27.4219,129.9531 Q27.5781,129.875 27.7813,129.875 Q28.1094,129.875 28.3594,130.1406 Q28.625,130.3906 28.625,130.7344 Q28.625,131.0781 28.2813,131.4844 Q27.7813,132.0625 26.9844,132.3906 Q25.9063,132.8438 24.6094,132.8438 Q23.0938,132.8438 21.8906,132.2188 Q20.9063,131.7188 20.2188,130.6563 Q19.5313,129.5781 19.5313,128.2969 L19.5313,127.1406 Q19.5313,125.8125 20.1406,124.6719 Q20.7656,123.5156 21.8594,122.9063 Q22.9531,122.2813 24.1875,122.2813 Q24.9219,122.2813 25.5625,122.4531 Q26.2188,122.6094 26.7656,122.9688 Z " fill="#000000"/><text fill="#000000" font-family="sans-serif" font-size="14" lengthAdjust="spacing" textLength="56" x="98" y="126.5332">FloorTile</text><text fill="#000000" font-family="sans-serif" font-size="10" lengthAdjust="spacing" textLength="176" x="38" y="139.9902">nz.ac.vuw.ecs.swen225.gp22.domain</text><line style="stroke:#181818;stroke-width:0.5;" x1="10" x2="216" y1="147.1875" y2="147.1875"/><polygon fill="#FFFF44" points="20,156.4922,24,160.4922,20,164.4922,16,160.4922" style="stroke:#B38D22;stroke-width:1.0;"/><text fill="#000000" font-family="sans-serif" font-size="14" lengthAdjust="spacing" textLength="98" x="29" y="165.7207">FloorTile(Point)</text></g></a><!--MD5=[186e21ba2cd9930336d13f364b5bb404]
class nz.ac.vuw.ecs.swen225.gp22.domain.Tile--><a href="Tile.html" target="_top" title="Tile.html" xlink:actuate="onRequest" xlink:href="Tile.html" xlink:show="new" xlink:title="Tile.html" xlink:type="simple"><g id="elem_nz.ac.vuw.ecs.swen225.gp22.domain.Tile"><rect codeLine="9" fill="#F1F1F1" height="40.1875" id="nz.ac.vuw.ecs.swen225.gp22.domain.Tile" rx="2.5" ry="2.5" style="stroke:#181818;stroke-width:0.5;" width="208" x="9" y="7"/><ellipse cx="24" cy="27.0938" fill="#ADD1B2" rx="11" ry="11" style="stroke:#181818;stroke-width:1.0;"/><path d="M26.7656,22.9688 Q26.9219,22.75 27.1094,22.6406 Q27.2969,22.5313 27.5156,22.5313 Q27.8906,22.5313 28.125,22.7969 Q28.3594,23.0469 28.3594,23.6563 L28.3594,25.1094 Q28.3594,25.7188 28.125,25.9844 Q27.8906,26.25 27.5156,26.25 Q27.1719,26.25 26.9688,26.0469 Q26.7656,25.8594 26.6563,25.3438 Q26.6094,24.9844 26.4219,24.7969 Q26.0938,24.4219 25.4844,24.2031 Q24.875,23.9844 24.25,23.9844 Q23.4844,23.9844 22.8438,24.3125 Q22.2188,24.6406 21.7188,25.3906 Q21.2344,26.1406 21.2344,27.1719 L21.2344,28.2656 Q21.2344,29.5 22.125,30.3281 Q23.0156,31.1406 24.6094,31.1406 Q25.5469,31.1406 26.2031,30.8906 Q26.5938,30.7344 27.0156,30.2969 Q27.2813,30.0313 27.4219,29.9531 Q27.5781,29.875 27.7813,29.875 Q28.1094,29.875 28.3594,30.1406 Q28.625,30.3906 28.625,30.7344 Q28.625,31.0781 28.2813,31.4844 Q27.7813,32.0625 26.9844,32.3906 Q25.9063,32.8438 24.6094,32.8438 Q23.0938,32.8438 21.8906,32.2188 Q20.9063,31.7188 20.2188,30.6563 Q19.5313,29.5781 19.5313,28.2969 L19.5313,27.1406 Q19.5313,25.8125 20.1406,24.6719 Q20.7656,23.5156 21.8594,22.9063 Q22.9531,22.2813 24.1875,22.2813 Q24.9219,22.2813 25.5625,22.4531 Q26.2188,22.6094 26.7656,22.9688 Z " fill="#000000"/><text fill="#000000" font-family="sans-serif" font-size="14" lengthAdjust="spacing" textLength="23" x="114.5" y="26.5332">Tile</text><text fill="#000000" font-family="sans-serif" font-size="10" lengthAdjust="spacing" textLength="176" x="38" y="39.9902">nz.ac.vuw.ecs.swen225.gp22.domain</text></g></a><!--MD5=[ebe5bbcaea627ca2cc1f5ce7504d372a]
reverse link nz.ac.vuw.ecs.swen225.gp22.domain.Tile to nz.ac.vuw.ecs.swen225.gp22.domain.FloorTile--><g id="link_nz.ac.vuw.ecs.swen225.gp22.domain.Tile_nz.ac.vuw.ecs.swen225.gp22.domain.FloorTile"><path codeLine="11" d="M113,67.09 C113,80.05 113,94.32 113,106.71 " fill="none" id="nz.ac.vuw.ecs.swen225.gp22.domain.Tile-backto-nz.ac.vuw.ecs.swen225.gp22.domain.FloorTile" style="stroke:#181818;stroke-width:1.0;"/><polygon fill="none" points="106,67.08,113,47.08,120,67.08,106,67.08" style="stroke:#181818;stroke-width:1.0;"/></g><rect fill="none" height="12.5781" style="stroke:none;stroke-width:1.0;" width="184" x="13" y="178.7969"/><text fill="#888888" font-family="sans-serif" font-size="10" lengthAdjust="spacing" textLength="184" x="13" y="189.1777">UMLDoclet 2.0.19, PlantUML 1.2022.8</text><!--MD5=[22462cf34ed17cbc099681a070388b52]
@startuml
    set namespaceSeparator none
    hide empty fields
    hide empty methods

    class "<size:14>FloorTile\n<size:10>nz.ac.vuw.ecs.swen225.gp22.domain" as nz.ac.vuw.ecs.swen225.gp22.domain.FloorTile [[FloorTile.html]] {
        #FloorTile(Point)
    }

    class "<size:14>Tile\n<size:10>nz.ac.vuw.ecs.swen225.gp22.domain" as nz.ac.vuw.ecs.swen225.gp22.domain.Tile [[Tile.html]]

    nz.ac.vuw.ecs.swen225.gp22.domain.Tile <|- - nz.ac.vuw.ecs.swen225.gp22.domain.FloorTile

    center footer UMLDoclet 2.0.19, PlantUML 1.2022.8
@enduml

PlantUML version 1.2022.8(Sun Sep 25 22:00:33 NZDT 2022)
(APACHE source distribution)
Java Runtime: OpenJDK Runtime Environment
JVM: OpenJDK 64-Bit Server VM
Default Encoding: Cp1252
Language: en
Country: NZ
--></g></svg>