<?xml version="1.0" encoding="UTF-8" standalone="no"?><svg xmlns="http://www.w3.org/2000/svg" xmlns:xlink="http://www.w3.org/1999/xlink" contentStyleType="text/css" height="330px" preserveAspectRatio="none" style="width:267px;height:330px;background:#FFFFFF;" version="1.1" viewBox="0 0 267 330" width="267px" zoomAndPan="magnify"><defs/><g><!--MD5=[5e3ac1795a24af369641b2be5d17fba4]
class nz.ac.vuw.ecs.swen225.gp22.domain.InfoTile--><a href="InfoTile.html" target="_top" title="InfoTile.html" xlink:actuate="onRequest" xlink:href="InfoTile.html" xlink:show="new" xlink:title="InfoTile.html" xlink:type="simple"><g id="elem_nz.ac.vuw.ecs.swen225.gp22.domain.InfoTile"><rect codeLine="5" fill="#F1F1F1" height="197.0625" id="nz.ac.vuw.ecs.swen225.gp22.domain.InfoTile" rx="2.5" ry="2.5" style="stroke:#181818;stroke-width:0.5;" width="251" x="9" y="107"/><ellipse cx="43.35" cy="127.0938" fill="#ADD1B2" rx="11" ry="11" style="stroke:#181818;stroke-width:1.0;"/><path d="M46.1156,122.9688 Q46.2719,122.75 46.4594,122.6406 Q46.6469,122.5313 46.8656,122.5313 Q47.2406,122.5313 47.475,122.7969 Q47.7094,123.0469 47.7094,123.6563 L47.7094,125.1094 Q47.7094,125.7188 47.475,125.9844 Q47.2406,126.25 46.8656,126.25 Q46.5219,126.25 46.3188,126.0469 Q46.1156,125.8594 46.0063,125.3438 Q45.9594,124.9844 45.7719,124.7969 Q45.4438,124.4219 44.8344,124.2031 Q44.225,123.9844 43.6,123.9844 Q42.8344,123.9844 42.1938,124.3125 Q41.5688,124.6406 41.0688,125.3906 Q40.5844,126.1406 40.5844,127.1719 L40.5844,128.2656 Q40.5844,129.5 41.475,130.3281 Q42.3656,131.1406 43.9594,131.1406 Q44.8969,131.1406 45.5531,130.8906 Q45.9438,130.7344 46.3656,130.2969 Q46.6313,130.0313 46.7719,129.9531 Q46.9281,129.875 47.1313,129.875 Q47.4594,129.875 47.7094,130.1406 Q47.975,130.3906 47.975,130.7344 Q47.975,131.0781 47.6313,131.4844 Q47.1313,132.0625 46.3344,132.3906 Q45.2563,132.8438 43.9594,132.8438 Q42.4438,132.8438 41.2406,132.2188 Q40.2563,131.7188 39.5688,130.6563 Q38.8813,129.5781 38.8813,128.2969 L38.8813,127.1406 Q38.8813,125.8125 39.4906,124.6719 Q40.1156,123.5156 41.2094,122.9063 Q42.3031,122.2813 43.5375,122.2813 Q44.2719,122.2813 44.9125,122.4531 Q45.5688,122.6094 46.1156,122.9688 Z " fill="#000000"/><text fill="#000000" font-family="sans-serif" font-size="14" lengthAdjust="spacing" textLength="46" x="126.65" y="126.5332">InfoTile</text><text fill="#000000" font-family="sans-serif" font-size="10" lengthAdjust="spacing" textLength="176" x="61.65" y="139.9902">nz.ac.vuw.ecs.swen225.gp22.domain</text><line style="stroke:#181818;stroke-width:0.5;" x1="10" x2="259" y1="147.1875" y2="147.1875"/><rect fill="none" height="6" style="stroke:#C82930;stroke-width:1.0;" width="6" x="17" y="158.4922"/><text fill="#000000" font-family="sans-serif" font-size="14" lengthAdjust="spacing" textLength="95" x="29" y="165.7207">infoText: String</text><ellipse cx="20" cy="179.1016" fill="none" rx="3" ry="3" style="stroke:#038048;stroke-width:1.0;"/><text fill="#000000" font-family="sans-serif" font-size="14" lengthAdjust="spacing" textLength="144" x="29" y="183.3301">soundEffect: Runnable</text><line style="stroke:#181818;stroke-width:0.5;" x1="10" x2="259" y1="190.4063" y2="190.4063"/><polygon fill="#FFFF44" points="20,199.7109,24,203.7109,20,207.7109,16,203.7109" style="stroke:#B38D22;stroke-width:1.0;"/><text fill="#000000" font-family="sans-serif" font-size="14" lengthAdjust="spacing" textLength="88" x="29" y="208.9395">InfoTile(Point)</text><ellipse cx="20" cy="222.3203" fill="#84BE84" rx="3" ry="3" style="stroke:#038048;stroke-width:1.0;"/><text fill="#000000" font-family="sans-serif" font-size="14" lengthAdjust="spacing" textLength="127" x="29" y="226.5488">setText(String): void</text><ellipse cx="20" cy="239.9297" fill="#84BE84" rx="3" ry="3" style="stroke:#038048;stroke-width:1.0;"/><text fill="#000000" font-family="sans-serif" font-size="14" lengthAdjust="spacing" textLength="102" x="29" y="244.1582">getText(): String</text><ellipse cx="20" cy="257.5391" fill="#84BE84" rx="3" ry="3" style="stroke:#038048;stroke-width:1.0;"/><text fill="#000000" font-family="sans-serif" font-size="14" lengthAdjust="spacing" textLength="201" x="29" y="261.7676">setSoundEffect(Runnable): void</text><ellipse cx="20" cy="275.1484" fill="#84BE84" rx="3" ry="3" style="stroke:#038048;stroke-width:1.0;"/><text fill="#000000" font-family="sans-serif" font-size="14" lengthAdjust="spacing" textLength="225" x="29" y="279.377">doAction(Model, Player, Point): void</text><ellipse cx="20" cy="292.7578" fill="#84BE84" rx="3" ry="3" style="stroke:#038048;stroke-width:1.0;"/><text fill="#000000" font-family="sans-serif" font-size="14" lengthAdjust="spacing" textLength="91" x="29" y="296.9863">getDepth(): int</text></g></a><!--MD5=[186e21ba2cd9930336d13f364b5bb404]
class nz.ac.vuw.ecs.swen225.gp22.domain.Tile--><a href="Tile.html" target="_top" title="Tile.html" xlink:actuate="onRequest" xlink:href="Tile.html" xlink:show="new" xlink:title="Tile.html" xlink:type="simple"><g id="elem_nz.ac.vuw.ecs.swen225.gp22.domain.Tile"><rect codeLine="16" fill="#F1F1F1" height="40.1875" id="nz.ac.vuw.ecs.swen225.gp22.domain.Tile" rx="2.5" ry="2.5" style="stroke:#181818;stroke-width:0.5;" width="208" x="30.5" y="7"/><ellipse cx="45.5" cy="27.0938" fill="#ADD1B2" rx="11" ry="11" style="stroke:#181818;stroke-width:1.0;"/><path d="M48.2656,22.9688 Q48.4219,22.75 48.6094,22.6406 Q48.7969,22.5313 49.0156,22.5313 Q49.3906,22.5313 49.625,22.7969 Q49.8594,23.0469 49.8594,23.6563 L49.8594,25.1094 Q49.8594,25.7188 49.625,25.9844 Q49.3906,26.25 49.0156,26.25 Q48.6719,26.25 48.4688,26.0469 Q48.2656,25.8594 48.1563,25.3438 Q48.1094,24.9844 47.9219,24.7969 Q47.5938,24.4219 46.9844,24.2031 Q46.375,23.9844 45.75,23.9844 Q44.9844,23.9844 44.3438,24.3125 Q43.7188,24.6406 43.2188,25.3906 Q42.7344,26.1406 42.7344,27.1719 L42.7344,28.2656 Q42.7344,29.5 43.625,30.3281 Q44.5156,31.1406 46.1094,31.1406 Q47.0469,31.1406 47.7031,30.8906 Q48.0938,30.7344 48.5156,30.2969 Q48.7813,30.0313 48.9219,29.9531 Q49.0781,29.875 49.2813,29.875 Q49.6094,29.875 49.8594,30.1406 Q50.125,30.3906 50.125,30.7344 Q50.125,31.0781 49.7813,31.4844 Q49.2813,32.0625 48.4844,32.3906 Q47.4063,32.8438 46.1094,32.8438 Q44.5938,32.8438 43.3906,32.2188 Q42.4063,31.7188 41.7188,30.6563 Q41.0313,29.5781 41.0313,28.2969 L41.0313,27.1406 Q41.0313,25.8125 41.6406,24.6719 Q42.2656,23.5156 43.3594,22.9063 Q44.4531,22.2813 45.6875,22.2813 Q46.4219,22.2813 47.0625,22.4531 Q47.7188,22.6094 48.2656,22.9688 Z " fill="#000000"/><text fill="#000000" font-family="sans-serif" font-size="14" lengthAdjust="spacing" textLength="23" x="136" y="26.5332">Tile</text><text fill="#000000" font-family="sans-serif" font-size="10" lengthAdjust="spacing" textLength="176" x="59.5" y="39.9902">nz.ac.vuw.ecs.swen225.gp22.domain</text></g></a><!--MD5=[580869c105d6fb5842cffd20c1c10007]
reverse link nz.ac.vuw.ecs.swen225.gp22.domain.Tile to nz.ac.vuw.ecs.swen225.gp22.domain.InfoTile--><g id="link_nz.ac.vuw.ecs.swen225.gp22.domain.Tile_nz.ac.vuw.ecs.swen225.gp22.domain.InfoTile"><path codeLine="18" d="M134.5,67.55 C134.5,79.4 134.5,92.96 134.5,106.83 " fill="none" id="nz.ac.vuw.ecs.swen225.gp22.domain.Tile-backto-nz.ac.vuw.ecs.swen225.gp22.domain.InfoTile" style="stroke:#181818;stroke-width:1.0;"/><polygon fill="none" points="127.5,67.22,134.5,47.22,141.5,67.22,127.5,67.22" style="stroke:#181818;stroke-width:1.0;"/></g><rect fill="none" height="12.5781" style="stroke:none;stroke-width:1.0;" width="184" x="34.5" y="310.0625"/><text fill="#888888" font-family="sans-serif" font-size="10" lengthAdjust="spacing" textLength="184" x="34.5" y="320.4434">UMLDoclet 2.0.19, PlantUML 1.2022.8</text><!--MD5=[31c4b7c99a3f6b645989dfea760e4ff5]
@startuml
    set namespaceSeparator none
    hide empty fields
    hide empty methods

    class "<size:14>InfoTile\n<size:10>nz.ac.vuw.ecs.swen225.gp22.domain" as nz.ac.vuw.ecs.swen225.gp22.domain.InfoTile [[InfoTile.html]] {
        -infoText: String
        +soundEffect: Runnable
        #InfoTile(Point)
        +setText(String): void
        +getText(): String
        +setSoundEffect(Runnable): void
        +doAction(Model, Player, Point): void
        +getDepth(): int
    }

    class "<size:14>Tile\n<size:10>nz.ac.vuw.ecs.swen225.gp22.domain" as nz.ac.vuw.ecs.swen225.gp22.domain.Tile [[Tile.html]]

    nz.ac.vuw.ecs.swen225.gp22.domain.Tile <|- - nz.ac.vuw.ecs.swen225.gp22.domain.InfoTile

    center footer UMLDoclet 2.0.19, PlantUML 1.2022.8
@enduml

PlantUML version 1.2022.8(Sun Sep 25 22:00:33 NZDT 2022)
(APACHE source distribution)
Java Runtime: OpenJDK Runtime Environment
JVM: OpenJDK 64-Bit Server VM
Default Encoding: Cp1252
Language: en
Country: NZ
--></g></svg>