<?xml version="1.0" encoding="UTF-8" standalone="no"?><svg xmlns="http://www.w3.org/2000/svg" xmlns:xlink="http://www.w3.org/1999/xlink" contentStyleType="text/css" height="418px" preserveAspectRatio="none" style="width:319px;height:418px;background:#FFFFFF;" version="1.1" viewBox="0 0 319 418" width="319px" zoomAndPan="magnify"><defs/><g><!--MD5=[e90505139f0e9dba86bb59038f897b52]
class nz.ac.vuw.ecs.swen225.gp22.domain.Player--><a href="Player.html" target="_top" title="Player.html" xlink:actuate="onRequest" xlink:href="Player.html" xlink:show="new" xlink:title="Player.html" xlink:type="simple"><g id="elem_nz.ac.vuw.ecs.swen225.gp22.domain.Player"><rect codeLine="5" fill="#F1F1F1" height="285.1094" id="nz.ac.vuw.ecs.swen225.gp22.domain.Player" rx="2.5" ry="2.5" style="stroke:#181818;stroke-width:0.5;" width="303" x="9" y="107"/><ellipse cx="68.25" cy="127.0938" fill="#ADD1B2" rx="11" ry="11" style="stroke:#181818;stroke-width:1.0;"/><path d="M71.0156,122.9688 Q71.1719,122.75 71.3594,122.6406 Q71.5469,122.5313 71.7656,122.5313 Q72.1406,122.5313 72.375,122.7969 Q72.6094,123.0469 72.6094,123.6563 L72.6094,125.1094 Q72.6094,125.7188 72.375,125.9844 Q72.1406,126.25 71.7656,126.25 Q71.4219,126.25 71.2188,126.0469 Q71.0156,125.8594 70.9063,125.3438 Q70.8594,124.9844 70.6719,124.7969 Q70.3438,124.4219 69.7344,124.2031 Q69.125,123.9844 68.5,123.9844 Q67.7344,123.9844 67.0938,124.3125 Q66.4688,124.6406 65.9688,125.3906 Q65.4844,126.1406 65.4844,127.1719 L65.4844,128.2656 Q65.4844,129.5 66.375,130.3281 Q67.2656,131.1406 68.8594,131.1406 Q69.7969,131.1406 70.4531,130.8906 Q70.8438,130.7344 71.2656,130.2969 Q71.5313,130.0313 71.6719,129.9531 Q71.8281,129.875 72.0313,129.875 Q72.3594,129.875 72.6094,130.1406 Q72.875,130.3906 72.875,130.7344 Q72.875,131.0781 72.5313,131.4844 Q72.0313,132.0625 71.2344,132.3906 Q70.1563,132.8438 68.8594,132.8438 Q67.3438,132.8438 66.1406,132.2188 Q65.1563,131.7188 64.4688,130.6563 Q63.7813,129.5781 63.7813,128.2969 L63.7813,127.1406 Q63.7813,125.8125 64.3906,124.6719 Q65.0156,123.5156 66.1094,122.9063 Q67.2031,122.2813 68.4375,122.2813 Q69.1719,122.2813 69.8125,122.4531 Q70.4688,122.6094 71.0156,122.9688 Z " fill="#000000"/><text fill="#000000" font-family="sans-serif" font-size="14" lengthAdjust="spacing" textLength="40" x="156.75" y="126.5332">Player</text><text fill="#000000" font-family="sans-serif" font-size="10" lengthAdjust="spacing" textLength="176" x="88.75" y="139.9902">nz.ac.vuw.ecs.swen225.gp22.domain</text><line style="stroke:#181818;stroke-width:0.5;" x1="10" x2="311" y1="147.1875" y2="147.1875"/><rect fill="none" height="6" style="stroke:#C82930;stroke-width:1.0;" width="6" x="17" y="158.4922"/><text fill="#000000" font-family="sans-serif" font-size="14" lengthAdjust="spacing" textLength="135" x="29" y="165.7207">treasureCollected: int</text><polygon fill="none" points="20,175.1016,16,181.1016,24,181.1016" style="stroke:#1963A0;stroke-width:1.0;"/><text fill="#000000" font-family="sans-serif" font-size="14" lengthAdjust="spacing" textLength="99" x="29" y="183.3301">keys: List&lt;Key&gt;</text><line style="stroke:#181818;stroke-width:0.5;" x1="10" x2="311" y1="190.4063" y2="190.4063"/><polygon fill="#FFFF44" points="20,199.7109,24,203.7109,20,207.7109,16,203.7109" style="stroke:#B38D22;stroke-width:1.0;"/><text fill="#000000" font-family="sans-serif" font-size="14" lengthAdjust="spacing" textLength="127" x="29" y="208.9395">Player(Point, String)</text><polygon fill="#FFFF44" points="20,217.3203,24,221.3203,20,225.3203,16,221.3203" style="stroke:#B38D22;stroke-width:1.0;"/><text fill="#000000" font-family="sans-serif" font-size="14" lengthAdjust="spacing" textLength="116" x="29" y="226.5488">addKey(Key): void</text><polygon fill="#FFFF44" points="20,234.9297,24,238.9297,20,242.9297,16,238.9297" style="stroke:#B38D22;stroke-width:1.0;"/><text fill="#000000" font-family="sans-serif" font-size="14" lengthAdjust="spacing" textLength="126" x="29" y="244.1582">addTreasure(): void</text><ellipse cx="20" cy="257.5391" fill="#84BE84" rx="3" ry="3" style="stroke:#038048;stroke-width:1.0;"/><text fill="#000000" font-family="sans-serif" font-size="14" lengthAdjust="spacing" textLength="170" x="29" y="261.7676">getTreasureCollected(): int</text><ellipse cx="20" cy="275.1484" fill="#84BE84" rx="3" ry="3" style="stroke:#038048;stroke-width:1.0;"/><text fill="#000000" font-family="sans-serif" font-size="14" lengthAdjust="spacing" textLength="131" x="29" y="279.377">getKeys(): List&lt;Key&gt;</text><ellipse cx="20" cy="292.7578" fill="#84BE84" rx="3" ry="3" style="stroke:#038048;stroke-width:1.0;"/><text fill="#000000" font-family="sans-serif" font-size="14" lengthAdjust="spacing" textLength="139" x="29" y="296.9863">removeKey(Key): void</text><ellipse cx="20" cy="310.3672" fill="#84BE84" rx="3" ry="3" style="stroke:#038048;stroke-width:1.0;"/><text fill="#000000" font-family="sans-serif" font-size="14" lengthAdjust="spacing" textLength="156" x="29" y="314.5957">setKeys(List&lt;Key&gt;): void</text><ellipse cx="20" cy="327.9766" fill="#84BE84" rx="3" ry="3" style="stroke:#038048;stroke-width:1.0;"/><text fill="#000000" font-family="sans-serif" font-size="14" lengthAdjust="spacing" textLength="195" x="29" y="332.2051">setTreasureCollected(int): void</text><ellipse cx="20" cy="345.5859" fill="#84BE84" rx="3" ry="3" style="stroke:#038048;stroke-width:1.0;"/><text fill="#000000" font-family="sans-serif" font-size="14" lengthAdjust="spacing" textLength="109" x="29" y="349.8145">ping(Model): void</text><ellipse cx="20" cy="363.1953" fill="#84BE84" rx="3" ry="3" style="stroke:#038048;stroke-width:1.0;"/><text fill="#000000" font-family="sans-serif" font-size="14" lengthAdjust="spacing" textLength="277" x="29" y="367.4238">checkRobotMove(Model, Robot, Point): void</text><ellipse cx="20" cy="380.8047" fill="#84BE84" rx="3" ry="3" style="stroke:#038048;stroke-width:1.0;"/><text fill="#000000" font-family="sans-serif" font-size="14" lengthAdjust="spacing" textLength="148" x="29" y="385.0332">getSpriteName(): String</text></g></a><!--MD5=[443aa5e4b59adc7bab0407a1de5e28ba]
class nz.ac.vuw.ecs.swen225.gp22.domain.Actor--><a href="Actor.html" target="_top" title="Actor.html" xlink:actuate="onRequest" xlink:href="Actor.html" xlink:show="new" xlink:title="Actor.html" xlink:type="simple"><g id="elem_nz.ac.vuw.ecs.swen225.gp22.domain.Actor"><rect codeLine="21" fill="#F1F1F1" height="40.1875" id="nz.ac.vuw.ecs.swen225.gp22.domain.Actor" rx="2.5" ry="2.5" style="stroke:#181818;stroke-width:0.5;" width="208" x="56.5" y="7"/><ellipse cx="71.5" cy="27.0938" fill="#ADD1B2" rx="11" ry="11" style="stroke:#181818;stroke-width:1.0;"/><path d="M74.2656,22.9688 Q74.4219,22.75 74.6094,22.6406 Q74.7969,22.5313 75.0156,22.5313 Q75.3906,22.5313 75.625,22.7969 Q75.8594,23.0469 75.8594,23.6563 L75.8594,25.1094 Q75.8594,25.7188 75.625,25.9844 Q75.3906,26.25 75.0156,26.25 Q74.6719,26.25 74.4688,26.0469 Q74.2656,25.8594 74.1563,25.3438 Q74.1094,24.9844 73.9219,24.7969 Q73.5938,24.4219 72.9844,24.2031 Q72.375,23.9844 71.75,23.9844 Q70.9844,23.9844 70.3438,24.3125 Q69.7188,24.6406 69.2188,25.3906 Q68.7344,26.1406 68.7344,27.1719 L68.7344,28.2656 Q68.7344,29.5 69.625,30.3281 Q70.5156,31.1406 72.1094,31.1406 Q73.0469,31.1406 73.7031,30.8906 Q74.0938,30.7344 74.5156,30.2969 Q74.7813,30.0313 74.9219,29.9531 Q75.0781,29.875 75.2813,29.875 Q75.6094,29.875 75.8594,30.1406 Q76.125,30.3906 76.125,30.7344 Q76.125,31.0781 75.7813,31.4844 Q75.2813,32.0625 74.4844,32.3906 Q73.4063,32.8438 72.1094,32.8438 Q70.5938,32.8438 69.3906,32.2188 Q68.4063,31.7188 67.7188,30.6563 Q67.0313,29.5781 67.0313,28.2969 L67.0313,27.1406 Q67.0313,25.8125 67.6406,24.6719 Q68.2656,23.5156 69.3594,22.9063 Q70.4531,22.2813 71.6875,22.2813 Q72.4219,22.2813 73.0625,22.4531 Q73.7188,22.6094 74.2656,22.9688 Z " fill="#000000"/><text fill="#000000" font-family="sans-serif" font-size="14" lengthAdjust="spacing" textLength="33" x="157" y="26.5332">Actor</text><text fill="#000000" font-family="sans-serif" font-size="10" lengthAdjust="spacing" textLength="176" x="85.5" y="39.9902">nz.ac.vuw.ecs.swen225.gp22.domain</text></g></a><!--MD5=[49f6ef096540678bc156ad460f69868c]
reverse link nz.ac.vuw.ecs.swen225.gp22.domain.Actor to nz.ac.vuw.ecs.swen225.gp22.domain.Player--><g id="link_nz.ac.vuw.ecs.swen225.gp22.domain.Actor_nz.ac.vuw.ecs.swen225.gp22.domain.Player"><path codeLine="23" d="M160.5,67.59 C160.5,79.21 160.5,92.64 160.5,106.83 " fill="none" id="nz.ac.vuw.ecs.swen225.gp22.domain.Actor-backto-nz.ac.vuw.ecs.swen225.gp22.domain.Player" style="stroke:#181818;stroke-width:1.0;"/><polygon fill="none" points="153.5,67.18,160.5,47.18,167.5,67.18,153.5,67.18" style="stroke:#181818;stroke-width:1.0;"/></g><rect fill="none" height="12.5781" style="stroke:none;stroke-width:1.0;" width="184" x="60.5" y="398.1094"/><text fill="#888888" font-family="sans-serif" font-size="10" lengthAdjust="spacing" textLength="184" x="60.5" y="408.4902">UMLDoclet 2.0.19, PlantUML 1.2022.8</text><!--MD5=[bb8108ec3007c674cc3f6cb292274c9d]
@startuml
    set namespaceSeparator none
    hide empty fields
    hide empty methods

    class "<size:14>Player\n<size:10>nz.ac.vuw.ecs.swen225.gp22.domain" as nz.ac.vuw.ecs.swen225.gp22.domain.Player [[Player.html]] {
        -treasureCollected: int
        ~keys: List<Key>
        #Player(Point, String)
        #addKey(Key): void
        #addTreasure(): void
        +getTreasureCollected(): int
        +getKeys(): List<Key>
        +removeKey(Key): void
        +setKeys(List<Key>): void
        +setTreasureCollected(int): void
        +ping(Model): void
        +checkRobotMove(Model, Robot, Point): void
        +getSpriteName(): String
    }

    class "<size:14>Actor\n<size:10>nz.ac.vuw.ecs.swen225.gp22.domain" as nz.ac.vuw.ecs.swen225.gp22.domain.Actor [[Actor.html]]

    nz.ac.vuw.ecs.swen225.gp22.domain.Actor <|- - nz.ac.vuw.ecs.swen225.gp22.domain.Player

    center footer UMLDoclet 2.0.19, PlantUML 1.2022.8
@enduml

PlantUML version 1.2022.8(Sun Sep 25 22:00:33 NZDT 2022)
(APACHE source distribution)
Java Runtime: OpenJDK Runtime Environment
JVM: OpenJDK 64-Bit Server VM
Default Encoding: Cp1252
Language: en
Country: NZ
--></g></svg>