<?xml version="1.0" encoding="UTF-8" standalone="no"?><svg xmlns="http://www.w3.org/2000/svg" xmlns:xlink="http://www.w3.org/1999/xlink" contentStyleType="text/css" height="356px" preserveAspectRatio="none" style="width:222px;height:356px;background:#FFFFFF;" version="1.1" viewBox="0 0 222 356" width="222px" zoomAndPan="magnify"><defs/><g><!--MD5=[186e21ba2cd9930336d13f364b5bb404]
class nz.ac.vuw.ecs.swen225.gp22.domain.Tile--><a href="Tile.html" target="_top" title="Tile.html" xlink:actuate="onRequest" xlink:href="Tile.html" xlink:show="new" xlink:title="Tile.html" xlink:type="simple"><g id="elem_nz.ac.vuw.ecs.swen225.gp22.domain.Tile"><rect codeLine="5" fill="#F1F1F1" height="161.8438" id="nz.ac.vuw.ecs.swen225.gp22.domain.Tile" rx="2.5" ry="2.5" style="stroke:#181818;stroke-width:0.5;" width="208" x="7" y="168"/><ellipse cx="22" cy="188.0938" fill="#ADD1B2" rx="11" ry="11" style="stroke:#181818;stroke-width:1.0;"/><path d="M24.7656,183.9688 Q24.9219,183.75 25.1094,183.6406 Q25.2969,183.5313 25.5156,183.5313 Q25.8906,183.5313 26.125,183.7969 Q26.3594,184.0469 26.3594,184.6563 L26.3594,186.1094 Q26.3594,186.7188 26.125,186.9844 Q25.8906,187.25 25.5156,187.25 Q25.1719,187.25 24.9688,187.0469 Q24.7656,186.8594 24.6563,186.3438 Q24.6094,185.9844 24.4219,185.7969 Q24.0938,185.4219 23.4844,185.2031 Q22.875,184.9844 22.25,184.9844 Q21.4844,184.9844 20.8438,185.3125 Q20.2188,185.6406 19.7188,186.3906 Q19.2344,187.1406 19.2344,188.1719 L19.2344,189.2656 Q19.2344,190.5 20.125,191.3281 Q21.0156,192.1406 22.6094,192.1406 Q23.5469,192.1406 24.2031,191.8906 Q24.5938,191.7344 25.0156,191.2969 Q25.2813,191.0313 25.4219,190.9531 Q25.5781,190.875 25.7813,190.875 Q26.1094,190.875 26.3594,191.1406 Q26.625,191.3906 26.625,191.7344 Q26.625,192.0781 26.2813,192.4844 Q25.7813,193.0625 24.9844,193.3906 Q23.9063,193.8438 22.6094,193.8438 Q21.0938,193.8438 19.8906,193.2188 Q18.9063,192.7188 18.2188,191.6563 Q17.5313,190.5781 17.5313,189.2969 L17.5313,188.1406 Q17.5313,186.8125 18.1406,185.6719 Q18.7656,184.5156 19.8594,183.9063 Q20.9531,183.2813 22.1875,183.2813 Q22.9219,183.2813 23.5625,183.4531 Q24.2188,183.6094 24.7656,183.9688 Z " fill="#000000"/><text fill="#000000" font-family="sans-serif" font-size="14" lengthAdjust="spacing" textLength="23" x="112.5" y="187.5332">Tile</text><text fill="#000000" font-family="sans-serif" font-size="10" lengthAdjust="spacing" textLength="176" x="36" y="200.9902">nz.ac.vuw.ecs.swen225.gp22.domain</text><line style="stroke:#181818;stroke-width:0.5;" x1="8" x2="214" y1="208.1875" y2="208.1875"/><rect fill="none" height="6" style="stroke:#C82930;stroke-width:1.0;" width="6" x="15" y="219.4922"/><text fill="#000000" font-family="sans-serif" font-size="14" lengthAdjust="spacing" textLength="116" x="27" y="226.7207">spriteName: String</text><rect fill="none" height="6" style="stroke:#C82930;stroke-width:1.0;" width="6" x="15" y="237.1016"/><text fill="#000000" font-family="sans-serif" font-size="14" lengthAdjust="spacing" textLength="71" x="27" y="244.3301">point: Point</text><line style="stroke:#181818;stroke-width:0.5;" x1="8" x2="214" y1="251.4063" y2="251.4063"/><ellipse cx="18" cy="265.7109" fill="#84BE84" rx="3" ry="3" style="stroke:#038048;stroke-width:1.0;"/><text fill="#000000" font-family="sans-serif" font-size="14" lengthAdjust="spacing" textLength="110" x="27" y="269.9395">Tile(String, Point)</text><ellipse cx="18" cy="283.3203" fill="#84BE84" rx="3" ry="3" style="stroke:#038048;stroke-width:1.0;"/><text fill="#000000" font-family="sans-serif" font-size="14" lengthAdjust="spacing" textLength="148" x="27" y="287.5488">getSpriteName(): String</text><ellipse cx="18" cy="300.9297" fill="#84BE84" rx="3" ry="3" style="stroke:#038048;stroke-width:1.0;"/><text fill="#000000" font-family="sans-serif" font-size="14" lengthAdjust="spacing" textLength="102" x="27" y="305.1582">getPoint(): Point</text><ellipse cx="18" cy="318.5391" fill="#84BE84" rx="3" ry="3" style="stroke:#038048;stroke-width:1.0;"/><text fill="#000000" font-family="sans-serif" font-size="14" lengthAdjust="spacing" textLength="91" x="27" y="322.7676">getDepth(): int</text></g></a><!--MD5=[c1afd2d57aec8c90a42dc3be3bff6847]
class nz.ac.vuw.ecs.swen225.gp22.domain.Entity--><a href="Entity.html" target="_top" title="Entity.html" xlink:actuate="onRequest" xlink:href="Entity.html" xlink:show="new" xlink:title="Entity.html" xlink:type="simple"><g id="elem_nz.ac.vuw.ecs.swen225.gp22.domain.Entity"><rect codeLine="14" fill="#F1F1F1" height="101.0156" id="nz.ac.vuw.ecs.swen225.gp22.domain.Entity" rx="2.5" ry="2.5" style="stroke:#181818;stroke-width:0.5;" width="208" x="7" y="7"/><ellipse cx="22" cy="27.0938" fill="#B4A7E5" rx="11" ry="11" style="stroke:#181818;stroke-width:1.0;"/><path d="M22.9531,23.7344 L22.9531,30.3906 L24.6719,30.3906 Q25.2813,30.3906 25.5469,30.625 Q25.8125,30.8594 25.8125,31.25 Q25.8125,31.625 25.5469,31.8594 Q25.2813,32.0938 24.6719,32.0938 L19.5313,32.0938 Q18.9219,32.0938 18.6563,31.8594 Q18.3906,31.625 18.3906,31.2344 Q18.3906,30.8594 18.6563,30.625 Q18.9219,30.3906 19.5313,30.3906 L21.25,30.3906 L21.25,23.7344 L19.5313,23.7344 Q18.9219,23.7344 18.6563,23.5 Q18.3906,23.2656 18.3906,22.875 Q18.3906,22.5 18.6563,22.2656 Q18.9219,22.0313 19.5313,22.0313 L24.6719,22.0313 Q25.2813,22.0313 25.5469,22.2656 Q25.8125,22.5 25.8125,22.875 Q25.8125,23.2656 25.5469,23.5 Q25.2813,23.7344 24.6719,23.7344 L22.9531,23.7344 Z " fill="#000000"/><text fill="#000000" font-family="sans-serif" font-size="14" font-style="italic" lengthAdjust="spacing" textLength="35" x="106.5" y="26.5332">Entity</text><text fill="#000000" font-family="sans-serif" font-size="10" font-style="italic" lengthAdjust="spacing" textLength="176" x="36" y="39.9902">nz.ac.vuw.ecs.swen225.gp22.domain</text><line style="stroke:#181818;stroke-width:0.5;" x1="8" x2="214" y1="47.1875" y2="47.1875"/><ellipse cx="18" cy="61.4922" fill="#84BE84" rx="3" ry="3" style="stroke:#038048;stroke-width:1.0;"/><text fill="#000000" font-family="sans-serif" font-size="14" font-style="italic" lengthAdjust="spacing" textLength="149" x="27" y="65.7207">getSpriteName(): String</text><ellipse cx="18" cy="79.1016" fill="#84BE84" rx="3" ry="3" style="stroke:#038048;stroke-width:1.0;"/><text fill="#000000" font-family="sans-serif" font-size="14" font-style="italic" lengthAdjust="spacing" textLength="102" x="27" y="83.3301">getPoint(): Point</text><ellipse cx="18" cy="96.7109" fill="#84BE84" rx="3" ry="3" style="stroke:#038048;stroke-width:1.0;"/><text fill="#000000" font-family="sans-serif" font-size="14" font-style="italic" lengthAdjust="spacing" textLength="91" x="27" y="100.9395">getDepth(): int</text></g></a><!--MD5=[defda57bfcea78666c21177d16ded061]
reverse link nz.ac.vuw.ecs.swen225.gp22.domain.Entity to nz.ac.vuw.ecs.swen225.gp22.domain.Tile--><g id="link_nz.ac.vuw.ecs.swen225.gp22.domain.Entity_nz.ac.vuw.ecs.swen225.gp22.domain.Tile"><path codeLine="20" d="M111,128.39 C111,141.21 111,154.67 111,167.76 " fill="none" id="nz.ac.vuw.ecs.swen225.gp22.domain.Entity-backto-nz.ac.vuw.ecs.swen225.gp22.domain.Tile" style="stroke:#181818;stroke-width:1.0;stroke-dasharray:7.0,7.0;"/><polygon fill="none" points="104,128.29,111,108.29,118,128.29,104,128.29" style="stroke:#181818;stroke-width:1.0;"/></g><rect fill="none" height="12.5781" style="stroke:none;stroke-width:1.0;" width="184" x="12" y="335.8438"/><text fill="#888888" font-family="sans-serif" font-size="10" lengthAdjust="spacing" textLength="184" x="12" y="346.2246">UMLDoclet 2.0.19, PlantUML 1.2022.8</text><!--MD5=[f2771e681cb9489561483e6aee10c457]
@startuml
    set namespaceSeparator none
    hide empty fields
    hide empty methods

    class "<size:14>Tile\n<size:10>nz.ac.vuw.ecs.swen225.gp22.domain" as nz.ac.vuw.ecs.swen225.gp22.domain.Tile [[Tile.html]] {
        -spriteName: String
        -point: Point
        +Tile(String, Point)
        +getSpriteName(): String
        +getPoint(): Point
        +getDepth(): int
    }

    interface "<size:14>Entity\n<size:10>nz.ac.vuw.ecs.swen225.gp22.domain" as nz.ac.vuw.ecs.swen225.gp22.domain.Entity [[Entity.html]] {
        {abstract} +getSpriteName(): String
        {abstract} +getPoint(): Point
        {abstract} +getDepth(): int
    }

    nz.ac.vuw.ecs.swen225.gp22.domain.Entity <|.. nz.ac.vuw.ecs.swen225.gp22.domain.Tile

    center footer UMLDoclet 2.0.19, PlantUML 1.2022.8
@enduml

PlantUML version 1.2022.8(Sun Sep 25 22:00:33 NZDT 2022)
(APACHE source distribution)
Java Runtime: OpenJDK Runtime Environment
JVM: OpenJDK 64-Bit Server VM
Default Encoding: Cp1252
Language: en
Country: NZ
--></g></svg>