<?xml version="1.0" encoding="UTF-8" standalone="no"?><svg xmlns="http://www.w3.org/2000/svg" xmlns:xlink="http://www.w3.org/1999/xlink" contentStyleType="text/css" height="135px" preserveAspectRatio="none" style="width:276px;height:135px;background:#FFFFFF;" version="1.1" viewBox="0 0 276 135" width="276px" zoomAndPan="magnify"><defs/><g><!--MD5=[ab3e8da47f9e5e3e12f509d2f7e98950]
class nz.ac.vuw.ecs.swen225.gp22.renderer.Audio--><a href="Audio.html" target="_top" title="Audio.html" xlink:actuate="onRequest" xlink:href="Audio.html" xlink:show="new" xlink:title="Audio.html" xlink:type="simple"><g id="elem_nz.ac.vuw.ecs.swen225.gp22.renderer.Audio"><rect codeLine="5" fill="#F1F1F1" height="101.0156" id="nz.ac.vuw.ecs.swen225.gp22.renderer.Audio" rx="2.5" ry="2.5" style="stroke:#181818;stroke-width:0.5;" width="255" x="7" y="7"/><ellipse cx="40.9" cy="27.0938" fill="#A9DCDF" rx="11" ry="11" style="stroke:#181818;stroke-width:1.0;"/><path d="M43.0875,28.8594 L38.9469,28.8594 L38.525,29.8906 L38.9469,29.8906 Q39.5563,29.8906 39.8219,30.125 Q40.0875,30.3594 40.0875,30.75 Q40.0875,31.125 39.8219,31.3594 Q39.5563,31.5938 38.9469,31.5938 L36.65,31.5938 Q36.0406,31.5938 35.7906,31.3594 Q35.525,31.125 35.525,30.7344 Q35.525,30.3594 35.8063,30.125 Q36.0719,29.875 36.6969,29.8906 L39.3688,23.2344 L38.2594,23.2344 Q37.65,23.2344 37.3844,23 Q37.1188,22.7656 37.1188,22.375 Q37.1188,22 37.3844,21.7656 Q37.65,21.5313 38.2594,21.5313 L41.9313,21.5313 L45.3219,29.8906 Q45.9156,29.8906 46.1031,30.0313 Q46.4938,30.2969 46.4938,30.75 Q46.4938,31.125 46.2281,31.3594 Q45.9781,31.5938 45.3688,31.5938 L43.0719,31.5938 Q42.4625,31.5938 42.1969,31.3594 Q41.9313,31.125 41.9313,30.7344 Q41.9313,30.3594 42.1969,30.125 Q42.4625,29.8906 43.0719,29.8906 L43.4938,29.8906 L43.0875,28.8594 Z M42.3688,27.1563 L41.0094,23.7813 L39.6344,27.1563 L42.3688,27.1563 Z " fill="#000000"/><text fill="#000000" font-family="sans-serif" font-size="14" font-style="italic" lengthAdjust="spacing" textLength="36" x="131.6" y="26.5332">Audio</text><text fill="#000000" font-family="sans-serif" font-size="10" font-style="italic" lengthAdjust="spacing" textLength="181" x="59.1" y="39.9902">nz.ac.vuw.ecs.swen225.gp22.renderer</text><line style="stroke:#181818;stroke-width:0.5;" x1="8" x2="261" y1="47.1875" y2="47.1875"/><ellipse cx="18" cy="61.4922" fill="#84BE84" rx="3" ry="3" style="stroke:#038048;stroke-width:1.0;"/><text fill="#000000" font-family="sans-serif" font-size="14" lengthAdjust="spacing" text-decoration="underline" textLength="184" x="27" y="65.7207">playSoundEffect(String): void</text><ellipse cx="18" cy="79.1016" fill="#84BE84" rx="3" ry="3" style="stroke:#038048;stroke-width:1.0;"/><text fill="#000000" font-family="sans-serif" font-size="14" lengthAdjust="spacing" text-decoration="underline" textLength="229" x="27" y="83.3301">getSoundEffect(String): SoundEffect</text><ellipse cx="18" cy="96.7109" fill="#84BE84" rx="3" ry="3" style="stroke:#038048;stroke-width:1.0;"/><text fill="#000000" font-family="sans-serif" font-size="14" lengthAdjust="spacing" text-decoration="underline" textLength="217" x="27" y="100.9395">getSoundPlayer(String): Runnable</text></g></a><rect fill="none" height="12.5781" style="stroke:none;stroke-width:1.0;" width="184" x="42" y="115.0156"/><text fill="#888888" font-family="sans-serif" font-size="10" lengthAdjust="spacing" textLength="184" x="42" y="125.3965">UMLDoclet 2.0.19, PlantUML 1.2022.8</text><!--MD5=[f855819c6a2433c9aeeb21f1bb31d02e]
@startuml
    set namespaceSeparator none
    hide empty fields
    hide empty methods

    abstract class "<size:14>Audio\n<size:10>nz.ac.vuw.ecs.swen225.gp22.renderer" as nz.ac.vuw.ecs.swen225.gp22.renderer.Audio [[Audio.html]] {
        {static} +playSoundEffect(String): void
        {static} +getSoundEffect(String): SoundEffect
        {static} +getSoundPlayer(String): Runnable
    }

    center footer UMLDoclet 2.0.19, PlantUML 1.2022.8
@enduml

PlantUML version 1.2022.8(Sun Sep 25 22:00:33 NZDT 2022)
(APACHE source distribution)
Java Runtime: OpenJDK Runtime Environment
JVM: OpenJDK 64-Bit Server VM
Default Encoding: Cp1252
Language: en
Country: NZ
--></g></svg>