<?xml version="1.0" encoding="UTF-8" standalone="no"?><svg xmlns="http://www.w3.org/2000/svg" xmlns:xlink="http://www.w3.org/1999/xlink" contentStyleType="text/css" height="372px" preserveAspectRatio="none" style="width:239px;height:372px;background:#FFFFFF;" version="1.1" viewBox="0 0 239 372" width="239px" zoomAndPan="magnify"><defs/><g><!--MD5=[012be2219cacd14a91b44d0c07b86ade]
class nz.ac.vuw.ecs.swen225.gp22.renderer.Camera--><a href="Camera.html" target="_top" title="Camera.html" xlink:actuate="onRequest" xlink:href="Camera.html" xlink:show="new" xlink:title="Camera.html" xlink:type="simple"><g id="elem_nz.ac.vuw.ecs.swen225.gp22.renderer.Camera"><rect codeLine="5" fill="#F1F1F1" height="337.9375" id="nz.ac.vuw.ecs.swen225.gp22.renderer.Camera" rx="2.5" ry="2.5" style="stroke:#181818;stroke-width:0.5;" width="218" x="7" y="7"/><ellipse cx="25.15" cy="27.0938" fill="#ADD1B2" rx="11" ry="11" style="stroke:#181818;stroke-width:1.0;"/><path d="M27.9156,22.9688 Q28.0719,22.75 28.2594,22.6406 Q28.4469,22.5313 28.6656,22.5313 Q29.0406,22.5313 29.275,22.7969 Q29.5094,23.0469 29.5094,23.6563 L29.5094,25.1094 Q29.5094,25.7188 29.275,25.9844 Q29.0406,26.25 28.6656,26.25 Q28.3219,26.25 28.1188,26.0469 Q27.9156,25.8594 27.8063,25.3438 Q27.7594,24.9844 27.5719,24.7969 Q27.2438,24.4219 26.6344,24.2031 Q26.025,23.9844 25.4,23.9844 Q24.6344,23.9844 23.9938,24.3125 Q23.3688,24.6406 22.8688,25.3906 Q22.3844,26.1406 22.3844,27.1719 L22.3844,28.2656 Q22.3844,29.5 23.275,30.3281 Q24.1656,31.1406 25.7594,31.1406 Q26.6969,31.1406 27.3531,30.8906 Q27.7438,30.7344 28.1656,30.2969 Q28.4313,30.0313 28.5719,29.9531 Q28.7281,29.875 28.9313,29.875 Q29.2594,29.875 29.5094,30.1406 Q29.775,30.3906 29.775,30.7344 Q29.775,31.0781 29.4313,31.4844 Q28.9313,32.0625 28.1344,32.3906 Q27.0563,32.8438 25.7594,32.8438 Q24.2438,32.8438 23.0406,32.2188 Q22.0563,31.7188 21.3688,30.6563 Q20.6813,29.5781 20.6813,28.2969 L20.6813,27.1406 Q20.6813,25.8125 21.2906,24.6719 Q21.9156,23.5156 23.0094,22.9063 Q24.1031,22.2813 25.3375,22.2813 Q26.0719,22.2813 26.7125,22.4531 Q27.3688,22.6094 27.9156,22.9688 Z " fill="#000000"/><text fill="#000000" font-family="sans-serif" font-size="14" lengthAdjust="spacing" textLength="50" x="104.35" y="26.5332">Camera</text><text fill="#000000" font-family="sans-serif" font-size="10" lengthAdjust="spacing" textLength="179" x="39.85" y="39.9902">nz.ac.vuw.ecs.swen225.gp22.renderer</text><line style="stroke:#181818;stroke-width:0.5;" x1="8" x2="224" y1="47.1875" y2="47.1875"/><rect fill="none" height="6" style="stroke:#C82930;stroke-width:1.0;" width="6" x="15" y="58.4922"/><text fill="#000000" font-family="sans-serif" font-size="14" lengthAdjust="spacing" text-decoration="underline" textLength="85" x="27" y="65.7207">visionSize: int</text><rect fill="none" height="6" style="stroke:#C82930;stroke-width:1.0;" width="6" x="15" y="76.1016"/><text fill="#000000" font-family="sans-serif" font-size="14" lengthAdjust="spacing" text-decoration="underline" textLength="114" x="27" y="83.3301">visionDistance: int</text><rect fill="none" height="6" style="stroke:#C82930;stroke-width:1.0;" width="6" x="15" y="93.7109"/><text fill="#000000" font-family="sans-serif" font-size="14" lengthAdjust="spacing" text-decoration="underline" textLength="67" x="27" y="100.9395">tileSize: int</text><rect fill="none" height="6" style="stroke:#C82930;stroke-width:1.0;" width="6" x="15" y="111.3203"/><text fill="#000000" font-family="sans-serif" font-size="14" lengthAdjust="spacing" textLength="89" x="27" y="118.5488">position: Point</text><rect fill="none" height="6" style="stroke:#C82930;stroke-width:1.0;" width="6" x="15" y="128.9297"/><text fill="#000000" font-family="sans-serif" font-size="14" lengthAdjust="spacing" textLength="131" x="27" y="136.1582">animation: Animation</text><line style="stroke:#181818;stroke-width:0.5;" x1="8" x2="224" y1="143.2344" y2="143.2344"/><polygon fill="#FFFF44" points="18,152.5391,22,156.5391,18,160.5391,14,156.5391" style="stroke:#B38D22;stroke-width:1.0;"/><text fill="#000000" font-family="sans-serif" font-size="14" lengthAdjust="spacing" textLength="92" x="27" y="161.7676">Camera(Point)</text><ellipse cx="18" cy="175.1484" fill="#84BE84" rx="3" ry="3" style="stroke:#038048;stroke-width:1.0;"/><text fill="#000000" font-family="sans-serif" font-size="14" lengthAdjust="spacing" textLength="120" x="27" y="179.377">update(Point): void</text><ellipse cx="18" cy="192.7578" fill="#84BE84" rx="3" ry="3" style="stroke:#038048;stroke-width:1.0;"/><text fill="#000000" font-family="sans-serif" font-size="14" lengthAdjust="spacing" textLength="61" x="27" y="196.9863">getX(): int</text><ellipse cx="18" cy="210.3672" fill="#84BE84" rx="3" ry="3" style="stroke:#038048;stroke-width:1.0;"/><text fill="#000000" font-family="sans-serif" font-size="14" lengthAdjust="spacing" textLength="62" x="27" y="214.5957">getY(): int</text><ellipse cx="18" cy="227.9766" fill="#84BE84" rx="3" ry="3" style="stroke:#038048;stroke-width:1.0;"/><text fill="#000000" font-family="sans-serif" font-size="14" lengthAdjust="spacing" textLength="84" x="27" y="232.2051">getTileX(): int</text><ellipse cx="18" cy="245.5859" fill="#84BE84" rx="3" ry="3" style="stroke:#038048;stroke-width:1.0;"/><text fill="#000000" font-family="sans-serif" font-size="14" lengthAdjust="spacing" textLength="85" x="27" y="249.8145">getTileY(): int</text><ellipse cx="18" cy="263.1953" fill="#84BE84" rx="3" ry="3" style="stroke:#038048;stroke-width:1.0;"/><text fill="#000000" font-family="sans-serif" font-size="14" lengthAdjust="spacing" textLength="125" x="27" y="267.4238">getTilePoint(): Point</text><ellipse cx="18" cy="280.8047" fill="#84BE84" rx="3" ry="3" style="stroke:#038048;stroke-width:1.0;"/><text fill="#000000" font-family="sans-serif" font-size="14" lengthAdjust="spacing" textLength="192" x="27" y="285.0332">addAnimation(Animation): void</text><ellipse cx="18" cy="298.4141" fill="#84BE84" rx="3" ry="3" style="stroke:#038048;stroke-width:1.0;"/><text fill="#000000" font-family="sans-serif" font-size="14" lengthAdjust="spacing" textLength="153" x="27" y="302.6426">removeAnimation(): void</text><ellipse cx="18" cy="316.0234" fill="#84BE84" rx="3" ry="3" style="stroke:#038048;stroke-width:1.0;"/><text fill="#000000" font-family="sans-serif" font-size="14" lengthAdjust="spacing" textLength="146" x="27" y="320.252">getVisionDistance(): int</text><ellipse cx="18" cy="333.6328" fill="#84BE84" rx="3" ry="3" style="stroke:#038048;stroke-width:1.0;"/><text fill="#000000" font-family="sans-serif" font-size="14" lengthAdjust="spacing" textLength="117" x="27" y="337.8613">getVisionSize(): int</text></g></a><rect fill="none" height="12.5781" style="stroke:none;stroke-width:1.0;" width="184" x="23.5" y="351.9375"/><text fill="#888888" font-family="sans-serif" font-size="10" lengthAdjust="spacing" textLength="184" x="23.5" y="362.3184">UMLDoclet 2.0.19, PlantUML 1.2022.8</text><!--MD5=[58824bcf109f28d9b3f2b3c07a837c4c]
@startuml
    set namespaceSeparator none
    hide empty fields
    hide empty methods

    class "<size:14>Camera\n<size:10>nz.ac.vuw.ecs.swen225.gp22.renderer" as nz.ac.vuw.ecs.swen225.gp22.renderer.Camera [[Camera.html]] {
        {static} -visionSize: int
        {static} -visionDistance: int
        {static} -tileSize: int
        -position: Point
        -animation: Animation
        #Camera(Point)
        +update(Point): void
        +getX(): int
        +getY(): int
        +getTileX(): int
        +getTileY(): int
        +getTilePoint(): Point
        +addAnimation(Animation): void
        +removeAnimation(): void
        +getVisionDistance(): int
        +getVisionSize(): int
    }

    center footer UMLDoclet 2.0.19, PlantUML 1.2022.8
@enduml

PlantUML version 1.2022.8(Sun Sep 25 22:00:33 NZDT 2022)
(APACHE source distribution)
Java Runtime: OpenJDK Runtime Environment
JVM: OpenJDK 64-Bit Server VM
Default Encoding: Cp1252
Language: en
Country: NZ
--></g></svg>