<?xml version="1.0" encoding="UTF-8" standalone="no"?><svg xmlns="http://www.w3.org/2000/svg" xmlns:xlink="http://www.w3.org/1999/xlink" contentStyleType="text/css" height="374px" preserveAspectRatio="none" style="width:310px;height:374px;background:#FFFFFF;" version="1.1" viewBox="0 0 310 374" width="310px" zoomAndPan="magnify"><defs/><g><!--MD5=[17c4d7934bc23e8dc3404ecc2ba17f5f]
class nz.ac.vuw.ecs.swen225.gp22.renderer.MoveAnimation--><a href="MoveAnimation.html" target="_top" title="MoveAnimation.html" xlink:actuate="onRequest" xlink:href="MoveAnimation.html" xlink:show="new" xlink:title="MoveAnimation.html" xlink:type="simple"><g id="elem_nz.ac.vuw.ecs.swen225.gp22.renderer.MoveAnimation"><rect codeLine="5" fill="#F1F1F1" height="179.4531" id="nz.ac.vuw.ecs.swen225.gp22.renderer.MoveAnimation" rx="2.5" ry="2.5" style="stroke:#181818;stroke-width:0.5;" width="294" x="9" y="168"/><ellipse cx="62.25" cy="188.0938" fill="#ADD1B2" rx="11" ry="11" style="stroke:#181818;stroke-width:1.0;"/><path d="M65.0156,183.9688 Q65.1719,183.75 65.3594,183.6406 Q65.5469,183.5313 65.7656,183.5313 Q66.1406,183.5313 66.375,183.7969 Q66.6094,184.0469 66.6094,184.6563 L66.6094,186.1094 Q66.6094,186.7188 66.375,186.9844 Q66.1406,187.25 65.7656,187.25 Q65.4219,187.25 65.2188,187.0469 Q65.0156,186.8594 64.9063,186.3438 Q64.8594,185.9844 64.6719,185.7969 Q64.3438,185.4219 63.7344,185.2031 Q63.125,184.9844 62.5,184.9844 Q61.7344,184.9844 61.0938,185.3125 Q60.4688,185.6406 59.9688,186.3906 Q59.4844,187.1406 59.4844,188.1719 L59.4844,189.2656 Q59.4844,190.5 60.375,191.3281 Q61.2656,192.1406 62.8594,192.1406 Q63.7969,192.1406 64.4531,191.8906 Q64.8438,191.7344 65.2656,191.2969 Q65.5313,191.0313 65.6719,190.9531 Q65.8281,190.875 66.0313,190.875 Q66.3594,190.875 66.6094,191.1406 Q66.875,191.3906 66.875,191.7344 Q66.875,192.0781 66.5313,192.4844 Q66.0313,193.0625 65.2344,193.3906 Q64.1563,193.8438 62.8594,193.8438 Q61.3438,193.8438 60.1406,193.2188 Q59.1563,192.7188 58.4688,191.6563 Q57.7813,190.5781 57.7813,189.2969 L57.7813,188.1406 Q57.7813,186.8125 58.3906,185.6719 Q59.0156,184.5156 60.1094,183.9063 Q61.2031,183.2813 62.4375,183.2813 Q63.1719,183.2813 63.8125,183.4531 Q64.4688,183.6094 65.0156,183.9688 Z " fill="#000000"/><text fill="#000000" font-family="sans-serif" font-size="14" lengthAdjust="spacing" textLength="96" x="124.25" y="187.5332">MoveAnimation</text><text fill="#000000" font-family="sans-serif" font-size="10" lengthAdjust="spacing" textLength="179" x="82.75" y="200.9902">nz.ac.vuw.ecs.swen225.gp22.renderer</text><line style="stroke:#181818;stroke-width:0.5;" x1="10" x2="302" y1="208.1875" y2="208.1875"/><polygon fill="none" points="20,217.4922,24,221.4922,20,225.4922,16,221.4922" style="stroke:#B38D22;stroke-width:1.0;"/><text fill="#000000" font-family="sans-serif" font-size="14" lengthAdjust="spacing" textLength="118" x="29" y="226.7207">direction: Direction</text><polygon fill="none" points="20,235.1016,24,239.1016,20,243.1016,16,239.1016" style="stroke:#B38D22;stroke-width:1.0;"/><text fill="#000000" font-family="sans-serif" font-size="14" lengthAdjust="spacing" textLength="58" x="29" y="244.3301">count: int</text><line style="stroke:#181818;stroke-width:0.5;" x1="10" x2="302" y1="251.4063" y2="251.4063"/><ellipse cx="20" cy="265.7109" fill="#84BE84" rx="3" ry="3" style="stroke:#038048;stroke-width:1.0;"/><text fill="#000000" font-family="sans-serif" font-size="14" lengthAdjust="spacing" textLength="268" x="29" y="269.9395">MoveAnimation(Point, Direction, int, Entity)</text><ellipse cx="20" cy="283.3203" fill="#84BE84" rx="3" ry="3" style="stroke:#038048;stroke-width:1.0;"/><text fill="#000000" font-family="sans-serif" font-size="14" lengthAdjust="spacing" textLength="244" x="29" y="287.5488">MoveAnimation(Point, Point, int, Entity)</text><ellipse cx="20" cy="300.9297" fill="#84BE84" rx="3" ry="3" style="stroke:#038048;stroke-width:1.0;"/><text fill="#000000" font-family="sans-serif" font-size="14" lengthAdjust="spacing" textLength="133" x="29" y="305.1582">isFinished(): boolean</text><ellipse cx="20" cy="318.5391" fill="#84BE84" rx="3" ry="3" style="stroke:#038048;stroke-width:1.0;"/><text fill="#000000" font-family="sans-serif" font-size="14" lengthAdjust="spacing" textLength="71" x="29" y="322.7676">ping(): void</text><ellipse cx="20" cy="336.1484" fill="#84BE84" rx="3" ry="3" style="stroke:#038048;stroke-width:1.0;"/><text fill="#000000" font-family="sans-serif" font-size="14" lengthAdjust="spacing" textLength="110" x="29" y="340.377">copy(): Animation</text></g></a><!--MD5=[735ea27247035e4bfdd80523d7339e87]
class nz.ac.vuw.ecs.swen225.gp22.renderer.Animation--><a href="Animation.html" target="_top" title="Animation.html" xlink:actuate="onRequest" xlink:href="Animation.html" xlink:show="new" xlink:title="Animation.html" xlink:type="simple"><g id="elem_nz.ac.vuw.ecs.swen225.gp22.renderer.Animation"><rect codeLine="15" fill="#F1F1F1" height="101.0156" id="nz.ac.vuw.ecs.swen225.gp22.renderer.Animation" rx="2.5" ry="2.5" style="stroke:#181818;stroke-width:0.5;" width="213" x="49.5" y="7"/><ellipse cx="64.5" cy="27.0938" fill="#A9DCDF" rx="11" ry="11" style="stroke:#181818;stroke-width:1.0;"/><path d="M66.6875,28.8594 L62.5469,28.8594 L62.125,29.8906 L62.5469,29.8906 Q63.1563,29.8906 63.4219,30.125 Q63.6875,30.3594 63.6875,30.75 Q63.6875,31.125 63.4219,31.3594 Q63.1563,31.5938 62.5469,31.5938 L60.25,31.5938 Q59.6406,31.5938 59.3906,31.3594 Q59.125,31.125 59.125,30.7344 Q59.125,30.3594 59.4063,30.125 Q59.6719,29.875 60.2969,29.8906 L62.9688,23.2344 L61.8594,23.2344 Q61.25,23.2344 60.9844,23 Q60.7188,22.7656 60.7188,22.375 Q60.7188,22 60.9844,21.7656 Q61.25,21.5313 61.8594,21.5313 L65.5313,21.5313 L68.9219,29.8906 Q69.5156,29.8906 69.7031,30.0313 Q70.0938,30.2969 70.0938,30.75 Q70.0938,31.125 69.8281,31.3594 Q69.5781,31.5938 68.9688,31.5938 L66.6719,31.5938 Q66.0625,31.5938 65.7969,31.3594 Q65.5313,31.125 65.5313,30.7344 Q65.5313,30.3594 65.7969,30.125 Q66.0625,29.8906 66.6719,29.8906 L67.0938,29.8906 L66.6875,28.8594 Z M65.9688,27.1563 L64.6094,23.7813 L63.2344,27.1563 L65.9688,27.1563 Z " fill="#000000"/><text fill="#000000" font-family="sans-serif" font-size="14" font-style="italic" lengthAdjust="spacing" textLength="62" x="138" y="26.5332">Animation</text><text fill="#000000" font-family="sans-serif" font-size="10" font-style="italic" lengthAdjust="spacing" textLength="181" x="78.5" y="39.9902">nz.ac.vuw.ecs.swen225.gp22.renderer</text><line style="stroke:#181818;stroke-width:0.5;" x1="50.5" x2="261.5" y1="47.1875" y2="47.1875"/><polygon fill="#4177AF" points="60.5,57.4922,56.5,63.4922,64.5,63.4922" style="stroke:#1963A0;stroke-width:1.0;"/><text fill="#000000" font-family="sans-serif" font-size="14" font-style="italic" lengthAdjust="spacing" textLength="133" x="69.5" y="65.7207">isFinished(): boolean</text><polygon fill="#4177AF" points="60.5,75.1016,56.5,81.1016,64.5,81.1016" style="stroke:#1963A0;stroke-width:1.0;"/><text fill="#000000" font-family="sans-serif" font-size="14" font-style="italic" lengthAdjust="spacing" textLength="70" x="69.5" y="83.3301">ping(): void</text><polygon fill="#4177AF" points="60.5,92.7109,56.5,98.7109,64.5,98.7109" style="stroke:#1963A0;stroke-width:1.0;"/><text fill="#000000" font-family="sans-serif" font-size="14" font-style="italic" lengthAdjust="spacing" textLength="110" x="69.5" y="100.9395">copy(): Animation</text></g></a><!--MD5=[5c5f45ee412cd375b3fc9e3d251f3181]
reverse link nz.ac.vuw.ecs.swen225.gp22.renderer.Animation to nz.ac.vuw.ecs.swen225.gp22.renderer.MoveAnimation--><g id="link_nz.ac.vuw.ecs.swen225.gp22.renderer.Animation_nz.ac.vuw.ecs.swen225.gp22.renderer.MoveAnimation"><path codeLine="21" d="M156,128.24 C156,141.04 156,154.55 156,167.81 " fill="none" id="nz.ac.vuw.ecs.swen225.gp22.renderer.Animation-backto-nz.ac.vuw.ecs.swen225.gp22.renderer.MoveAnimation" style="stroke:#181818;stroke-width:1.0;"/><polygon fill="none" points="149,128.21,156,108.21,163,128.21,149,128.21" style="stroke:#181818;stroke-width:1.0;"/></g><rect fill="none" height="12.5781" style="stroke:none;stroke-width:1.0;" width="184" x="56" y="353.4531"/><text fill="#888888" font-family="sans-serif" font-size="10" lengthAdjust="spacing" textLength="184" x="56" y="363.834">UMLDoclet 2.0.19, PlantUML 1.2022.8</text><!--MD5=[052f843f9aecaaf6c0dffe4cbb7a87c8]
@startuml
    set namespaceSeparator none
    hide empty fields
    hide empty methods

    class "<size:14>MoveAnimation\n<size:10>nz.ac.vuw.ecs.swen225.gp22.renderer" as nz.ac.vuw.ecs.swen225.gp22.renderer.MoveAnimation [[MoveAnimation.html]] {
        #direction: Direction
        #count: int
        +MoveAnimation(Point, Direction, int, Entity)
        +MoveAnimation(Point, Point, int, Entity)
        +isFinished(): boolean
        +ping(): void
        +copy(): Animation
    }

    abstract class "<size:14>Animation\n<size:10>nz.ac.vuw.ecs.swen225.gp22.renderer" as nz.ac.vuw.ecs.swen225.gp22.renderer.Animation [[Animation.html]] {
        {abstract} ~isFinished(): boolean
        {abstract} ~ping(): void
        {abstract} ~copy(): Animation
    }

    nz.ac.vuw.ecs.swen225.gp22.renderer.Animation <|- - nz.ac.vuw.ecs.swen225.gp22.renderer.MoveAnimation

    center footer UMLDoclet 2.0.19, PlantUML 1.2022.8
@enduml

PlantUML version 1.2022.8(Sun Sep 25 22:00:33 NZDT 2022)
(APACHE source distribution)
Java Runtime: OpenJDK Runtime Environment
JVM: OpenJDK 64-Bit Server VM
Default Encoding: Cp1252
Language: en
Country: NZ
--></g></svg>