<?xml version="1.0" encoding="UTF-8" standalone="no"?><svg xmlns="http://www.w3.org/2000/svg" xmlns:xlink="http://www.w3.org/1999/xlink" contentStyleType="text/css" height="541px" preserveAspectRatio="none" style="width:305px;height:541px;background:#FFFFFF;" version="1.1" viewBox="0 0 305 541" width="305px" zoomAndPan="magnify"><defs/><g><!--MD5=[c05e36657cb3441300c89038389fbc4c]
class nz.ac.vuw.ecs.swen225.gp22.renderer.Renderer--><a href="Renderer.html" target="_top" title="Renderer.html" xlink:actuate="onRequest" xlink:href="Renderer.html" xlink:show="new" xlink:title="Renderer.html" xlink:type="simple"><g id="elem_nz.ac.vuw.ecs.swen225.gp22.renderer.Renderer"><rect codeLine="5" fill="#F1F1F1" height="408.375" id="nz.ac.vuw.ecs.swen225.gp22.renderer.Renderer" rx="2.5" ry="2.5" style="stroke:#181818;stroke-width:0.5;" width="289" x="9" y="107"/><ellipse cx="59.75" cy="127.0938" fill="#ADD1B2" rx="11" ry="11" style="stroke:#181818;stroke-width:1.0;"/><path d="M62.5156,122.9688 Q62.6719,122.75 62.8594,122.6406 Q63.0469,122.5313 63.2656,122.5313 Q63.6406,122.5313 63.875,122.7969 Q64.1094,123.0469 64.1094,123.6563 L64.1094,125.1094 Q64.1094,125.7188 63.875,125.9844 Q63.6406,126.25 63.2656,126.25 Q62.9219,126.25 62.7188,126.0469 Q62.5156,125.8594 62.4063,125.3438 Q62.3594,124.9844 62.1719,124.7969 Q61.8438,124.4219 61.2344,124.2031 Q60.625,123.9844 60,123.9844 Q59.2344,123.9844 58.5938,124.3125 Q57.9688,124.6406 57.4688,125.3906 Q56.9844,126.1406 56.9844,127.1719 L56.9844,128.2656 Q56.9844,129.5 57.875,130.3281 Q58.7656,131.1406 60.3594,131.1406 Q61.2969,131.1406 61.9531,130.8906 Q62.3438,130.7344 62.7656,130.2969 Q63.0313,130.0313 63.1719,129.9531 Q63.3281,129.875 63.5313,129.875 Q63.8594,129.875 64.1094,130.1406 Q64.375,130.3906 64.375,130.7344 Q64.375,131.0781 64.0313,131.4844 Q63.5313,132.0625 62.7344,132.3906 Q61.6563,132.8438 60.3594,132.8438 Q58.8438,132.8438 57.6406,132.2188 Q56.6563,131.7188 55.9688,130.6563 Q55.2813,129.5781 55.2813,128.2969 L55.2813,127.1406 Q55.2813,125.8125 55.8906,124.6719 Q56.5156,123.5156 57.6094,122.9063 Q58.7031,122.2813 59.9375,122.2813 Q60.6719,122.2813 61.3125,122.4531 Q61.9688,122.6094 62.5156,122.9688 Z " fill="#000000"/><text fill="#000000" font-family="sans-serif" font-size="14" lengthAdjust="spacing" textLength="60" x="139.75" y="126.5332">Renderer</text><text fill="#000000" font-family="sans-serif" font-size="10" lengthAdjust="spacing" textLength="179" x="80.25" y="139.9902">nz.ac.vuw.ecs.swen225.gp22.renderer</text><line style="stroke:#181818;stroke-width:0.5;" x1="10" x2="297" y1="147.1875" y2="147.1875"/><rect fill="none" height="6" style="stroke:#C82930;stroke-width:1.0;" width="6" x="17" y="158.4922"/><text fill="#000000" font-family="sans-serif" font-size="14" lengthAdjust="spacing" textLength="105" x="29" y="165.7207">camera: Camera</text><rect fill="none" height="6" style="stroke:#C82930;stroke-width:1.0;" width="6" x="17" y="176.1016"/><text fill="#000000" font-family="sans-serif" font-size="14" lengthAdjust="spacing" text-decoration="underline" textLength="67" x="29" y="183.3301">tileSize: int</text><polygon fill="none" points="20,192.7109,16,198.7109,24,198.7109" style="stroke:#1963A0;stroke-width:1.0;"/><text fill="#000000" font-family="sans-serif" font-size="14" lengthAdjust="spacing" textLength="185" x="29" y="200.9395">inventory: Map&lt;Key, Integer&gt;</text><rect fill="none" height="6" style="stroke:#C82930;stroke-width:1.0;" width="6" x="17" y="211.3203"/><text fill="#000000" font-family="sans-serif" font-size="14" lengthAdjust="spacing" textLength="126" x="29" y="218.5488">entities: List&lt;Entity&gt;</text><rect fill="none" height="6" style="stroke:#C82930;stroke-width:1.0;" width="6" x="17" y="228.9297"/><text fill="#000000" font-family="sans-serif" font-size="14" lengthAdjust="spacing" textLength="163" x="29" y="236.1582">actors: Map&lt;Actor, Point&gt;</text><rect fill="none" height="6" style="stroke:#C82930;stroke-width:1.0;" width="6" x="17" y="246.5391"/><text fill="#000000" font-family="sans-serif" font-size="14" lengthAdjust="spacing" textLength="176" x="29" y="253.7676">animations: List&lt;Animation&gt;</text><rect fill="none" height="6" style="stroke:#C82930;stroke-width:1.0;" width="6" x="17" y="264.1484"/><text fill="#000000" font-family="sans-serif" font-size="14" lengthAdjust="spacing" textLength="102" x="29" y="271.377">message: String</text><polygon fill="none" points="20,280.7578,16,286.7578,24,286.7578" style="stroke:#1963A0;stroke-width:1.0;"/><text fill="#000000" font-family="sans-serif" font-size="14" lengthAdjust="spacing" textLength="148" x="29" y="288.9863">showMessage: boolean</text><rect fill="none" height="6" style="stroke:#C82930;stroke-width:1.0;" width="6" x="17" y="299.3672"/><text fill="#000000" font-family="sans-serif" font-size="14" lengthAdjust="spacing" textLength="61" x="29" y="306.5957">font: Font</text><line style="stroke:#181818;stroke-width:0.5;" x1="10" x2="297" y1="313.6719" y2="313.6719"/><ellipse cx="20" cy="327.9766" fill="#84BE84" rx="3" ry="3" style="stroke:#038048;stroke-width:1.0;"/><text fill="#000000" font-family="sans-serif" font-size="14" lengthAdjust="spacing" textLength="254" x="29" y="332.2051">ping(Point, List&lt;Entity&gt;, List&lt;Key&gt;): void</text><rect fill="#F24D5C" height="6" style="stroke:#C82930;stroke-width:1.0;" width="6" x="17" y="342.5859"/><text fill="#000000" font-family="sans-serif" font-size="14" lengthAdjust="spacing" textLength="190" x="29" y="349.8145">isEntityVisible(Entity): boolean</text><ellipse cx="20" cy="363.1953" fill="#84BE84" rx="3" ry="3" style="stroke:#038048;stroke-width:1.0;"/><text fill="#000000" font-family="sans-serif" font-size="14" lengthAdjust="spacing" textLength="205" x="29" y="367.4238">paintComponent(Graphics): void</text><rect fill="#F24D5C" height="6" style="stroke:#C82930;stroke-width:1.0;" width="6" x="17" y="377.8047"/><text fill="#000000" font-family="sans-serif" font-size="14" lengthAdjust="spacing" textLength="223" x="29" y="385.0332">drawEntities(Graphics, int, int): void</text><rect fill="#F24D5C" height="6" style="stroke:#C82930;stroke-width:1.0;" width="6" x="17" y="395.4141"/><text fill="#000000" font-family="sans-serif" font-size="14" lengthAdjust="spacing" textLength="212" x="29" y="402.6426">drawInventory(Graphics, int): void</text><rect fill="#F24D5C" height="6" style="stroke:#C82930;stroke-width:1.0;" width="6" x="17" y="413.0234"/><text fill="#000000" font-family="sans-serif" font-size="14" lengthAdjust="spacing" textLength="263" x="29" y="420.252">drawPopup(Graphics, int, int, String): void</text><ellipse cx="20" cy="433.6328" fill="#84BE84" rx="3" ry="3" style="stroke:#038048;stroke-width:1.0;"/><text fill="#000000" font-family="sans-serif" font-size="14" lengthAdjust="spacing" textLength="154" x="29" y="437.8613">showPopup(String): void</text><ellipse cx="20" cy="451.2422" fill="#84BE84" rx="3" ry="3" style="stroke:#038048;stroke-width:1.0;"/><text fill="#000000" font-family="sans-serif" font-size="14" lengthAdjust="spacing" textLength="112" x="29" y="455.4707">hidePopup(): void</text><rect fill="#F24D5C" height="6" style="stroke:#C82930;stroke-width:1.0;" width="6" x="17" y="465.8516"/><text fill="#000000" font-family="sans-serif" font-size="14" lengthAdjust="spacing" textLength="246" x="29" y="473.0801">drawAnimations(Graphics, int, int): void</text><rect fill="#F24D5C" height="6" style="stroke:#C82930;stroke-width:1.0;" width="6" x="17" y="483.4609"/><text fill="#000000" font-family="sans-serif" font-size="14" lengthAdjust="spacing" textLength="177" x="29" y="490.6895">worldToScreen(Point): Point</text><ellipse cx="20" cy="504.0703" fill="#84BE84" rx="3" ry="3" style="stroke:#038048;stroke-width:1.0;"/><text fill="#000000" font-family="sans-serif" font-size="14" lengthAdjust="spacing" textLength="192" x="29" y="508.2988">addAnimation(Animation): void</text></g></a><!--MD5=[56a185cb33bdc7c23303e5865f20a19b]
class javax.swing.JPanel--><g id="elem_javax.swing.JPanel"><rect codeLine="28" fill="#F1F1F1" height="40.1875" id="javax.swing.JPanel" rx="2.5" ry="2.5" style="stroke:#181818;stroke-width:0.5;" width="86" x="110.5" y="7"/><ellipse cx="125.5" cy="27.0938" fill="#ADD1B2" rx="11" ry="11" style="stroke:#181818;stroke-width:1.0;"/><path d="M128.2656,22.9688 Q128.4219,22.75 128.6094,22.6406 Q128.7969,22.5313 129.0156,22.5313 Q129.3906,22.5313 129.625,22.7969 Q129.8594,23.0469 129.8594,23.6563 L129.8594,25.1094 Q129.8594,25.7188 129.625,25.9844 Q129.3906,26.25 129.0156,26.25 Q128.6719,26.25 128.4688,26.0469 Q128.2656,25.8594 128.1563,25.3438 Q128.1094,24.9844 127.9219,24.7969 Q127.5938,24.4219 126.9844,24.2031 Q126.375,23.9844 125.75,23.9844 Q124.9844,23.9844 124.3438,24.3125 Q123.7188,24.6406 123.2188,25.3906 Q122.7344,26.1406 122.7344,27.1719 L122.7344,28.2656 Q122.7344,29.5 123.625,30.3281 Q124.5156,31.1406 126.1094,31.1406 Q127.0469,31.1406 127.7031,30.8906 Q128.0938,30.7344 128.5156,30.2969 Q128.7813,30.0313 128.9219,29.9531 Q129.0781,29.875 129.2813,29.875 Q129.6094,29.875 129.8594,30.1406 Q130.125,30.3906 130.125,30.7344 Q130.125,31.0781 129.7813,31.4844 Q129.2813,32.0625 128.4844,32.3906 Q127.4063,32.8438 126.1094,32.8438 Q124.5938,32.8438 123.3906,32.2188 Q122.4063,31.7188 121.7188,30.6563 Q121.0313,29.5781 121.0313,28.2969 L121.0313,27.1406 Q121.0313,25.8125 121.6406,24.6719 Q122.2656,23.5156 123.3594,22.9063 Q124.4531,22.2813 125.6875,22.2813 Q126.4219,22.2813 127.0625,22.4531 Q127.7188,22.6094 128.2656,22.9688 Z " fill="#000000"/><text fill="#000000" font-family="sans-serif" font-size="14" lengthAdjust="spacing" textLength="42" x="145.5" y="26.5332">JPanel</text><text fill="#000000" font-family="sans-serif" font-size="10" lengthAdjust="spacing" textLength="54" x="139.5" y="39.9902">javax.swing</text></g><!--MD5=[12fc6f78eee58d14719fd42ce7f320e2]
reverse link javax.swing.JPanel to nz.ac.vuw.ecs.swen225.gp22.renderer.Renderer--><g id="link_javax.swing.JPanel_nz.ac.vuw.ecs.swen225.gp22.renderer.Renderer"><path codeLine="30" d="M153.5,67.5 C153.5,79.01 153.5,92.45 153.5,106.99 " fill="none" id="javax.swing.JPanel-backto-nz.ac.vuw.ecs.swen225.gp22.renderer.Renderer" style="stroke:#181818;stroke-width:1.0;"/><polygon fill="none" points="146.5,67.38,153.5,47.38,160.5,67.38,146.5,67.38" style="stroke:#181818;stroke-width:1.0;"/></g><rect fill="none" height="12.5781" style="stroke:none;stroke-width:1.0;" width="184" x="53.5" y="521.375"/><text fill="#888888" font-family="sans-serif" font-size="10" lengthAdjust="spacing" textLength="184" x="53.5" y="531.7559">UMLDoclet 2.0.19, PlantUML 1.2022.8</text><!--MD5=[ea24440e470b95e3de84c3e01f3fec9c]
@startuml
    set namespaceSeparator none
    hide empty fields
    hide empty methods

    class "<size:14>Renderer\n<size:10>nz.ac.vuw.ecs.swen225.gp22.renderer" as nz.ac.vuw.ecs.swen225.gp22.renderer.Renderer [[Renderer.html]] {
        -camera: Camera
        {static} -tileSize: int
        ~inventory: Map<Key, Integer>
        -entities: List<Entity>
        -actors: Map<Actor, Point>
        -animations: List<Animation>
        -message: String
        ~showMessage: boolean
        -font: Font
        +ping(Point, List<Entity>, List<Key>): void
        -isEntityVisible(Entity): boolean
        +paintComponent(Graphics): void
        -drawEntities(Graphics, int, int): void
        -drawInventory(Graphics, int): void
        -drawPopup(Graphics, int, int, String): void
        +showPopup(String): void
        +hidePopup(): void
        -drawAnimations(Graphics, int, int): void
        -worldToScreen(Point): Point
        +addAnimation(Animation): void
    }

    class "<size:14>JPanel\n<size:10>javax.swing" as javax.swing.JPanel

    javax.swing.JPanel <|- - nz.ac.vuw.ecs.swen225.gp22.renderer.Renderer

    center footer UMLDoclet 2.0.19, PlantUML 1.2022.8
@enduml

PlantUML version 1.2022.8(Sun Sep 25 22:00:33 NZDT 2022)
(APACHE source distribution)
Java Runtime: OpenJDK Runtime Environment
JVM: OpenJDK 64-Bit Server VM
Default Encoding: Cp1252
Language: en
Country: NZ
--></g></svg>