<?xml version="1.0" encoding="UTF-8" standalone="no"?><svg xmlns="http://www.w3.org/2000/svg" xmlns:xlink="http://www.w3.org/1999/xlink" contentStyleType="text/css" height="266px" preserveAspectRatio="none" style="width:232px;height:266px;background:#FFFFFF;" version="1.1" viewBox="0 0 232 266" width="232px" zoomAndPan="magnify"><defs/><g><!--MD5=[979d0dc0c1df04cfa8734f0e26f9468c]
class nz.ac.vuw.ecs.swen225.gp22.renderer.SoundEffect--><a href="SoundEffect.html" target="_top" title="SoundEffect.html" xlink:actuate="onRequest" xlink:href="SoundEffect.html" xlink:show="new" xlink:title="SoundEffect.html" xlink:type="simple"><g id="elem_nz.ac.vuw.ecs.swen225.gp22.renderer.SoundEffect"><rect codeLine="5" fill="#F1F1F1" height="232.2813" id="nz.ac.vuw.ecs.swen225.gp22.renderer.SoundEffect" rx="2.5" ry="2.5" style="stroke:#181818;stroke-width:0.5;" width="211" x="7" y="7"/><ellipse cx="22" cy="27.0938" fill="#EB937F" rx="11" ry="11" style="stroke:#181818;stroke-width:1.0;"/><path d="M20.8594,27.8906 L20.8594,30.3906 L25.1875,30.3906 L25.1875,29.4688 Q25.1875,28.8594 25.4219,28.5938 Q25.6719,28.3281 26.0469,28.3281 Q26.4219,28.3281 26.6563,28.5938 Q26.8906,28.8594 26.8906,29.4688 L26.8906,32.0938 L18.8906,32.0938 Q18.2656,32.0938 18,31.8594 Q17.75,31.625 17.75,31.2344 Q17.75,30.8594 18.0156,30.625 Q18.2813,30.3906 18.8906,30.3906 L19.1563,30.3906 L19.1563,23.7344 L18.8906,23.7344 Q18.2656,23.7344 18,23.5 Q17.75,23.2656 17.75,22.875 Q17.75,22.5 18,22.2656 Q18.2656,22.0313 18.8906,22.0313 L26.5156,22.0313 L26.5156,24.625 Q26.5156,25.2344 26.2813,25.5 Q26.0625,25.75 25.6719,25.75 Q25.2969,25.75 25.0625,25.5 Q24.8281,25.2344 24.8281,24.625 L24.8281,23.7344 L20.8594,23.7344 L20.8594,26.1875 L22.3438,26.1875 Q22.3438,25.5313 22.4688,25.3438 Q22.7344,24.9375 23.2031,24.9375 Q23.5781,24.9375 23.8125,25.2031 Q24.0469,25.4531 24.0469,26.0625 L24.0469,28.0313 Q24.0469,28.5781 23.9219,28.7656 Q23.6563,29.1563 23.2031,29.1563 Q22.7344,29.1563 22.4688,28.75 Q22.3438,28.5625 22.3438,27.8906 L20.8594,27.8906 Z " fill="#000000"/><text fill="#000000" font-family="sans-serif" font-size="14" lengthAdjust="spacing" textLength="77" x="87" y="26.5332">SoundEffect</text><text fill="#000000" font-family="sans-serif" font-size="10" lengthAdjust="spacing" textLength="179" x="36" y="39.9902">nz.ac.vuw.ecs.swen225.gp22.renderer</text><line style="stroke:#181818;stroke-width:0.5;" x1="8" x2="217" y1="47.1875" y2="47.1875"/><ellipse cx="18" cy="61.4922" fill="none" rx="3" ry="3" style="stroke:#038048;stroke-width:1.0;"/><text fill="#000000" font-family="sans-serif" font-size="14" lengthAdjust="spacing" text-decoration="underline" textLength="74" x="27" y="65.7207">TREASURE</text><ellipse cx="18" cy="79.1016" fill="none" rx="3" ry="3" style="stroke:#038048;stroke-width:1.0;"/><text fill="#000000" font-family="sans-serif" font-size="14" lengthAdjust="spacing" text-decoration="underline" textLength="42" x="27" y="83.3301">DOOR</text><ellipse cx="18" cy="96.7109" fill="none" rx="3" ry="3" style="stroke:#038048;stroke-width:1.0;"/><text fill="#000000" font-family="sans-serif" font-size="14" lengthAdjust="spacing" text-decoration="underline" textLength="29" x="27" y="100.9395">EXIT</text><ellipse cx="18" cy="114.3203" fill="none" rx="3" ry="3" style="stroke:#038048;stroke-width:1.0;"/><text fill="#000000" font-family="sans-serif" font-size="14" lengthAdjust="spacing" text-decoration="underline" textLength="27" x="27" y="118.5488">KEY</text><ellipse cx="18" cy="131.9297" fill="none" rx="3" ry="3" style="stroke:#038048;stroke-width:1.0;"/><text fill="#000000" font-family="sans-serif" font-size="14" lengthAdjust="spacing" text-decoration="underline" textLength="38" x="27" y="136.1582">WALL</text><ellipse cx="18" cy="149.5391" fill="none" rx="3" ry="3" style="stroke:#038048;stroke-width:1.0;"/><text fill="#000000" font-family="sans-serif" font-size="14" lengthAdjust="spacing" text-decoration="underline" textLength="32" x="27" y="153.7676">INFO</text><ellipse cx="18" cy="167.1484" fill="none" rx="3" ry="3" style="stroke:#038048;stroke-width:1.0;"/><text fill="#000000" font-family="sans-serif" font-size="14" lengthAdjust="spacing" text-decoration="underline" textLength="50" x="27" y="171.377">ROBOT</text><ellipse cx="18" cy="184.7578" fill="none" rx="3" ry="3" style="stroke:#038048;stroke-width:1.0;"/><text fill="#000000" font-family="sans-serif" font-size="14" lengthAdjust="spacing" text-decoration="underline" textLength="35" x="27" y="188.9863">LAVA</text><polygon fill="none" points="18,198.3672,14,204.3672,22,204.3672" style="stroke:#1963A0;stroke-width:1.0;"/><text fill="#000000" font-family="sans-serif" font-size="14" lengthAdjust="spacing" textLength="53" x="27" y="206.5957">clip: Clip</text><line style="stroke:#181818;stroke-width:0.5;" x1="8" x2="217" y1="213.6719" y2="213.6719"/><rect fill="#F24D5C" height="6" style="stroke:#C82930;stroke-width:1.0;" width="6" x="15" y="224.9766"/><text fill="#000000" font-family="sans-serif" font-size="14" lengthAdjust="spacing" textLength="124" x="27" y="232.2051">SoundEffect(String)</text></g></a><rect fill="none" height="12.5781" style="stroke:none;stroke-width:1.0;" width="184" x="20" y="246.2813"/><text fill="#888888" font-family="sans-serif" font-size="10" lengthAdjust="spacing" textLength="184" x="20" y="256.6621">UMLDoclet 2.0.19, PlantUML 1.2022.8</text><!--MD5=[981d2613d85936a40da946c98b319719]
@startuml
    set namespaceSeparator none
    hide empty fields
    hide empty methods

    enum "<size:14>SoundEffect\n<size:10>nz.ac.vuw.ecs.swen225.gp22.renderer" as nz.ac.vuw.ecs.swen225.gp22.renderer.SoundEffect [[SoundEffect.html]] {
        {static} +TREASURE
        {static} +DOOR
        {static} +EXIT
        {static} +KEY
        {static} +WALL
        {static} +INFO
        {static} +ROBOT
        {static} +LAVA
        ~clip: Clip
        -SoundEffect(String)
    }

    center footer UMLDoclet 2.0.19, PlantUML 1.2022.8
@enduml

PlantUML version 1.2022.8(Sun Sep 25 22:00:33 NZDT 2022)
(APACHE source distribution)
Java Runtime: OpenJDK Runtime Environment
JVM: OpenJDK 64-Bit Server VM
Default Encoding: Cp1252
Language: en
Country: NZ
--></g></svg>