<?xml version="1.0" encoding="UTF-8" standalone="no"?><svg xmlns="http://www.w3.org/2000/svg" xmlns:xlink="http://www.w3.org/1999/xlink" contentStyleType="text/css" height="365px" preserveAspectRatio="none" style="width:305px;height:365px;background:#FFFFFF;" version="1.1" viewBox="0 0 305 365" width="305px" zoomAndPan="magnify"><defs/><g><!--MD5=[9d9bcd730406bb66ffc05c77e0e0dcb5]
class nz.ac.vuw.ecs.swen225.gp22.renderer.WalkAnimation--><a href="WalkAnimation.html" target="_top" title="WalkAnimation.html" xlink:actuate="onRequest" xlink:href="WalkAnimation.html" xlink:show="new" xlink:title="WalkAnimation.html" xlink:type="simple"><g id="elem_nz.ac.vuw.ecs.swen225.gp22.renderer.WalkAnimation"><rect codeLine="5" fill="#F1F1F1" height="232.2813" id="nz.ac.vuw.ecs.swen225.gp22.renderer.WalkAnimation" rx="2.5" ry="2.5" style="stroke:#181818;stroke-width:0.5;" width="291" x="7" y="107"/><ellipse cx="58.75" cy="127.0938" fill="#ADD1B2" rx="11" ry="11" style="stroke:#181818;stroke-width:1.0;"/><path d="M61.5156,122.9688 Q61.6719,122.75 61.8594,122.6406 Q62.0469,122.5313 62.2656,122.5313 Q62.6406,122.5313 62.875,122.7969 Q63.1094,123.0469 63.1094,123.6563 L63.1094,125.1094 Q63.1094,125.7188 62.875,125.9844 Q62.6406,126.25 62.2656,126.25 Q61.9219,126.25 61.7188,126.0469 Q61.5156,125.8594 61.4063,125.3438 Q61.3594,124.9844 61.1719,124.7969 Q60.8438,124.4219 60.2344,124.2031 Q59.625,123.9844 59,123.9844 Q58.2344,123.9844 57.5938,124.3125 Q56.9688,124.6406 56.4688,125.3906 Q55.9844,126.1406 55.9844,127.1719 L55.9844,128.2656 Q55.9844,129.5 56.875,130.3281 Q57.7656,131.1406 59.3594,131.1406 Q60.2969,131.1406 60.9531,130.8906 Q61.3438,130.7344 61.7656,130.2969 Q62.0313,130.0313 62.1719,129.9531 Q62.3281,129.875 62.5313,129.875 Q62.8594,129.875 63.1094,130.1406 Q63.375,130.3906 63.375,130.7344 Q63.375,131.0781 63.0313,131.4844 Q62.5313,132.0625 61.7344,132.3906 Q60.6563,132.8438 59.3594,132.8438 Q57.8438,132.8438 56.6406,132.2188 Q55.6563,131.7188 54.9688,130.6563 Q54.2813,129.5781 54.2813,128.2969 L54.2813,127.1406 Q54.2813,125.8125 54.8906,124.6719 Q55.5156,123.5156 56.6094,122.9063 Q57.7031,122.2813 58.9375,122.2813 Q59.6719,122.2813 60.3125,122.4531 Q60.9688,122.6094 61.5156,122.9688 Z " fill="#000000"/><text fill="#000000" font-family="sans-serif" font-size="14" lengthAdjust="spacing" textLength="93" x="122.25" y="126.5332">WalkAnimation</text><text fill="#000000" font-family="sans-serif" font-size="10" lengthAdjust="spacing" textLength="179" x="79.25" y="139.9902">nz.ac.vuw.ecs.swen225.gp22.renderer</text><line style="stroke:#181818;stroke-width:0.5;" x1="8" x2="297" y1="147.1875" y2="147.1875"/><rect fill="none" height="6" style="stroke:#C82930;stroke-width:1.0;" width="6" x="15" y="158.4922"/><text fill="#000000" font-family="sans-serif" font-size="14" lengthAdjust="spacing" textLength="109" x="27" y="165.7207">currentFrame: int</text><rect fill="none" height="6" style="stroke:#C82930;stroke-width:1.0;" width="6" x="15" y="176.1016"/><text fill="#000000" font-family="sans-serif" font-size="14" lengthAdjust="spacing" textLength="117" x="27" y="183.3301">upFrames: Sprite[]</text><rect fill="none" height="6" style="stroke:#C82930;stroke-width:1.0;" width="6" x="15" y="193.7109"/><text fill="#000000" font-family="sans-serif" font-size="14" lengthAdjust="spacing" textLength="134" x="27" y="200.9395">downFrames: Sprite[]</text><rect fill="none" height="6" style="stroke:#C82930;stroke-width:1.0;" width="6" x="15" y="211.3203"/><text fill="#000000" font-family="sans-serif" font-size="14" lengthAdjust="spacing" textLength="120" x="27" y="218.5488">leftFrames: Sprite[]</text><rect fill="none" height="6" style="stroke:#C82930;stroke-width:1.0;" width="6" x="15" y="228.9297"/><text fill="#000000" font-family="sans-serif" font-size="14" lengthAdjust="spacing" textLength="129" x="27" y="236.1582">rightFrames: Sprite[]</text><line style="stroke:#181818;stroke-width:0.5;" x1="8" x2="297" y1="243.2344" y2="243.2344"/><ellipse cx="18" cy="257.5391" fill="#84BE84" rx="3" ry="3" style="stroke:#038048;stroke-width:1.0;"/><text fill="#000000" font-family="sans-serif" font-size="14" lengthAdjust="spacing" textLength="265" x="27" y="261.7676">WalkAnimation(Point, Direction, int, Entity)</text><ellipse cx="18" cy="275.1484" fill="#84BE84" rx="3" ry="3" style="stroke:#038048;stroke-width:1.0;"/><text fill="#000000" font-family="sans-serif" font-size="14" lengthAdjust="spacing" textLength="241" x="27" y="279.377">WalkAnimation(Point, Point, int, Entity)</text><ellipse cx="18" cy="292.7578" fill="#84BE84" rx="3" ry="3" style="stroke:#038048;stroke-width:1.0;"/><text fill="#000000" font-family="sans-serif" font-size="14" lengthAdjust="spacing" textLength="112" x="27" y="296.9863">getSprite(): Sprite</text><ellipse cx="18" cy="310.3672" fill="#84BE84" rx="3" ry="3" style="stroke:#038048;stroke-width:1.0;"/><text fill="#000000" font-family="sans-serif" font-size="14" lengthAdjust="spacing" textLength="71" x="27" y="314.5957">ping(): void</text><ellipse cx="18" cy="327.9766" fill="#84BE84" rx="3" ry="3" style="stroke:#038048;stroke-width:1.0;"/><text fill="#000000" font-family="sans-serif" font-size="14" lengthAdjust="spacing" textLength="110" x="27" y="332.2051">copy(): Animation</text></g></a><!--MD5=[17c4d7934bc23e8dc3404ecc2ba17f5f]
class nz.ac.vuw.ecs.swen225.gp22.renderer.MoveAnimation--><a href="MoveAnimation.html" target="_top" title="MoveAnimation.html" xlink:actuate="onRequest" xlink:href="MoveAnimation.html" xlink:show="new" xlink:title="MoveAnimation.html" xlink:type="simple"><g id="elem_nz.ac.vuw.ecs.swen225.gp22.renderer.MoveAnimation"><rect codeLine="18" fill="#F1F1F1" height="40.1875" id="nz.ac.vuw.ecs.swen225.gp22.renderer.MoveAnimation" rx="2.5" ry="2.5" style="stroke:#181818;stroke-width:0.5;" width="211" x="47" y="7"/><ellipse cx="62" cy="27.0938" fill="#ADD1B2" rx="11" ry="11" style="stroke:#181818;stroke-width:1.0;"/><path d="M64.7656,22.9688 Q64.9219,22.75 65.1094,22.6406 Q65.2969,22.5313 65.5156,22.5313 Q65.8906,22.5313 66.125,22.7969 Q66.3594,23.0469 66.3594,23.6563 L66.3594,25.1094 Q66.3594,25.7188 66.125,25.9844 Q65.8906,26.25 65.5156,26.25 Q65.1719,26.25 64.9688,26.0469 Q64.7656,25.8594 64.6563,25.3438 Q64.6094,24.9844 64.4219,24.7969 Q64.0938,24.4219 63.4844,24.2031 Q62.875,23.9844 62.25,23.9844 Q61.4844,23.9844 60.8438,24.3125 Q60.2188,24.6406 59.7188,25.3906 Q59.2344,26.1406 59.2344,27.1719 L59.2344,28.2656 Q59.2344,29.5 60.125,30.3281 Q61.0156,31.1406 62.6094,31.1406 Q63.5469,31.1406 64.2031,30.8906 Q64.5938,30.7344 65.0156,30.2969 Q65.2813,30.0313 65.4219,29.9531 Q65.5781,29.875 65.7813,29.875 Q66.1094,29.875 66.3594,30.1406 Q66.625,30.3906 66.625,30.7344 Q66.625,31.0781 66.2813,31.4844 Q65.7813,32.0625 64.9844,32.3906 Q63.9063,32.8438 62.6094,32.8438 Q61.0938,32.8438 59.8906,32.2188 Q58.9063,31.7188 58.2188,30.6563 Q57.5313,29.5781 57.5313,28.2969 L57.5313,27.1406 Q57.5313,25.8125 58.1406,24.6719 Q58.7656,23.5156 59.8594,22.9063 Q60.9531,22.2813 62.1875,22.2813 Q62.9219,22.2813 63.5625,22.4531 Q64.2188,22.6094 64.7656,22.9688 Z " fill="#000000"/><text fill="#000000" font-family="sans-serif" font-size="14" lengthAdjust="spacing" textLength="96" x="117.5" y="26.5332">MoveAnimation</text><text fill="#000000" font-family="sans-serif" font-size="10" lengthAdjust="spacing" textLength="179" x="76" y="39.9902">nz.ac.vuw.ecs.swen225.gp22.renderer</text></g></a><!--MD5=[85437e469b4dce1c13bbe29ac17a7782]
reverse link nz.ac.vuw.ecs.swen225.gp22.renderer.MoveAnimation to nz.ac.vuw.ecs.swen225.gp22.renderer.WalkAnimation--><g id="link_nz.ac.vuw.ecs.swen225.gp22.renderer.MoveAnimation_nz.ac.vuw.ecs.swen225.gp22.renderer.WalkAnimation"><path codeLine="20" d="M152.5,67.45 C152.5,79.23 152.5,92.78 152.5,106.86 " fill="none" id="nz.ac.vuw.ecs.swen225.gp22.renderer.MoveAnimation-backto-nz.ac.vuw.ecs.swen225.gp22.renderer.WalkAnimation" style="stroke:#181818;stroke-width:1.0;"/><polygon fill="none" points="145.5,67.31,152.5,47.31,159.5,67.31,145.5,67.31" style="stroke:#181818;stroke-width:1.0;"/></g><rect fill="none" height="12.5781" style="stroke:none;stroke-width:1.0;" width="184" x="53.5" y="345.2813"/><text fill="#888888" font-family="sans-serif" font-size="10" lengthAdjust="spacing" textLength="184" x="53.5" y="355.6621">UMLDoclet 2.0.19, PlantUML 1.2022.8</text><!--MD5=[4f5f095f3812538730fc5fae8485759a]
@startuml
    set namespaceSeparator none
    hide empty fields
    hide empty methods

    class "<size:14>WalkAnimation\n<size:10>nz.ac.vuw.ecs.swen225.gp22.renderer" as nz.ac.vuw.ecs.swen225.gp22.renderer.WalkAnimation [[WalkAnimation.html]] {
        -currentFrame: int
        -upFrames: Sprite[]
        -downFrames: Sprite[]
        -leftFrames: Sprite[]
        -rightFrames: Sprite[]
        +WalkAnimation(Point, Direction, int, Entity)
        +WalkAnimation(Point, Point, int, Entity)
        +getSprite(): Sprite
        +ping(): void
        +copy(): Animation
    }

    class "<size:14>MoveAnimation\n<size:10>nz.ac.vuw.ecs.swen225.gp22.renderer" as nz.ac.vuw.ecs.swen225.gp22.renderer.MoveAnimation [[MoveAnimation.html]]

    nz.ac.vuw.ecs.swen225.gp22.renderer.MoveAnimation <|- - nz.ac.vuw.ecs.swen225.gp22.renderer.WalkAnimation

    center footer UMLDoclet 2.0.19, PlantUML 1.2022.8
@enduml

PlantUML version 1.2022.8(Sun Sep 25 22:00:33 NZDT 2022)
(APACHE source distribution)
Java Runtime: OpenJDK Runtime Environment
JVM: OpenJDK 64-Bit Server VM
Default Encoding: Cp1252
Language: en
Country: NZ
--></g></svg>