<?xml version="1.0" encoding="UTF-8" standalone="no"?><svg xmlns="http://www.w3.org/2000/svg" xmlns:xlink="http://www.w3.org/1999/xlink" contentStyleType="text/css" height="326px" preserveAspectRatio="none" style="width:486px;height:326px;background:#FFFFFF;" version="1.1" viewBox="0 0 486 326" width="486px" zoomAndPan="magnify"><defs/><g><!--MD5=[9f52dd7ce84f1bad0dac5c49c17778b7]
cluster nz.ac.vuw.ecs.swen225.gp22.persistency--><g id="cluster_nz.ac.vuw.ecs.swen225.gp22.persistency"><path d="M8.5,6 L296.5,6 A3.75,3.75 0 0 1 299,8.5 L306,29.6094 L476.5,29.6094 A2.5,2.5 0 0 1 479,32.1094 L479,297.5 A2.5,2.5 0 0 1 476.5,300 L8.5,300 A2.5,2.5 0 0 1 6,297.5 L6,8.5 A2.5,2.5 0 0 1 8.5,6 " fill="none" style="stroke:#000000;stroke-width:1.5;"/><line style="stroke:#000000;stroke-width:1.5;" x1="6" x2="306" y1="29.6094" y2="29.6094"/><text fill="#000000" font-family="sans-serif" font-size="14" font-weight="bold" lengthAdjust="spacing" textLength="287" x="10" y="22.5332">nz.ac.vuw.ecs.swen225.gp22.persistency</text></g><!--MD5=[34e75c9a16f432b58334385ef43599cf]
class nz.ac.vuw.ecs.swen225.gp22.persistency.ExtraEntity--><a href="ExtraEntity.html" target="_top" title="ExtraEntity.html" xlink:actuate="onRequest" xlink:href="ExtraEntity.html" xlink:show="new" xlink:title="ExtraEntity.html" xlink:type="simple"><g id="elem_nz.ac.vuw.ecs.swen225.gp22.persistency.ExtraEntity"><rect codeLine="3" fill="#F1F1F1" height="65.6094" id="nz.ac.vuw.ecs.swen225.gp22.persistency.ExtraEntity" rx="2.5" ry="2.5" style="stroke:#181818;stroke-width:0.5;" width="152" x="311" y="130"/><ellipse cx="349.85" cy="146" fill="#B4A7E5" rx="11" ry="11" style="stroke:#181818;stroke-width:1.0;"/><path d="M350.8031,142.6406 L350.8031,149.2969 L352.5219,149.2969 Q353.1313,149.2969 353.3969,149.5313 Q353.6625,149.7656 353.6625,150.1563 Q353.6625,150.5313 353.3969,150.7656 Q353.1313,151 352.5219,151 L347.3813,151 Q346.7719,151 346.5063,150.7656 Q346.2406,150.5313 346.2406,150.1406 Q346.2406,149.7656 346.5063,149.5313 Q346.7719,149.2969 347.3813,149.2969 L349.1,149.2969 L349.1,142.6406 L347.3813,142.6406 Q346.7719,142.6406 346.5063,142.4063 Q346.2406,142.1719 346.2406,141.7813 Q346.2406,141.4063 346.5063,141.1719 Q346.7719,140.9375 347.3813,140.9375 L352.5219,140.9375 Q353.1313,140.9375 353.3969,141.1719 Q353.6625,141.4063 353.6625,141.7813 Q353.6625,142.1719 353.3969,142.4063 Q353.1313,142.6406 352.5219,142.6406 L350.8031,142.6406 Z " fill="#000000"/><text fill="#000000" font-family="sans-serif" font-size="14" font-style="italic" lengthAdjust="spacing" textLength="67" x="369.15" y="151.7285">ExtraEntity</text><line style="stroke:#181818;stroke-width:0.5;" x1="312" x2="462" y1="162" y2="162"/><line style="stroke:#181818;stroke-width:0.5;" x1="312" x2="462" y1="170" y2="170"/><ellipse cx="322" cy="184.3047" fill="#84BE84" rx="3" ry="3" style="stroke:#038048;stroke-width:1.0;"/><text fill="#000000" font-family="sans-serif" font-size="14" font-style="italic" lengthAdjust="spacing" textLength="126" x="331" y="188.5332">createEntity(): Actor</text></g></a><!--MD5=[1dea78f2f2a88202bcd2d63037980fbb]
class nz.ac.vuw.ecs.swen225.gp22.persistency.XmlParser--><a href="XmlParser.html" target="_top" title="XmlParser.html" xlink:actuate="onRequest" xlink:href="XmlParser.html" xlink:show="new" xlink:title="XmlParser.html" xlink:type="simple"><g id="elem_nz.ac.vuw.ecs.swen225.gp22.persistency.XmlParser"><rect codeLine="7" fill="#F1F1F1" height="241.7031" id="nz.ac.vuw.ecs.swen225.gp22.persistency.XmlParser" rx="2.5" ry="2.5" style="stroke:#181818;stroke-width:0.5;" width="253" x="22.5" y="42"/><ellipse cx="112.75" cy="58" fill="#ADD1B2" rx="11" ry="11" style="stroke:#181818;stroke-width:1.0;"/><path d="M115.5156,53.875 Q115.6719,53.6563 115.8594,53.5469 Q116.0469,53.4375 116.2656,53.4375 Q116.6406,53.4375 116.875,53.7031 Q117.1094,53.9531 117.1094,54.5625 L117.1094,56.0156 Q117.1094,56.625 116.875,56.8906 Q116.6406,57.1563 116.2656,57.1563 Q115.9219,57.1563 115.7188,56.9531 Q115.5156,56.7656 115.4063,56.25 Q115.3594,55.8906 115.1719,55.7031 Q114.8438,55.3281 114.2344,55.1094 Q113.625,54.8906 113,54.8906 Q112.2344,54.8906 111.5938,55.2188 Q110.9688,55.5469 110.4688,56.2969 Q109.9844,57.0469 109.9844,58.0781 L109.9844,59.1719 Q109.9844,60.4063 110.875,61.2344 Q111.7656,62.0469 113.3594,62.0469 Q114.2969,62.0469 114.9531,61.7969 Q115.3438,61.6406 115.7656,61.2031 Q116.0313,60.9375 116.1719,60.8594 Q116.3281,60.7813 116.5313,60.7813 Q116.8594,60.7813 117.1094,61.0469 Q117.375,61.2969 117.375,61.6406 Q117.375,61.9844 117.0313,62.3906 Q116.5313,62.9688 115.7344,63.2969 Q114.6563,63.75 113.3594,63.75 Q111.8438,63.75 110.6406,63.125 Q109.6563,62.625 108.9688,61.5625 Q108.2813,60.4844 108.2813,59.2031 L108.2813,58.0469 Q108.2813,56.7188 108.8906,55.5781 Q109.5156,54.4219 110.6094,53.8125 Q111.7031,53.1875 112.9375,53.1875 Q113.6719,53.1875 114.3125,53.3594 Q114.9688,53.5156 115.5156,53.875 Z " fill="#000000"/><text fill="#000000" font-family="sans-serif" font-size="14" lengthAdjust="spacing" textLength="64" x="133.25" y="63.7285">XmlParser</text><line style="stroke:#181818;stroke-width:0.5;" x1="23.5" x2="274.5" y1="74" y2="74"/><rect fill="none" height="6" style="stroke:#C82930;stroke-width:1.0;" width="6" x="30.5" y="85.3047"/><text fill="#000000" font-family="sans-serif" font-size="14" lengthAdjust="spacing" text-decoration="underline" textLength="101" x="42.5" y="92.5332">levelNumber: int</text><rect fill="none" height="6" style="stroke:#C82930;stroke-width:1.0;" width="6" x="30.5" y="102.9141"/><text fill="#000000" font-family="sans-serif" font-size="14" lengthAdjust="spacing" text-decoration="underline" textLength="73" x="42.5" y="110.1426">timeLeft: int</text><line style="stroke:#181818;stroke-width:0.5;" x1="23.5" x2="274.5" y1="117.2188" y2="117.2188"/><ellipse cx="33.5" cy="131.5234" fill="#84BE84" rx="3" ry="3" style="stroke:#038048;stroke-width:1.0;"/><text fill="#000000" font-family="sans-serif" font-size="14" lengthAdjust="spacing" text-decoration="underline" textLength="141" x="42.5" y="135.752">parse(File): Document</text><ellipse cx="33.5" cy="149.1328" fill="#84BE84" rx="3" ry="3" style="stroke:#038048;stroke-width:1.0;"/><text fill="#000000" font-family="sans-serif" font-size="14" lengthAdjust="spacing" text-decoration="underline" textLength="208" x="42.5" y="153.3613">getTilesElement(Model): Element</text><ellipse cx="33.5" cy="166.7422" fill="#84BE84" rx="3" ry="3" style="stroke:#038048;stroke-width:1.0;"/><text fill="#000000" font-family="sans-serif" font-size="14" lengthAdjust="spacing" text-decoration="underline" textLength="195" x="42.5" y="170.9707">saveGame(Model, String): void</text><ellipse cx="33.5" cy="184.3516" fill="#84BE84" rx="3" ry="3" style="stroke:#038048;stroke-width:1.0;"/><text fill="#000000" font-family="sans-serif" font-size="14" lengthAdjust="spacing" text-decoration="underline" textLength="227" x="42.5" y="188.5801">write(Document, String, String): void</text><ellipse cx="33.5" cy="201.9609" fill="#84BE84" rx="3" ry="3" style="stroke:#038048;stroke-width:1.0;"/><text fill="#000000" font-family="sans-serif" font-size="14" lengthAdjust="spacing" text-decoration="underline" textLength="199" x="42.5" y="206.1895">loadTiles(Element): List&lt;Entity&gt;</text><ellipse cx="33.5" cy="219.5703" fill="#84BE84" rx="3" ry="3" style="stroke:#038048;stroke-width:1.0;"/><text fill="#000000" font-family="sans-serif" font-size="14" lengthAdjust="spacing" text-decoration="underline" textLength="193" x="42.5" y="223.7988">loadGame(String): List&lt;Entity&gt;</text><ellipse cx="33.5" cy="237.1797" fill="#84BE84" rx="3" ry="3" style="stroke:#038048;stroke-width:1.0;"/><text fill="#000000" font-family="sans-serif" font-size="14" lengthAdjust="spacing" text-decoration="underline" textLength="87" x="42.5" y="241.4082">getLevel(): int</text><ellipse cx="33.5" cy="254.7891" fill="#84BE84" rx="3" ry="3" style="stroke:#038048;stroke-width:1.0;"/><text fill="#000000" font-family="sans-serif" font-size="14" lengthAdjust="spacing" text-decoration="underline" textLength="84" x="42.5" y="259.0176">getTime(): int</text><ellipse cx="33.5" cy="272.3984" fill="#84BE84" rx="3" ry="3" style="stroke:#038048;stroke-width:1.0;"/><text fill="#000000" font-family="sans-serif" font-size="14" lengthAdjust="spacing" text-decoration="underline" textLength="119" x="42.5" y="276.627">main(String[]): void</text></g></a><rect fill="none" height="12.5781" style="stroke:none;stroke-width:1.0;" width="184" x="144" y="306"/><text fill="#888888" font-family="sans-serif" font-size="10" lengthAdjust="spacing" textLength="184" x="144" y="316.3809">UMLDoclet 2.0.19, PlantUML 1.2022.8</text><!--MD5=[ff592cd79a2f8e284a4c281db5e75d31]
@startuml
    namespace nz.ac.vuw.ecs.swen225.gp22.persistency {

        interface ExtraEntity [[ExtraEntity.html]] {
            {abstract} +createEntity(): Actor
        }

        class XmlParser [[XmlParser.html]] {
            {static} -levelNumber: int
            {static} -timeLeft: int
            {static} +parse(File): Document
            {static} +getTilesElement(Model): Element
            {static} +saveGame(Model, String): void
            {static} +write(Document, String, String): void
            {static} +loadTiles(Element): List<Entity>
            {static} +loadGame(String): List<Entity>
            {static} +getLevel(): int
            {static} +getTime(): int
            {static} +main(String[]): void
        }

    }

    center footer UMLDoclet 2.0.19, PlantUML 1.2022.8
@enduml

PlantUML version 1.2022.8(Sun Sep 25 22:00:33 NZDT 2022)
(APACHE source distribution)
Java Runtime: OpenJDK Runtime Environment
JVM: OpenJDK 64-Bit Server VM
Default Encoding: Cp1252
Language: en
Country: NZ
--></g></svg>