<?xml version="1.0" encoding="UTF-8" standalone="no"?><svg xmlns="http://www.w3.org/2000/svg" xmlns:xlink="http://www.w3.org/1999/xlink" contentStyleType="text/css" height="284px" preserveAspectRatio="none" style="width:274px;height:284px;background:#FFFFFF;" version="1.1" viewBox="0 0 274 284" width="274px" zoomAndPan="magnify"><defs/><g><!--MD5=[1dea78f2f2a88202bcd2d63037980fbb]
class nz.ac.vuw.ecs.swen225.gp22.persistency.XmlParser--><a href="XmlParser.html" target="_top" title="XmlParser.html" xlink:actuate="onRequest" xlink:href="XmlParser.html" xlink:show="new" xlink:title="XmlParser.html" xlink:type="simple"><g id="elem_nz.ac.vuw.ecs.swen225.gp22.persistency.XmlParser"><rect codeLine="5" fill="#F1F1F1" height="249.8906" id="nz.ac.vuw.ecs.swen225.gp22.persistency.XmlParser" rx="2.5" ry="2.5" style="stroke:#181818;stroke-width:0.5;" width="253" x="7" y="7"/><ellipse cx="35.05" cy="27.0938" fill="#ADD1B2" rx="11" ry="11" style="stroke:#181818;stroke-width:1.0;"/><path d="M37.8156,22.9688 Q37.9719,22.75 38.1594,22.6406 Q38.3469,22.5313 38.5656,22.5313 Q38.9406,22.5313 39.175,22.7969 Q39.4094,23.0469 39.4094,23.6563 L39.4094,25.1094 Q39.4094,25.7188 39.175,25.9844 Q38.9406,26.25 38.5656,26.25 Q38.2219,26.25 38.0188,26.0469 Q37.8156,25.8594 37.7063,25.3438 Q37.6594,24.9844 37.4719,24.7969 Q37.1438,24.4219 36.5344,24.2031 Q35.925,23.9844 35.3,23.9844 Q34.5344,23.9844 33.8938,24.3125 Q33.2688,24.6406 32.7688,25.3906 Q32.2844,26.1406 32.2844,27.1719 L32.2844,28.2656 Q32.2844,29.5 33.175,30.3281 Q34.0656,31.1406 35.6594,31.1406 Q36.5969,31.1406 37.2531,30.8906 Q37.6438,30.7344 38.0656,30.2969 Q38.3313,30.0313 38.4719,29.9531 Q38.6281,29.875 38.8313,29.875 Q39.1594,29.875 39.4094,30.1406 Q39.675,30.3906 39.675,30.7344 Q39.675,31.0781 39.3313,31.4844 Q38.8313,32.0625 38.0344,32.3906 Q36.9563,32.8438 35.6594,32.8438 Q34.1438,32.8438 32.9406,32.2188 Q31.9562,31.7188 31.2687,30.6563 Q30.5812,29.5781 30.5812,28.2969 L30.5812,27.1406 Q30.5812,25.8125 31.1906,24.6719 Q31.8156,23.5156 32.9094,22.9063 Q34.0031,22.2813 35.2375,22.2813 Q35.9719,22.2813 36.6125,22.4531 Q37.2688,22.6094 37.8156,22.9688 Z " fill="#000000"/><text fill="#000000" font-family="sans-serif" font-size="14" lengthAdjust="spacing" textLength="64" x="115.95" y="26.5332">XmlParser</text><text fill="#000000" font-family="sans-serif" font-size="10" lengthAdjust="spacing" textLength="192" x="51.95" y="39.9902">nz.ac.vuw.ecs.swen225.gp22.persistency</text><line style="stroke:#181818;stroke-width:0.5;" x1="8" x2="259" y1="47.1875" y2="47.1875"/><rect fill="none" height="6" style="stroke:#C82930;stroke-width:1.0;" width="6" x="15" y="58.4922"/><text fill="#000000" font-family="sans-serif" font-size="14" lengthAdjust="spacing" text-decoration="underline" textLength="101" x="27" y="65.7207">levelNumber: int</text><rect fill="none" height="6" style="stroke:#C82930;stroke-width:1.0;" width="6" x="15" y="76.1016"/><text fill="#000000" font-family="sans-serif" font-size="14" lengthAdjust="spacing" text-decoration="underline" textLength="73" x="27" y="83.3301">timeLeft: int</text><line style="stroke:#181818;stroke-width:0.5;" x1="8" x2="259" y1="90.4063" y2="90.4063"/><ellipse cx="18" cy="104.7109" fill="#84BE84" rx="3" ry="3" style="stroke:#038048;stroke-width:1.0;"/><text fill="#000000" font-family="sans-serif" font-size="14" lengthAdjust="spacing" text-decoration="underline" textLength="141" x="27" y="108.9395">parse(File): Document</text><ellipse cx="18" cy="122.3203" fill="#84BE84" rx="3" ry="3" style="stroke:#038048;stroke-width:1.0;"/><text fill="#000000" font-family="sans-serif" font-size="14" lengthAdjust="spacing" text-decoration="underline" textLength="208" x="27" y="126.5488">getTilesElement(Model): Element</text><ellipse cx="18" cy="139.9297" fill="#84BE84" rx="3" ry="3" style="stroke:#038048;stroke-width:1.0;"/><text fill="#000000" font-family="sans-serif" font-size="14" lengthAdjust="spacing" text-decoration="underline" textLength="195" x="27" y="144.1582">saveGame(Model, String): void</text><ellipse cx="18" cy="157.5391" fill="#84BE84" rx="3" ry="3" style="stroke:#038048;stroke-width:1.0;"/><text fill="#000000" font-family="sans-serif" font-size="14" lengthAdjust="spacing" text-decoration="underline" textLength="227" x="27" y="161.7676">write(Document, String, String): void</text><ellipse cx="18" cy="175.1484" fill="#84BE84" rx="3" ry="3" style="stroke:#038048;stroke-width:1.0;"/><text fill="#000000" font-family="sans-serif" font-size="14" lengthAdjust="spacing" text-decoration="underline" textLength="199" x="27" y="179.377">loadTiles(Element): List&lt;Entity&gt;</text><ellipse cx="18" cy="192.7578" fill="#84BE84" rx="3" ry="3" style="stroke:#038048;stroke-width:1.0;"/><text fill="#000000" font-family="sans-serif" font-size="14" lengthAdjust="spacing" text-decoration="underline" textLength="193" x="27" y="196.9863">loadGame(String): List&lt;Entity&gt;</text><ellipse cx="18" cy="210.3672" fill="#84BE84" rx="3" ry="3" style="stroke:#038048;stroke-width:1.0;"/><text fill="#000000" font-family="sans-serif" font-size="14" lengthAdjust="spacing" text-decoration="underline" textLength="87" x="27" y="214.5957">getLevel(): int</text><ellipse cx="18" cy="227.9766" fill="#84BE84" rx="3" ry="3" style="stroke:#038048;stroke-width:1.0;"/><text fill="#000000" font-family="sans-serif" font-size="14" lengthAdjust="spacing" text-decoration="underline" textLength="84" x="27" y="232.2051">getTime(): int</text><ellipse cx="18" cy="245.5859" fill="#84BE84" rx="3" ry="3" style="stroke:#038048;stroke-width:1.0;"/><text fill="#000000" font-family="sans-serif" font-size="14" lengthAdjust="spacing" text-decoration="underline" textLength="119" x="27" y="249.8145">main(String[]): void</text></g></a><rect fill="none" height="12.5781" style="stroke:none;stroke-width:1.0;" width="184" x="41" y="263.8906"/><text fill="#888888" font-family="sans-serif" font-size="10" lengthAdjust="spacing" textLength="184" x="41" y="274.2715">UMLDoclet 2.0.19, PlantUML 1.2022.8</text><!--MD5=[764262fbbd605bf282c2d2b8dae5df0f]
@startuml
    set namespaceSeparator none
    hide empty fields
    hide empty methods

    class "<size:14>XmlParser\n<size:10>nz.ac.vuw.ecs.swen225.gp22.persistency" as nz.ac.vuw.ecs.swen225.gp22.persistency.XmlParser [[XmlParser.html]] {
        {static} -levelNumber: int
        {static} -timeLeft: int
        {static} +parse(File): Document
        {static} +getTilesElement(Model): Element
        {static} +saveGame(Model, String): void
        {static} +write(Document, String, String): void
        {static} +loadTiles(Element): List<Entity>
        {static} +loadGame(String): List<Entity>
        {static} +getLevel(): int
        {static} +getTime(): int
        {static} +main(String[]): void
    }

    center footer UMLDoclet 2.0.19, PlantUML 1.2022.8
@enduml

PlantUML version 1.2022.8(Sun Sep 25 22:00:33 NZDT 2022)
(APACHE source distribution)
Java Runtime: OpenJDK Runtime Environment
JVM: OpenJDK 64-Bit Server VM
Default Encoding: Cp1252
Language: en
Country: NZ
--></g></svg>