<?xml version="1.0" encoding="UTF-8" standalone="no"?><svg xmlns="http://www.w3.org/2000/svg" xmlns:xlink="http://www.w3.org/1999/xlink" contentStyleType="text/css" height="199px" preserveAspectRatio="none" style="width:226px;height:199px;background:#FFFFFF;" version="1.1" viewBox="0 0 226 199" width="226px" zoomAndPan="magnify"><defs/><g><!--MD5=[f0bfcc8182d6a94d9675950863f371d6]
class nz.ac.vuw.ecs.swen225.gp22.app.Button--><a href="Button.html" target="_top" title="Button.html" xlink:actuate="onRequest" xlink:href="Button.html" xlink:show="new" xlink:title="Button.html" xlink:type="simple"><g id="elem_nz.ac.vuw.ecs.swen225.gp22.app.Button"><rect codeLine="5" fill="#F1F1F1" height="65.7969" id="nz.ac.vuw.ecs.swen225.gp22.app.Button" rx="2.5" ry="2.5" style="stroke:#181818;stroke-width:0.5;" width="212" x="7" y="107"/><ellipse cx="31.9" cy="127.0938" fill="#ADD1B2" rx="11" ry="11" style="stroke:#181818;stroke-width:1.0;"/><path d="M34.6656,122.9688 Q34.8219,122.75 35.0094,122.6406 Q35.1969,122.5313 35.4156,122.5313 Q35.7906,122.5313 36.025,122.7969 Q36.2594,123.0469 36.2594,123.6563 L36.2594,125.1094 Q36.2594,125.7188 36.025,125.9844 Q35.7906,126.25 35.4156,126.25 Q35.0719,126.25 34.8688,126.0469 Q34.6656,125.8594 34.5563,125.3438 Q34.5094,124.9844 34.3219,124.7969 Q33.9938,124.4219 33.3844,124.2031 Q32.775,123.9844 32.15,123.9844 Q31.3844,123.9844 30.7438,124.3125 Q30.1188,124.6406 29.6188,125.3906 Q29.1344,126.1406 29.1344,127.1719 L29.1344,128.2656 Q29.1344,129.5 30.025,130.3281 Q30.9156,131.1406 32.5094,131.1406 Q33.4469,131.1406 34.1031,130.8906 Q34.4938,130.7344 34.9156,130.2969 Q35.1813,130.0313 35.3219,129.9531 Q35.4781,129.875 35.6813,129.875 Q36.0094,129.875 36.2594,130.1406 Q36.525,130.3906 36.525,130.7344 Q36.525,131.0781 36.1813,131.4844 Q35.6813,132.0625 34.8844,132.3906 Q33.8063,132.8438 32.5094,132.8438 Q30.9938,132.8438 29.7906,132.2188 Q28.8063,131.7188 28.1188,130.6563 Q27.4313,129.5781 27.4313,128.2969 L27.4313,127.1406 Q27.4313,125.8125 28.0406,124.6719 Q28.6656,123.5156 29.7594,122.9063 Q30.8531,122.2813 32.0875,122.2813 Q32.8219,122.2813 33.4625,122.4531 Q34.1188,122.6094 34.6656,122.9688 Z " fill="#000000"/><text fill="#000000" font-family="sans-serif" font-size="14" lengthAdjust="spacing" textLength="41" x="106.6" y="126.5332">Button</text><text fill="#000000" font-family="sans-serif" font-size="10" lengthAdjust="spacing" textLength="158" x="48.1" y="139.9902">nz.ac.vuw.ecs.swen225.gp22.app</text><line style="stroke:#181818;stroke-width:0.5;" x1="8" x2="218" y1="147.1875" y2="147.1875"/><ellipse cx="18" cy="161.4922" fill="#84BE84" rx="3" ry="3" style="stroke:#038048;stroke-width:1.0;"/><text fill="#000000" font-family="sans-serif" font-size="14" lengthAdjust="spacing" textLength="186" x="27" y="165.7207">Button(String, ActionListener)</text></g></a><!--MD5=[7d319166b5dc6b8762d043b6fe35067f]
class javax.swing.JButton--><g id="elem_javax.swing.JButton"><rect codeLine="9" fill="#F1F1F1" height="40.1875" id="javax.swing.JButton" rx="2.5" ry="2.5" style="stroke:#181818;stroke-width:0.5;" width="86" x="70" y="7"/><ellipse cx="85" cy="27.0938" fill="#ADD1B2" rx="11" ry="11" style="stroke:#181818;stroke-width:1.0;"/><path d="M87.7656,22.9688 Q87.9219,22.75 88.1094,22.6406 Q88.2969,22.5313 88.5156,22.5313 Q88.8906,22.5313 89.125,22.7969 Q89.3594,23.0469 89.3594,23.6563 L89.3594,25.1094 Q89.3594,25.7188 89.125,25.9844 Q88.8906,26.25 88.5156,26.25 Q88.1719,26.25 87.9688,26.0469 Q87.7656,25.8594 87.6563,25.3438 Q87.6094,24.9844 87.4219,24.7969 Q87.0938,24.4219 86.4844,24.2031 Q85.875,23.9844 85.25,23.9844 Q84.4844,23.9844 83.8438,24.3125 Q83.2188,24.6406 82.7188,25.3906 Q82.2344,26.1406 82.2344,27.1719 L82.2344,28.2656 Q82.2344,29.5 83.125,30.3281 Q84.0156,31.1406 85.6094,31.1406 Q86.5469,31.1406 87.2031,30.8906 Q87.5938,30.7344 88.0156,30.2969 Q88.2813,30.0313 88.4219,29.9531 Q88.5781,29.875 88.7813,29.875 Q89.1094,29.875 89.3594,30.1406 Q89.625,30.3906 89.625,30.7344 Q89.625,31.0781 89.2813,31.4844 Q88.7813,32.0625 87.9844,32.3906 Q86.9063,32.8438 85.6094,32.8438 Q84.0938,32.8438 82.8906,32.2188 Q81.9063,31.7188 81.2188,30.6563 Q80.5313,29.5781 80.5313,28.2969 L80.5313,27.1406 Q80.5313,25.8125 81.1406,24.6719 Q81.7656,23.5156 82.8594,22.9063 Q83.9531,22.2813 85.1875,22.2813 Q85.9219,22.2813 86.5625,22.4531 Q87.2188,22.6094 87.7656,22.9688 Z " fill="#000000"/><text fill="#000000" font-family="sans-serif" font-size="14" lengthAdjust="spacing" textLength="47" x="102.5" y="26.5332">JButton</text><text fill="#000000" font-family="sans-serif" font-size="10" lengthAdjust="spacing" textLength="54" x="99" y="39.9902">javax.swing</text></g><!--MD5=[a4aa13b8fd9fe9c8c44e02b298a405e9]
reverse link javax.swing.JButton to nz.ac.vuw.ecs.swen225.gp22.app.Button--><g id="link_javax.swing.JButton_nz.ac.vuw.ecs.swen225.gp22.app.Button"><path codeLine="11" d="M113,67.09 C113,80.05 113,94.32 113,106.71 " fill="none" id="javax.swing.JButton-backto-nz.ac.vuw.ecs.swen225.gp22.app.Button" style="stroke:#181818;stroke-width:1.0;"/><polygon fill="none" points="106,67.08,113,47.08,120,67.08,106,67.08" style="stroke:#181818;stroke-width:1.0;"/></g><rect fill="none" height="12.5781" style="stroke:none;stroke-width:1.0;" width="184" x="14" y="178.7969"/><text fill="#888888" font-family="sans-serif" font-size="10" lengthAdjust="spacing" textLength="184" x="14" y="189.1777">UMLDoclet 2.0.19, PlantUML 1.2022.8</text><!--MD5=[8fda609e36909a030e3d7349edc4bf41]
@startuml
    set namespaceSeparator none
    hide empty fields
    hide empty methods

    class "<size:14>Button\n<size:10>nz.ac.vuw.ecs.swen225.gp22.app" as nz.ac.vuw.ecs.swen225.gp22.app.Button [[Button.html]] {
        +Button(String, ActionListener)
    }

    class "<size:14>JButton\n<size:10>javax.swing" as javax.swing.JButton

    javax.swing.JButton <|- - nz.ac.vuw.ecs.swen225.gp22.app.Button

    center footer UMLDoclet 2.0.19, PlantUML 1.2022.8
@enduml

PlantUML version 1.2022.8(Sun Sep 25 22:00:33 NZDT 2022)
(APACHE source distribution)
Java Runtime: OpenJDK Runtime Environment
JVM: OpenJDK 64-Bit Server VM
Default Encoding: Cp1252
Language: en
Country: NZ
--></g></svg>