<?xml version="1.0" encoding="UTF-8" standalone="no"?><svg xmlns="http://www.w3.org/2000/svg" xmlns:xlink="http://www.w3.org/1999/xlink" contentStyleType="text/css" height="770px" preserveAspectRatio="none" style="width:245px;height:770px;background:#FFFFFF;" version="1.1" viewBox="0 0 245 770" width="245px" zoomAndPan="magnify"><defs/><g><!--MD5=[f6d22000b3e6c0ef0c63bdd080d3f519]
class nz.ac.vuw.ecs.swen225.gp22.app.ChapsChallenge--><a href="ChapsChallenge.html" target="_top" title="ChapsChallenge.html" xlink:actuate="onRequest" xlink:href="ChapsChallenge.html" xlink:show="new" xlink:title="ChapsChallenge.html" xlink:type="simple"><g id="elem_nz.ac.vuw.ecs.swen225.gp22.app.ChapsChallenge"><rect codeLine="5" fill="#F1F1F1" height="637.2969" id="nz.ac.vuw.ecs.swen225.gp22.app.ChapsChallenge" rx="2.5" ry="2.5" style="stroke:#181818;stroke-width:0.5;" width="231" x="7" y="107"/><ellipse cx="40.45" cy="127.0938" fill="#ADD1B2" rx="11" ry="11" style="stroke:#181818;stroke-width:1.0;"/><path d="M43.2156,122.9688 Q43.3719,122.75 43.5594,122.6406 Q43.7469,122.5313 43.9656,122.5313 Q44.3406,122.5313 44.575,122.7969 Q44.8094,123.0469 44.8094,123.6563 L44.8094,125.1094 Q44.8094,125.7188 44.575,125.9844 Q44.3406,126.25 43.9656,126.25 Q43.6219,126.25 43.4188,126.0469 Q43.2156,125.8594 43.1063,125.3438 Q43.0594,124.9844 42.8719,124.7969 Q42.5438,124.4219 41.9344,124.2031 Q41.325,123.9844 40.7,123.9844 Q39.9344,123.9844 39.2938,124.3125 Q38.6688,124.6406 38.1688,125.3906 Q37.6844,126.1406 37.6844,127.1719 L37.6844,128.2656 Q37.6844,129.5 38.575,130.3281 Q39.4656,131.1406 41.0594,131.1406 Q41.9969,131.1406 42.6531,130.8906 Q43.0438,130.7344 43.4656,130.2969 Q43.7313,130.0313 43.8719,129.9531 Q44.0281,129.875 44.2313,129.875 Q44.5594,129.875 44.8094,130.1406 Q45.075,130.3906 45.075,130.7344 Q45.075,131.0781 44.7313,131.4844 Q44.2313,132.0625 43.4344,132.3906 Q42.3563,132.8438 41.0594,132.8438 Q39.5438,132.8438 38.3406,132.2188 Q37.3563,131.7188 36.6688,130.6563 Q35.9813,129.5781 35.9813,128.2969 L35.9813,127.1406 Q35.9813,125.8125 36.5906,124.6719 Q37.2156,123.5156 38.3094,122.9063 Q39.4031,122.2813 40.6375,122.2813 Q41.3719,122.2813 42.0125,122.4531 Q42.6688,122.6094 43.2156,122.9688 Z " fill="#000000"/><text fill="#000000" font-family="sans-serif" font-size="14" lengthAdjust="spacing" textLength="105" x="85.05" y="126.5332">ChapsChallenge</text><text fill="#000000" font-family="sans-serif" font-size="10" lengthAdjust="spacing" textLength="158" x="58.55" y="139.9902">nz.ac.vuw.ecs.swen225.gp22.app</text><line style="stroke:#181818;stroke-width:0.5;" x1="8" x2="237" y1="147.1875" y2="147.1875"/><rect fill="none" height="6" style="stroke:#C82930;stroke-width:1.0;" width="6" x="15" y="158.4922"/><text fill="#000000" font-family="sans-serif" font-size="14" lengthAdjust="spacing" text-decoration="underline" textLength="116" x="27" y="165.7207">FRAME_RATE: int</text><rect fill="none" height="6" style="stroke:#C82930;stroke-width:1.0;" width="6" x="15" y="176.1016"/><text fill="#000000" font-family="sans-serif" font-size="14" lengthAdjust="spacing" textLength="96" x="27" y="183.3301">clockSpeed: int</text><rect fill="none" height="6" style="stroke:#C82930;stroke-width:1.0;" width="6" x="15" y="193.7109"/><text fill="#000000" font-family="sans-serif" font-size="14" lengthAdjust="spacing" textLength="205" x="27" y="200.9395">gameController: GameController</text><rect fill="none" height="6" style="stroke:#C82930;stroke-width:1.0;" width="6" x="15" y="211.3203"/><text fill="#000000" font-family="sans-serif" font-size="14" lengthAdjust="spacing" textLength="142" x="27" y="218.5488">closePhase: Runnable</text><rect fill="none" height="6" style="stroke:#C82930;stroke-width:1.0;" width="6" x="15" y="228.9297"/><text fill="#000000" font-family="sans-serif" font-size="14" lengthAdjust="spacing" textLength="57" x="27" y="236.1582">pings: int</text><rect fill="none" height="6" style="stroke:#C82930;stroke-width:1.0;" width="6" x="15" y="246.5391"/><text fill="#000000" font-family="sans-serif" font-size="14" lengthAdjust="spacing" textLength="133" x="27" y="253.7676">currentPhase: Phase</text><rect fill="none" height="6" style="stroke:#C82930;stroke-width:1.0;" width="6" x="15" y="264.1484"/><text fill="#000000" font-family="sans-serif" font-size="14" lengthAdjust="spacing" text-decoration="underline" textLength="141" x="27" y="271.377">EMPTY_TIMER: Timer</text><rect fill="none" height="6" style="stroke:#C82930;stroke-width:1.0;" width="6" x="15" y="281.7578"/><text fill="#000000" font-family="sans-serif" font-size="14" lengthAdjust="spacing" textLength="75" x="27" y="288.9863">timer: Timer</text><rect fill="none" height="6" style="stroke:#C82930;stroke-width:1.0;" width="6" x="15" y="299.3672"/><text fill="#000000" font-family="sans-serif" font-size="14" lengthAdjust="spacing" textLength="142" x="27" y="306.5957">helpDialogue: boolean</text><line style="stroke:#181818;stroke-width:0.5;" x1="8" x2="237" y1="313.6719" y2="313.6719"/><ellipse cx="18" cy="327.9766" fill="#84BE84" rx="3" ry="3" style="stroke:#038048;stroke-width:1.0;"/><text fill="#000000" font-family="sans-serif" font-size="14" lengthAdjust="spacing" textLength="138" x="27" y="332.2051">levelStartMenu(): void</text><ellipse cx="18" cy="345.5859" fill="#84BE84" rx="3" ry="3" style="stroke:#038048;stroke-width:1.0;"/><text fill="#000000" font-family="sans-serif" font-size="14" lengthAdjust="spacing" textLength="100" x="27" y="349.8145">levelOne(): void</text><ellipse cx="18" cy="363.1953" fill="#84BE84" rx="3" ry="3" style="stroke:#038048;stroke-width:1.0;"/><text fill="#000000" font-family="sans-serif" font-size="14" lengthAdjust="spacing" textLength="99" x="27" y="367.4238">levelTwo(): void</text><ellipse cx="18" cy="380.8047" fill="#84BE84" rx="3" ry="3" style="stroke:#038048;stroke-width:1.0;"/><text fill="#000000" font-family="sans-serif" font-size="14" lengthAdjust="spacing" textLength="109" x="27" y="385.0332">loadGame(): void</text><ellipse cx="18" cy="398.4141" fill="#84BE84" rx="3" ry="3" style="stroke:#038048;stroke-width:1.0;"/><text fill="#000000" font-family="sans-serif" font-size="14" lengthAdjust="spacing" textLength="85" x="27" y="402.6426">victory(): void</text><ellipse cx="18" cy="416.0234" fill="#84BE84" rx="3" ry="3" style="stroke:#038048;stroke-width:1.0;"/><text fill="#000000" font-family="sans-serif" font-size="14" lengthAdjust="spacing" textLength="110" x="27" y="420.252">gameOver(): void</text><ellipse cx="18" cy="433.6328" fill="#84BE84" rx="3" ry="3" style="stroke:#038048;stroke-width:1.0;"/><text fill="#000000" font-family="sans-serif" font-size="14" lengthAdjust="spacing" textLength="121" x="27" y="437.8613">pauseGame(): void</text><ellipse cx="18" cy="451.2422" fill="#84BE84" rx="3" ry="3" style="stroke:#038048;stroke-width:1.0;"/><text fill="#000000" font-family="sans-serif" font-size="14" lengthAdjust="spacing" textLength="138" x="27" y="455.4707">unPauseGame(): void</text><ellipse cx="18" cy="468.8516" fill="#84BE84" rx="3" ry="3" style="stroke:#038048;stroke-width:1.0;"/><text fill="#000000" font-family="sans-serif" font-size="14" lengthAdjust="spacing" textLength="121" x="27" y="473.0801">saveAndExit(): void</text><ellipse cx="18" cy="486.4609" fill="#84BE84" rx="3" ry="3" style="stroke:#038048;stroke-width:1.0;"/><text fill="#000000" font-family="sans-serif" font-size="14" lengthAdjust="spacing" textLength="112" x="27" y="490.6895">saveGame(): void</text><ellipse cx="18" cy="504.0703" fill="#84BE84" rx="3" ry="3" style="stroke:#038048;stroke-width:1.0;"/><text fill="#000000" font-family="sans-serif" font-size="14" lengthAdjust="spacing" textLength="103" x="27" y="508.2988">exitGame(): void</text><ellipse cx="18" cy="521.6797" fill="#84BE84" rx="3" ry="3" style="stroke:#038048;stroke-width:1.0;"/><text fill="#000000" font-family="sans-serif" font-size="14" lengthAdjust="spacing" textLength="104" x="27" y="525.9082">showHelp(): void</text><ellipse cx="18" cy="539.2891" fill="#84BE84" rx="3" ry="3" style="stroke:#038048;stroke-width:1.0;"/><text fill="#000000" font-family="sans-serif" font-size="14" lengthAdjust="spacing" textLength="118" x="27" y="543.5176">getPhase(): Phase</text><rect fill="#F24D5C" height="6" style="stroke:#C82930;stroke-width:1.0;" width="6" x="15" y="553.8984"/><text fill="#000000" font-family="sans-serif" font-size="14" lengthAdjust="spacing" textLength="143" x="27" y="561.127">setPhase(Phase): void</text><ellipse cx="18" cy="574.5078" fill="#84BE84" rx="3" ry="3" style="stroke:#038048;stroke-width:1.0;"/><text fill="#000000" font-family="sans-serif" font-size="14" lengthAdjust="spacing" textLength="137" x="27" y="578.7363">startRecording(): void</text><ellipse cx="18" cy="592.1172" fill="#84BE84" rx="3" ry="3" style="stroke:#038048;stroke-width:1.0;"/><text fill="#000000" font-family="sans-serif" font-size="14" lengthAdjust="spacing" textLength="133" x="27" y="596.3457">endRecording(): void</text><ellipse cx="18" cy="609.7266" fill="#84BE84" rx="3" ry="3" style="stroke:#038048;stroke-width:1.0;"/><text fill="#000000" font-family="sans-serif" font-size="14" lengthAdjust="spacing" textLength="115" x="27" y="613.9551">loadReplay(): void</text><ellipse cx="18" cy="627.3359" fill="#84BE84" rx="3" ry="3" style="stroke:#038048;stroke-width:1.0;"/><text fill="#000000" font-family="sans-serif" font-size="14" lengthAdjust="spacing" textLength="138" x="27" y="631.5645">replayAutoplay(): void</text><ellipse cx="18" cy="644.9453" fill="#84BE84" rx="3" ry="3" style="stroke:#038048;stroke-width:1.0;"/><text fill="#000000" font-family="sans-serif" font-size="14" lengthAdjust="spacing" textLength="151" x="27" y="649.1738">replayAutopause(): void</text><ellipse cx="18" cy="662.5547" fill="#84BE84" rx="3" ry="3" style="stroke:#038048;stroke-width:1.0;"/><text fill="#000000" font-family="sans-serif" font-size="14" lengthAdjust="spacing" textLength="136" x="27" y="666.7832">replayNextTick(): void</text><ellipse cx="18" cy="680.1641" fill="#84BE84" rx="3" ry="3" style="stroke:#038048;stroke-width:1.0;"/><text fill="#000000" font-family="sans-serif" font-size="14" lengthAdjust="spacing" textLength="129" x="27" y="684.3926">getClockSpeed(): int</text><ellipse cx="18" cy="697.7734" fill="#84BE84" rx="3" ry="3" style="stroke:#038048;stroke-width:1.0;"/><text fill="#000000" font-family="sans-serif" font-size="14" lengthAdjust="spacing" textLength="154" x="27" y="702.002">setClockSpeed(int): void</text><ellipse cx="18" cy="715.3828" fill="#84BE84" rx="3" ry="3" style="stroke:#038048;stroke-width:1.0;"/><text fill="#000000" font-family="sans-serif" font-size="14" lengthAdjust="spacing" textLength="183" x="27" y="719.6113">increaseReplaySpeed(): void</text><ellipse cx="18" cy="732.9922" fill="#84BE84" rx="3" ry="3" style="stroke:#038048;stroke-width:1.0;"/><text fill="#000000" font-family="sans-serif" font-size="14" lengthAdjust="spacing" textLength="188" x="27" y="737.2207">decreaseReplaySpeed(): void</text></g></a><!--MD5=[18a7562403221f513ca44e0f82c4c17a]
class javax.swing.JFrame--><g id="elem_javax.swing.JFrame"><rect codeLine="41" fill="#F1F1F1" height="40.1875" id="javax.swing.JFrame" rx="2.5" ry="2.5" style="stroke:#181818;stroke-width:0.5;" width="86" x="79.5" y="7"/><ellipse cx="94.5" cy="27.0938" fill="#ADD1B2" rx="11" ry="11" style="stroke:#181818;stroke-width:1.0;"/><path d="M97.2656,22.9688 Q97.4219,22.75 97.6094,22.6406 Q97.7969,22.5313 98.0156,22.5313 Q98.3906,22.5313 98.625,22.7969 Q98.8594,23.0469 98.8594,23.6563 L98.8594,25.1094 Q98.8594,25.7188 98.625,25.9844 Q98.3906,26.25 98.0156,26.25 Q97.6719,26.25 97.4688,26.0469 Q97.2656,25.8594 97.1563,25.3438 Q97.1094,24.9844 96.9219,24.7969 Q96.5938,24.4219 95.9844,24.2031 Q95.375,23.9844 94.75,23.9844 Q93.9844,23.9844 93.3438,24.3125 Q92.7188,24.6406 92.2188,25.3906 Q91.7344,26.1406 91.7344,27.1719 L91.7344,28.2656 Q91.7344,29.5 92.625,30.3281 Q93.5156,31.1406 95.1094,31.1406 Q96.0469,31.1406 96.7031,30.8906 Q97.0938,30.7344 97.5156,30.2969 Q97.7813,30.0313 97.9219,29.9531 Q98.0781,29.875 98.2813,29.875 Q98.6094,29.875 98.8594,30.1406 Q99.125,30.3906 99.125,30.7344 Q99.125,31.0781 98.7813,31.4844 Q98.2813,32.0625 97.4844,32.3906 Q96.4063,32.8438 95.1094,32.8438 Q93.5938,32.8438 92.3906,32.2188 Q91.4063,31.7188 90.7188,30.6563 Q90.0313,29.5781 90.0313,28.2969 L90.0313,27.1406 Q90.0313,25.8125 90.6406,24.6719 Q91.2656,23.5156 92.3594,22.9063 Q93.4531,22.2813 94.6875,22.2813 Q95.4219,22.2813 96.0625,22.4531 Q96.7188,22.6094 97.2656,22.9688 Z " fill="#000000"/><text fill="#000000" font-family="sans-serif" font-size="14" lengthAdjust="spacing" textLength="47" x="112" y="26.5332">JFrame</text><text fill="#000000" font-family="sans-serif" font-size="10" lengthAdjust="spacing" textLength="54" x="108.5" y="39.9902">javax.swing</text></g><!--MD5=[c6b1467d2951e8a163cab7ad7608f3e5]
reverse link javax.swing.JFrame to nz.ac.vuw.ecs.swen225.gp22.app.ChapsChallenge--><g id="link_javax.swing.JFrame_nz.ac.vuw.ecs.swen225.gp22.app.ChapsChallenge"><path codeLine="43" d="M122.5,67.38 C122.5,78.71 122.5,92.05 122.5,106.79 " fill="none" id="javax.swing.JFrame-backto-nz.ac.vuw.ecs.swen225.gp22.app.ChapsChallenge" style="stroke:#181818;stroke-width:1.0;"/><polygon fill="none" points="115.5,67.12,122.5,47.12,129.5,67.12,115.5,67.12" style="stroke:#181818;stroke-width:1.0;"/></g><rect fill="none" height="12.5781" style="stroke:none;stroke-width:1.0;" width="184" x="23.5" y="750.2969"/><text fill="#888888" font-family="sans-serif" font-size="10" lengthAdjust="spacing" textLength="184" x="23.5" y="760.6777">UMLDoclet 2.0.19, PlantUML 1.2022.8</text><!--MD5=[f032b6c71535a9a0a6047492ccc83984]
@startuml
    set namespaceSeparator none
    hide empty fields
    hide empty methods

    class "<size:14>ChapsChallenge\n<size:10>nz.ac.vuw.ecs.swen225.gp22.app" as nz.ac.vuw.ecs.swen225.gp22.app.ChapsChallenge [[ChapsChallenge.html]] {
        {static} -FRAME_RATE: int
        -clockSpeed: int
        -gameController: GameController
        -closePhase: Runnable
        -pings: int
        -currentPhase: Phase
        {static} -EMPTY_TIMER: Timer
        -timer: Timer
        -helpDialogue: boolean
        +levelStartMenu(): void
        +levelOne(): void
        +levelTwo(): void
        +loadGame(): void
        +victory(): void
        +gameOver(): void
        +pauseGame(): void
        +unPauseGame(): void
        +saveAndExit(): void
        +saveGame(): void
        +exitGame(): void
        +showHelp(): void
        +getPhase(): Phase
        -setPhase(Phase): void
        +startRecording(): void
        +endRecording(): void
        +loadReplay(): void
        +replayAutoplay(): void
        +replayAutopause(): void
        +replayNextTick(): void
        +getClockSpeed(): int
        +setClockSpeed(int): void
        +increaseReplaySpeed(): void
        +decreaseReplaySpeed(): void
    }

    class "<size:14>JFrame\n<size:10>javax.swing" as javax.swing.JFrame

    javax.swing.JFrame <|- - nz.ac.vuw.ecs.swen225.gp22.app.ChapsChallenge

    center footer UMLDoclet 2.0.19, PlantUML 1.2022.8
@enduml

PlantUML version 1.2022.8(Sun Sep 25 22:00:33 NZDT 2022)
(APACHE source distribution)
Java Runtime: OpenJDK Runtime Environment
JVM: OpenJDK 64-Bit Server VM
Default Encoding: Cp1252
Language: en
Country: NZ
--></g></svg>