<?xml version="1.0" encoding="UTF-8" standalone="no"?><svg xmlns="http://www.w3.org/2000/svg" xmlns:xlink="http://www.w3.org/1999/xlink" contentStyleType="text/css" height="479px" preserveAspectRatio="none" style="width:364px;height:479px;background:#FFFFFF;" version="1.1" viewBox="0 0 364 479" width="364px" zoomAndPan="magnify"><defs/><g><!--MD5=[85ff4836a613686de580006803ddcc35]
class nz.ac.vuw.ecs.swen225.gp22.app.Keys--><a href="Keys.html" target="_top" title="Keys.html" xlink:actuate="onRequest" xlink:href="Keys.html" xlink:show="new" xlink:title="Keys.html" xlink:type="simple"><g id="elem_nz.ac.vuw.ecs.swen225.gp22.app.Keys"><rect codeLine="5" fill="#F1F1F1" height="285.1094" id="nz.ac.vuw.ecs.swen225.gp22.app.Keys" rx="2.5" ry="2.5" style="stroke:#181818;stroke-width:0.5;" width="348" x="9" y="168"/><ellipse cx="99.75" cy="188.0938" fill="#ADD1B2" rx="11" ry="11" style="stroke:#181818;stroke-width:1.0;"/><path d="M102.5156,183.9688 Q102.6719,183.75 102.8594,183.6406 Q103.0469,183.5313 103.2656,183.5313 Q103.6406,183.5313 103.875,183.7969 Q104.1094,184.0469 104.1094,184.6563 L104.1094,186.1094 Q104.1094,186.7188 103.875,186.9844 Q103.6406,187.25 103.2656,187.25 Q102.9219,187.25 102.7188,187.0469 Q102.5156,186.8594 102.4063,186.3438 Q102.3594,185.9844 102.1719,185.7969 Q101.8438,185.4219 101.2344,185.2031 Q100.625,184.9844 100,184.9844 Q99.2344,184.9844 98.5938,185.3125 Q97.9688,185.6406 97.4688,186.3906 Q96.9844,187.1406 96.9844,188.1719 L96.9844,189.2656 Q96.9844,190.5 97.875,191.3281 Q98.7656,192.1406 100.3594,192.1406 Q101.2969,192.1406 101.9531,191.8906 Q102.3438,191.7344 102.7656,191.2969 Q103.0313,191.0313 103.1719,190.9531 Q103.3281,190.875 103.5313,190.875 Q103.8594,190.875 104.1094,191.1406 Q104.375,191.3906 104.375,191.7344 Q104.375,192.0781 104.0313,192.4844 Q103.5313,193.0625 102.7344,193.3906 Q101.6563,193.8438 100.3594,193.8438 Q98.8438,193.8438 97.6406,193.2188 Q96.6563,192.7188 95.9688,191.6563 Q95.2813,190.5781 95.2813,189.2969 L95.2813,188.1406 Q95.2813,186.8125 95.8906,185.6719 Q96.5156,184.5156 97.6094,183.9063 Q98.7031,183.2813 99.9375,183.2813 Q100.6719,183.2813 101.3125,183.4531 Q101.9688,183.6094 102.5156,183.9688 Z " fill="#000000"/><text fill="#000000" font-family="sans-serif" font-size="14" lengthAdjust="spacing" textLength="31" x="183.75" y="187.5332">Keys</text><text fill="#000000" font-family="sans-serif" font-size="10" lengthAdjust="spacing" textLength="158" x="120.25" y="200.9902">nz.ac.vuw.ecs.swen225.gp22.app</text><line style="stroke:#181818;stroke-width:0.5;" x1="10" x2="356" y1="208.1875" y2="208.1875"/><rect fill="none" height="6" style="stroke:#C82930;stroke-width:1.0;" width="6" x="17" y="219.4922"/><text fill="#000000" font-family="sans-serif" font-size="14" lengthAdjust="spacing" textLength="261" x="29" y="226.7207">actionsPressed: Map&lt;Integer, Runnable&gt;</text><rect fill="none" height="6" style="stroke:#C82930;stroke-width:1.0;" width="6" x="17" y="237.1016"/><text fill="#000000" font-family="sans-serif" font-size="14" lengthAdjust="spacing" textLength="269" x="29" y="244.3301">actionsReleased: Map&lt;Integer, Runnable&gt;</text><rect fill="none" height="6" style="stroke:#C82930;stroke-width:1.0;" width="6" x="17" y="254.7109"/><text fill="#000000" font-family="sans-serif" font-size="14" lengthAdjust="spacing" textLength="281" x="29" y="261.9395">ctrlActionsPressed: Map&lt;Integer, Runnable&gt;</text><rect fill="none" height="6" style="stroke:#C82930;stroke-width:1.0;" width="6" x="17" y="272.3203"/><text fill="#000000" font-family="sans-serif" font-size="14" lengthAdjust="spacing" textLength="289" x="29" y="279.5488">ctrlActionsReleased: Map&lt;Integer, Runnable&gt;</text><line style="stroke:#181818;stroke-width:0.5;" x1="10" x2="356" y1="286.625" y2="286.625"/><polygon fill="#FFFF44" points="20,295.9297,24,299.9297,20,303.9297,16,299.9297" style="stroke:#B38D22;stroke-width:1.0;"/><text fill="#000000" font-family="sans-serif" font-size="14" lengthAdjust="spacing" textLength="255" x="29" y="305.1582">setAction(int, Runnable, Runnable): void</text><ellipse cx="20" cy="318.5391" fill="#84BE84" rx="3" ry="3" style="stroke:#038048;stroke-width:1.0;"/><text fill="#000000" font-family="sans-serif" font-size="14" lengthAdjust="spacing" textLength="166" x="29" y="322.7676">keyTyped(KeyEvent): void</text><ellipse cx="20" cy="336.1484" fill="#84BE84" rx="3" ry="3" style="stroke:#038048;stroke-width:1.0;"/><text fill="#000000" font-family="sans-serif" font-size="14" lengthAdjust="spacing" textLength="178" x="29" y="340.377">keyPressed(KeyEvent): void</text><ellipse cx="20" cy="353.7578" fill="#84BE84" rx="3" ry="3" style="stroke:#038048;stroke-width:1.0;"/><text fill="#000000" font-family="sans-serif" font-size="14" lengthAdjust="spacing" textLength="186" x="29" y="357.9863">keyReleased(KeyEvent): void</text><polygon fill="#FFFF44" points="20,366.3672,24,370.3672,20,374.3672,16,370.3672" style="stroke:#B38D22;stroke-width:1.0;"/><text fill="#000000" font-family="sans-serif" font-size="14" lengthAdjust="spacing" textLength="277" x="29" y="375.5957">setCtrlAction(int, Runnable, Runnable): void</text><ellipse cx="20" cy="388.9766" fill="#84BE84" rx="3" ry="3" style="stroke:#038048;stroke-width:1.0;"/><text fill="#000000" font-family="sans-serif" font-size="14" lengthAdjust="spacing" textLength="300" x="29" y="393.2051">getActionsReleased(): Map&lt;Integer, Runnable&gt;</text><ellipse cx="20" cy="406.5859" fill="#84BE84" rx="3" ry="3" style="stroke:#038048;stroke-width:1.0;"/><text fill="#000000" font-family="sans-serif" font-size="14" lengthAdjust="spacing" textLength="314" x="29" y="410.8145">getCtrlActionsPressed(): Map&lt;Integer, Runnable&gt;</text><ellipse cx="20" cy="424.1953" fill="#84BE84" rx="3" ry="3" style="stroke:#038048;stroke-width:1.0;"/><text fill="#000000" font-family="sans-serif" font-size="14" lengthAdjust="spacing" textLength="322" x="29" y="428.4238">getCtrlActionsReleased(): Map&lt;Integer, Runnable&gt;</text><ellipse cx="20" cy="441.8047" fill="#84BE84" rx="3" ry="3" style="stroke:#038048;stroke-width:1.0;"/><text fill="#000000" font-family="sans-serif" font-size="14" lengthAdjust="spacing" textLength="292" x="29" y="446.0332">getActionsPressed(): Map&lt;Integer, Runnable&gt;</text></g></a><!--MD5=[3eb55d915ce4c988cc6fe2a782a0fcdf]
class java.awt.event.KeyListener--><g id="elem_java.awt.event.KeyListener"><rect codeLine="21" fill="#F1F1F1" height="101.0156" id="java.awt.event.KeyListener" rx="2.5" ry="2.5" style="stroke:#181818;stroke-width:0.5;" width="211" x="77.5" y="7"/><ellipse cx="141.25" cy="27.0938" fill="#B4A7E5" rx="11" ry="11" style="stroke:#181818;stroke-width:1.0;"/><path d="M142.2031,23.7344 L142.2031,30.3906 L143.9219,30.3906 Q144.5313,30.3906 144.7969,30.625 Q145.0625,30.8594 145.0625,31.25 Q145.0625,31.625 144.7969,31.8594 Q144.5313,32.0938 143.9219,32.0938 L138.7813,32.0938 Q138.1719,32.0938 137.9063,31.8594 Q137.6406,31.625 137.6406,31.2344 Q137.6406,30.8594 137.9063,30.625 Q138.1719,30.3906 138.7813,30.3906 L140.5,30.3906 L140.5,23.7344 L138.7813,23.7344 Q138.1719,23.7344 137.9063,23.5 Q137.6406,23.2656 137.6406,22.875 Q137.6406,22.5 137.9063,22.2656 Q138.1719,22.0313 138.7813,22.0313 L143.9219,22.0313 Q144.5313,22.0313 144.7969,22.2656 Q145.0625,22.5 145.0625,22.875 Q145.0625,23.2656 144.7969,23.5 Q144.5313,23.7344 143.9219,23.7344 L142.2031,23.7344 Z " fill="#000000"/><text fill="#000000" font-family="sans-serif" font-size="14" font-style="italic" lengthAdjust="spacing" textLength="75" x="161.75" y="26.5332">KeyListener</text><text fill="#000000" font-family="sans-serif" font-size="10" font-style="italic" lengthAdjust="spacing" textLength="68" x="165.25" y="39.9902">java.awt.event</text><line style="stroke:#181818;stroke-width:0.5;" x1="78.5" x2="287.5" y1="47.1875" y2="47.1875"/><ellipse cx="88.5" cy="61.4922" fill="#84BE84" rx="3" ry="3" style="stroke:#038048;stroke-width:1.0;"/><text fill="#000000" font-family="sans-serif" font-size="14" font-style="italic" lengthAdjust="spacing" textLength="165" x="97.5" y="65.7207">keyTyped(KeyEvent): void</text><ellipse cx="88.5" cy="79.1016" fill="#84BE84" rx="3" ry="3" style="stroke:#038048;stroke-width:1.0;"/><text fill="#000000" font-family="sans-serif" font-size="14" font-style="italic" lengthAdjust="spacing" textLength="177" x="97.5" y="83.3301">keyPressed(KeyEvent): void</text><ellipse cx="88.5" cy="96.7109" fill="#84BE84" rx="3" ry="3" style="stroke:#038048;stroke-width:1.0;"/><text fill="#000000" font-family="sans-serif" font-size="14" font-style="italic" lengthAdjust="spacing" textLength="185" x="97.5" y="100.9395">keyReleased(KeyEvent): void</text></g><!--MD5=[4222f7c368899ded438c0aa94a5b87bb]
reverse link java.awt.event.KeyListener to nz.ac.vuw.ecs.swen225.gp22.app.Keys--><g id="link_java.awt.event.KeyListener_nz.ac.vuw.ecs.swen225.gp22.app.Keys"><path codeLine="27" d="M183,128.15 C183,140.66 183,154.1 183,167.81 " fill="none" id="java.awt.event.KeyListener-backto-nz.ac.vuw.ecs.swen225.gp22.app.Keys" style="stroke:#181818;stroke-width:1.0;stroke-dasharray:7.0,7.0;"/><polygon fill="none" points="176,128.09,183,108.09,190,128.09,176,128.09" style="stroke:#181818;stroke-width:1.0;"/></g><rect fill="none" height="12.5781" style="stroke:none;stroke-width:1.0;" width="184" x="83" y="459.1094"/><text fill="#888888" font-family="sans-serif" font-size="10" lengthAdjust="spacing" textLength="184" x="83" y="469.4902">UMLDoclet 2.0.19, PlantUML 1.2022.8</text><!--MD5=[952de2674a5840edeeb6f00ee69ee573]
@startuml
    set namespaceSeparator none
    hide empty fields
    hide empty methods

    class "<size:14>Keys\n<size:10>nz.ac.vuw.ecs.swen225.gp22.app" as nz.ac.vuw.ecs.swen225.gp22.app.Keys [[Keys.html]] {
        -actionsPressed: Map<Integer, Runnable>
        -actionsReleased: Map<Integer, Runnable>
        -ctrlActionsPressed: Map<Integer, Runnable>
        -ctrlActionsReleased: Map<Integer, Runnable>
        #setAction(int, Runnable, Runnable): void
        +keyTyped(KeyEvent): void
        +keyPressed(KeyEvent): void
        +keyReleased(KeyEvent): void
        #setCtrlAction(int, Runnable, Runnable): void
        +getActionsReleased(): Map<Integer, Runnable>
        +getCtrlActionsPressed(): Map<Integer, Runnable>
        +getCtrlActionsReleased(): Map<Integer, Runnable>
        +getActionsPressed(): Map<Integer, Runnable>
    }

    interface "<size:14>KeyListener\n<size:10>java.awt.event" as java.awt.event.KeyListener {
        {abstract} +keyTyped(KeyEvent): void
        {abstract} +keyPressed(KeyEvent): void
        {abstract} +keyReleased(KeyEvent): void
    }

    java.awt.event.KeyListener <|.. nz.ac.vuw.ecs.swen225.gp22.app.Keys

    center footer UMLDoclet 2.0.19, PlantUML 1.2022.8
@enduml

PlantUML version 1.2022.8(Sun Sep 25 22:00:33 NZDT 2022)
(APACHE source distribution)
Java Runtime: OpenJDK Runtime Environment
JVM: OpenJDK 64-Bit Server VM
Default Encoding: Cp1252
Language: en
Country: NZ
--></g></svg>