<?xml version="1.0" encoding="UTF-8" standalone="no"?><svg xmlns="http://www.w3.org/2000/svg" xmlns:xlink="http://www.w3.org/1999/xlink" contentStyleType="text/css" height="311px" preserveAspectRatio="none" style="width:216px;height:311px;background:#FFFFFF;" version="1.1" viewBox="0 0 216 311" width="216px" zoomAndPan="magnify"><defs/><g><!--MD5=[e6ac542fa4c112a9895a476b1e989402]
class nz.ac.vuw.ecs.swen225.gp22.app.Model--><a href="Model.html" target="_top" title="Model.html" xlink:actuate="onRequest" xlink:href="Model.html" xlink:show="new" xlink:title="Model.html" xlink:type="simple"><g id="elem_nz.ac.vuw.ecs.swen225.gp22.app.Model"><rect codeLine="5" fill="#F1F1F1" height="277.1094" id="nz.ac.vuw.ecs.swen225.gp22.app.Model" rx="2.5" ry="2.5" style="stroke:#181818;stroke-width:0.5;" width="195" x="7" y="7"/><ellipse cx="23.35" cy="27.0938" fill="#B4A7E5" rx="11" ry="11" style="stroke:#181818;stroke-width:1.0;"/><path d="M24.3031,23.7344 L24.3031,30.3906 L26.0219,30.3906 Q26.6313,30.3906 26.8969,30.625 Q27.1625,30.8594 27.1625,31.25 Q27.1625,31.625 26.8969,31.8594 Q26.6313,32.0938 26.0219,32.0938 L20.8813,32.0938 Q20.2719,32.0938 20.0063,31.8594 Q19.7406,31.625 19.7406,31.2344 Q19.7406,30.8594 20.0063,30.625 Q20.2719,30.3906 20.8813,30.3906 L22.6,30.3906 L22.6,23.7344 L20.8813,23.7344 Q20.2719,23.7344 20.0063,23.5 Q19.7406,23.2656 19.7406,22.875 Q19.7406,22.5 20.0063,22.2656 Q20.2719,22.0313 20.8813,22.0313 L26.0219,22.0313 Q26.6313,22.0313 26.8969,22.2656 Q27.1625,22.5 27.1625,22.875 Q27.1625,23.2656 26.8969,23.5 Q26.6313,23.7344 26.0219,23.7344 L24.3031,23.7344 Z " fill="#000000"/><text fill="#000000" font-family="sans-serif" font-size="14" font-style="italic" lengthAdjust="spacing" textLength="39" x="98.15" y="26.5332">Model</text><text fill="#000000" font-family="sans-serif" font-size="10" font-style="italic" lengthAdjust="spacing" textLength="160" x="37.65" y="39.9902">nz.ac.vuw.ecs.swen225.gp22.app</text><line style="stroke:#181818;stroke-width:0.5;" x1="8" x2="201" y1="47.1875" y2="47.1875"/><ellipse cx="18" cy="61.4922" fill="#84BE84" rx="3" ry="3" style="stroke:#038048;stroke-width:1.0;"/><text fill="#000000" font-family="sans-serif" font-size="14" font-style="italic" lengthAdjust="spacing" textLength="83" x="27" y="65.7207">timeLeft(): int</text><ellipse cx="18" cy="79.1016" fill="#84BE84" rx="3" ry="3" style="stroke:#038048;stroke-width:1.0;"/><text fill="#000000" font-family="sans-serif" font-size="14" font-style="italic" lengthAdjust="spacing" textLength="141" x="27" y="83.3301">decrementTime(): void</text><ellipse cx="18" cy="96.7109" fill="#84BE84" rx="3" ry="3" style="stroke:#038048;stroke-width:1.0;"/><text fill="#000000" font-family="sans-serif" font-size="14" font-style="italic" lengthAdjust="spacing" textLength="97" x="27" y="100.9395">player(): Player</text><ellipse cx="18" cy="114.3203" fill="#84BE84" rx="3" ry="3" style="stroke:#038048;stroke-width:1.0;"/><text fill="#000000" font-family="sans-serif" font-size="14" font-style="italic" lengthAdjust="spacing" textLength="136" x="27" y="118.5488">entities(): List&lt;Entity&gt;</text><ellipse cx="18" cy="131.9297" fill="#84BE84" rx="3" ry="3" style="stroke:#038048;stroke-width:1.0;"/><text fill="#000000" font-family="sans-serif" font-size="14" font-style="italic" lengthAdjust="spacing" textLength="169" x="27" y="136.1582">recorder(): GameRecorder</text><ellipse cx="18" cy="149.5391" fill="#84BE84" rx="3" ry="3" style="stroke:#038048;stroke-width:1.0;"/><text fill="#000000" font-family="sans-serif" font-size="14" font-style="italic" lengthAdjust="spacing" textLength="124" x="27" y="153.7676">remove(Entity): void</text><ellipse cx="18" cy="167.1484" fill="#84BE84" rx="3" ry="3" style="stroke:#038048;stroke-width:1.0;"/><text fill="#000000" font-family="sans-serif" font-size="14" font-style="italic" lengthAdjust="spacing" textLength="127" x="27" y="171.377">onGameOver(): void</text><ellipse cx="18" cy="184.7578" fill="#84BE84" rx="3" ry="3" style="stroke:#038048;stroke-width:1.0;"/><text fill="#000000" font-family="sans-serif" font-size="14" font-style="italic" lengthAdjust="spacing" textLength="120" x="27" y="188.9863">onNextLevel(): void</text><ellipse cx="18" cy="202.3672" fill="#84BE84" rx="3" ry="3" style="stroke:#038048;stroke-width:1.0;"/><text fill="#000000" font-family="sans-serif" font-size="14" font-style="italic" lengthAdjust="spacing" textLength="137" x="27" y="206.5957">totalTreasures(): long</text><ellipse cx="18" cy="219.9766" fill="#84BE84" rx="3" ry="3" style="stroke:#038048;stroke-width:1.0;"/><text fill="#000000" font-family="sans-serif" font-size="14" font-style="italic" lengthAdjust="spacing" textLength="111" x="27" y="224.2051">levelNumber(): int</text><ellipse cx="18" cy="237.5859" fill="#84BE84" rx="3" ry="3" style="stroke:#038048;stroke-width:1.0;"/><text fill="#000000" font-family="sans-serif" font-size="14" lengthAdjust="spacing" textLength="129" x="27" y="241.8145">treasuresLeft(): long</text><ellipse cx="18" cy="255.1953" fill="#84BE84" rx="3" ry="3" style="stroke:#038048;stroke-width:1.0;"/><text fill="#000000" font-family="sans-serif" font-size="14" lengthAdjust="spacing" textLength="112" x="27" y="259.4238">saveGame(): void</text><ellipse cx="18" cy="272.8047" fill="#84BE84" rx="3" ry="3" style="stroke:#038048;stroke-width:1.0;"/><text fill="#000000" font-family="sans-serif" font-size="14" lengthAdjust="spacing" textLength="71" x="27" y="277.0332">ping(): void</text></g></a><rect fill="none" height="12.5781" style="stroke:none;stroke-width:1.0;" width="184" x="12" y="291.1094"/><text fill="#888888" font-family="sans-serif" font-size="10" lengthAdjust="spacing" textLength="184" x="12" y="301.4902">UMLDoclet 2.0.19, PlantUML 1.2022.8</text><!--MD5=[2a0355d94c90cf18010355aa32dd9be3]
@startuml
    set namespaceSeparator none
    hide empty fields
    hide empty methods

    interface "<size:14>Model\n<size:10>nz.ac.vuw.ecs.swen225.gp22.app" as nz.ac.vuw.ecs.swen225.gp22.app.Model [[Model.html]] {
        {abstract} +timeLeft(): int
        {abstract} +decrementTime(): void
        {abstract} +player(): Player
        {abstract} +entities(): List<Entity>
        {abstract} +recorder(): GameRecorder
        {abstract} +remove(Entity): void
        {abstract} +onGameOver(): void
        {abstract} +onNextLevel(): void
        {abstract} +totalTreasures(): long
        {abstract} +levelNumber(): int
        +treasuresLeft(): long
        +saveGame(): void
        +ping(): void
    }

    center footer UMLDoclet 2.0.19, PlantUML 1.2022.8
@enduml

PlantUML version 1.2022.8(Sun Sep 25 22:00:33 NZDT 2022)
(APACHE source distribution)
Java Runtime: OpenJDK Runtime Environment
JVM: OpenJDK 64-Bit Server VM
Default Encoding: Cp1252
Language: en
Country: NZ
--></g></svg>