<?xml version="1.0" encoding="UTF-8" standalone="no"?><svg xmlns="http://www.w3.org/2000/svg" xmlns:xlink="http://www.w3.org/1999/xlink" contentStyleType="text/css" height="401px" preserveAspectRatio="none" style="width:416px;height:401px;background:#FFFFFF;" version="1.1" viewBox="0 0 416 401" width="416px" zoomAndPan="magnify"><defs/><g><!--MD5=[d0b1d8d3dec61a0fbfd2100f853b0bd1]
class nz.ac.vuw.ecs.swen225.gp22.app.Phase--><a href="Phase.html" target="_top" title="Phase.html" xlink:actuate="onRequest" xlink:href="Phase.html" xlink:show="new" xlink:title="Phase.html" xlink:type="simple"><g id="elem_nz.ac.vuw.ecs.swen225.gp22.app.Phase"><rect codeLine="5" fill="#F1F1F1" height="267.5" id="nz.ac.vuw.ecs.swen225.gp22.app.Phase" rx="2.5" ry="2.5" style="stroke:#181818;stroke-width:0.5;" width="400" x="9" y="107"/><ellipse cx="125.75" cy="127.0938" fill="#ADD1B2" rx="11" ry="11" style="stroke:#181818;stroke-width:1.0;"/><path d="M128.5156,122.9688 Q128.6719,122.75 128.8594,122.6406 Q129.0469,122.5313 129.2656,122.5313 Q129.6406,122.5313 129.875,122.7969 Q130.1094,123.0469 130.1094,123.6563 L130.1094,125.1094 Q130.1094,125.7188 129.875,125.9844 Q129.6406,126.25 129.2656,126.25 Q128.9219,126.25 128.7188,126.0469 Q128.5156,125.8594 128.4063,125.3438 Q128.3594,124.9844 128.1719,124.7969 Q127.8438,124.4219 127.2344,124.2031 Q126.625,123.9844 126,123.9844 Q125.2344,123.9844 124.5938,124.3125 Q123.9688,124.6406 123.4688,125.3906 Q122.9844,126.1406 122.9844,127.1719 L122.9844,128.2656 Q122.9844,129.5 123.875,130.3281 Q124.7656,131.1406 126.3594,131.1406 Q127.2969,131.1406 127.9531,130.8906 Q128.3438,130.7344 128.7656,130.2969 Q129.0313,130.0313 129.1719,129.9531 Q129.3281,129.875 129.5313,129.875 Q129.8594,129.875 130.1094,130.1406 Q130.375,130.3906 130.375,130.7344 Q130.375,131.0781 130.0313,131.4844 Q129.5313,132.0625 128.7344,132.3906 Q127.6563,132.8438 126.3594,132.8438 Q124.8438,132.8438 123.6406,132.2188 Q122.6563,131.7188 121.9688,130.6563 Q121.2813,129.5781 121.2813,128.2969 L121.2813,127.1406 Q121.2813,125.8125 121.8906,124.6719 Q122.5156,123.5156 123.6094,122.9063 Q124.7031,122.2813 125.9375,122.2813 Q126.6719,122.2813 127.3125,122.4531 Q127.9688,122.6094 128.5156,122.9688 Z " fill="#000000"/><text fill="#000000" font-family="sans-serif" font-size="14" lengthAdjust="spacing" textLength="40" x="205.25" y="126.5332">Phase</text><text fill="#000000" font-family="sans-serif" font-size="10" lengthAdjust="spacing" textLength="158" x="146.25" y="139.9902">nz.ac.vuw.ecs.swen225.gp22.app</text><line style="stroke:#181818;stroke-width:0.5;" x1="10" x2="408" y1="147.1875" y2="147.1875"/><rect fill="none" height="6" style="stroke:#C82930;stroke-width:1.0;" width="6" x="17" y="158.4922"/><text fill="#000000" font-family="sans-serif" font-size="14" lengthAdjust="spacing" textLength="84" x="29" y="165.7207">model: Model</text><rect fill="none" height="6" style="stroke:#C82930;stroke-width:1.0;" width="6" x="17" y="176.1016"/><text fill="#000000" font-family="sans-serif" font-size="14" lengthAdjust="spacing" textLength="169" x="29" y="183.3301">controller: PlayerController</text><rect fill="none" height="6" style="stroke:#C82930;stroke-width:1.0;" width="6" x="17" y="193.7109"/><text fill="#000000" font-family="sans-serif" font-size="14" lengthAdjust="spacing" textLength="123" x="29" y="200.9395">renderer: Renderer</text><line style="stroke:#181818;stroke-width:0.5;" x1="10" x2="408" y1="208.0156" y2="208.0156"/><ellipse cx="20" cy="222.3203" fill="#84BE84" rx="3" ry="3" style="stroke:#038048;stroke-width:1.0;"/><text fill="#000000" font-family="sans-serif" font-size="14" lengthAdjust="spacing" textLength="266" x="29" y="226.5488">Phase(Model, PlayerController, Renderer)</text><polygon fill="#4177AF" points="20,235.9297,16,241.9297,24,241.9297" style="stroke:#1963A0;stroke-width:1.0;"/><text fill="#000000" font-family="sans-serif" font-size="14" lengthAdjust="spacing" text-decoration="underline" textLength="374" x="29" y="244.1582">newLevel(Runnable, Runnable, List&lt;Entity&gt;, int, int): Phase</text><polygon fill="#4177AF" points="20,253.5391,16,259.5391,24,259.5391" style="stroke:#1963A0;stroke-width:1.0;"/><text fill="#000000" font-family="sans-serif" font-size="14" lengthAdjust="spacing" text-decoration="underline" textLength="225" x="29" y="261.7676">level1(Runnable, Runnable): Phase</text><polygon fill="#4177AF" points="20,271.1484,16,277.1484,24,277.1484" style="stroke:#1963A0;stroke-width:1.0;"/><text fill="#000000" font-family="sans-serif" font-size="14" lengthAdjust="spacing" text-decoration="underline" textLength="225" x="29" y="279.377">level2(Runnable, Runnable): Phase</text><polygon fill="#4177AF" points="20,288.7578,16,294.7578,24,294.7578" style="stroke:#1963A0;stroke-width:1.0;"/><text fill="#000000" font-family="sans-serif" font-size="14" lengthAdjust="spacing" text-decoration="underline" textLength="294" x="29" y="296.9863">loadLevel(String, Runnable, Runnable): Phase</text><polygon fill="#4177AF" points="20,306.3672,16,312.3672,24,312.3672" style="stroke:#1963A0;stroke-width:1.0;"/><text fill="#000000" font-family="sans-serif" font-size="14" lengthAdjust="spacing" text-decoration="underline" textLength="354" x="29" y="314.5957">loadLevel(Element, int, int, Runnable, Runnable): Phase</text><ellipse cx="20" cy="327.9766" fill="#84BE84" rx="3" ry="3" style="stroke:#038048;stroke-width:1.0;"/><text fill="#000000" font-family="sans-serif" font-size="14" lengthAdjust="spacing" textLength="94" x="29" y="332.2051">model(): Model</text><ellipse cx="20" cy="345.5859" fill="#84BE84" rx="3" ry="3" style="stroke:#038048;stroke-width:1.0;"/><text fill="#000000" font-family="sans-serif" font-size="14" lengthAdjust="spacing" textLength="179" x="29" y="349.8145">controller(): PlayerController</text><ellipse cx="20" cy="363.1953" fill="#84BE84" rx="3" ry="3" style="stroke:#038048;stroke-width:1.0;"/><text fill="#000000" font-family="sans-serif" font-size="14" lengthAdjust="spacing" textLength="133" x="29" y="367.4238">renderer(): Renderer</text></g></a><!--MD5=[aeced6b90a5f9cea7e9b0d4e8b5a9b7c]
class java.lang.Record--><g id="elem_java.lang.Record"><rect codeLine="20" fill="#F1F1F1" height="40.1875" id="java.lang.Record" rx="2.5" ry="2.5" style="stroke:#181818;stroke-width:0.5;" width="78" x="170" y="7"/><ellipse cx="185" cy="27.0938" fill="#A9DCDF" rx="11" ry="11" style="stroke:#181818;stroke-width:1.0;"/><path d="M187.1875,28.8594 L183.0469,28.8594 L182.625,29.8906 L183.0469,29.8906 Q183.6563,29.8906 183.9219,30.125 Q184.1875,30.3594 184.1875,30.75 Q184.1875,31.125 183.9219,31.3594 Q183.6563,31.5938 183.0469,31.5938 L180.75,31.5938 Q180.1406,31.5938 179.8906,31.3594 Q179.625,31.125 179.625,30.7344 Q179.625,30.3594 179.9063,30.125 Q180.1719,29.875 180.7969,29.8906 L183.4688,23.2344 L182.3594,23.2344 Q181.75,23.2344 181.4844,23 Q181.2188,22.7656 181.2188,22.375 Q181.2188,22 181.4844,21.7656 Q181.75,21.5313 182.3594,21.5313 L186.0313,21.5313 L189.4219,29.8906 Q190.0156,29.8906 190.2031,30.0313 Q190.5938,30.2969 190.5938,30.75 Q190.5938,31.125 190.3281,31.3594 Q190.0781,31.5938 189.4688,31.5938 L187.1719,31.5938 Q186.5625,31.5938 186.2969,31.3594 Q186.0313,31.125 186.0313,30.7344 Q186.0313,30.3594 186.2969,30.125 Q186.5625,29.8906 187.1719,29.8906 L187.5938,29.8906 L187.1875,28.8594 Z M186.4688,27.1563 L185.1094,23.7813 L183.7344,27.1563 L186.4688,27.1563 Z " fill="#000000"/><text fill="#000000" font-family="sans-serif" font-size="14" font-style="italic" lengthAdjust="spacing" textLength="46" x="199" y="26.5332">Record</text><text fill="#000000" font-family="sans-serif" font-size="10" font-style="italic" lengthAdjust="spacing" textLength="43" x="200.5" y="39.9902">java.lang</text></g><!--MD5=[9e89ba0a17210aa2e9b3ec19694357bd]
reverse link java.lang.Record to nz.ac.vuw.ecs.swen225.gp22.app.Phase--><g id="link_java.lang.Record_nz.ac.vuw.ecs.swen225.gp22.app.Phase"><path codeLine="22" d="M209,67.58 C209,79.18 209,92.55 209,106.62 " fill="none" id="java.lang.Record-backto-nz.ac.vuw.ecs.swen225.gp22.app.Phase" style="stroke:#181818;stroke-width:1.0;"/><polygon fill="none" points="202,67.19,209,47.19,216,67.19,202,67.19" style="stroke:#181818;stroke-width:1.0;"/></g><rect fill="none" height="12.5781" style="stroke:none;stroke-width:1.0;" width="184" x="109" y="380.5"/><text fill="#888888" font-family="sans-serif" font-size="10" lengthAdjust="spacing" textLength="184" x="109" y="390.8809">UMLDoclet 2.0.19, PlantUML 1.2022.8</text><!--MD5=[7646febb657237bb8532530861df1f8c]
@startuml
    set namespaceSeparator none
    hide empty fields
    hide empty methods

    class "<size:14>Phase\n<size:10>nz.ac.vuw.ecs.swen225.gp22.app" as nz.ac.vuw.ecs.swen225.gp22.app.Phase [[Phase.html]] {
        -model: Model
        -controller: PlayerController
        -renderer: Renderer
        +Phase(Model, PlayerController, Renderer)
        {static} ~newLevel(Runnable, Runnable, List<Entity>, int, int): Phase
        {static} ~level1(Runnable, Runnable): Phase
        {static} ~level2(Runnable, Runnable): Phase
        {static} ~loadLevel(String, Runnable, Runnable): Phase
        {static} ~loadLevel(Element, int, int, Runnable, Runnable): Phase
        +model(): Model
        +controller(): PlayerController
        +renderer(): Renderer
    }

    abstract class "<size:14>Record\n<size:10>java.lang" as java.lang.Record

    java.lang.Record <|- - nz.ac.vuw.ecs.swen225.gp22.app.Phase

    center footer UMLDoclet 2.0.19, PlantUML 1.2022.8
@enduml

PlantUML version 1.2022.8(Sun Sep 25 22:00:33 NZDT 2022)
(APACHE source distribution)
Java Runtime: OpenJDK Runtime Environment
JVM: OpenJDK 64-Bit Server VM
Default Encoding: Cp1252
Language: en
Country: NZ
--></g></svg>