<?xml version="1.0" encoding="UTF-8" standalone="no"?><svg xmlns="http://www.w3.org/2000/svg" xmlns:xlink="http://www.w3.org/1999/xlink" contentStyleType="text/css" height="365px" preserveAspectRatio="none" style="width:262px;height:365px;background:#FFFFFF;" version="1.1" viewBox="0 0 262 365" width="262px" zoomAndPan="magnify"><defs/><g><!--MD5=[9cbe317eb015685d7ce299a5676f7737]
class nz.ac.vuw.ecs.swen225.gp22.app.PlayerController--><a href="PlayerController.html" target="_top" title="PlayerController.html" xlink:actuate="onRequest" xlink:href="PlayerController.html" xlink:show="new" xlink:title="PlayerController.html" xlink:type="simple"><g id="elem_nz.ac.vuw.ecs.swen225.gp22.app.PlayerController"><rect codeLine="5" fill="#F1F1F1" height="232.2813" id="nz.ac.vuw.ecs.swen225.gp22.app.PlayerController" rx="2.5" ry="2.5" style="stroke:#181818;stroke-width:0.5;" width="246" x="9" y="107"/><ellipse cx="49.2" cy="127.0938" fill="#ADD1B2" rx="11" ry="11" style="stroke:#181818;stroke-width:1.0;"/><path d="M51.9656,122.9688 Q52.1219,122.75 52.3094,122.6406 Q52.4969,122.5313 52.7156,122.5313 Q53.0906,122.5313 53.325,122.7969 Q53.5594,123.0469 53.5594,123.6563 L53.5594,125.1094 Q53.5594,125.7188 53.325,125.9844 Q53.0906,126.25 52.7156,126.25 Q52.3719,126.25 52.1688,126.0469 Q51.9656,125.8594 51.8563,125.3438 Q51.8094,124.9844 51.6219,124.7969 Q51.2938,124.4219 50.6844,124.2031 Q50.075,123.9844 49.45,123.9844 Q48.6844,123.9844 48.0438,124.3125 Q47.4188,124.6406 46.9188,125.3906 Q46.4344,126.1406 46.4344,127.1719 L46.4344,128.2656 Q46.4344,129.5 47.325,130.3281 Q48.2156,131.1406 49.8094,131.1406 Q50.7469,131.1406 51.4031,130.8906 Q51.7938,130.7344 52.2156,130.2969 Q52.4813,130.0313 52.6219,129.9531 Q52.7781,129.875 52.9813,129.875 Q53.3094,129.875 53.5594,130.1406 Q53.825,130.3906 53.825,130.7344 Q53.825,131.0781 53.4813,131.4844 Q52.9813,132.0625 52.1844,132.3906 Q51.1063,132.8438 49.8094,132.8438 Q48.2938,132.8438 47.0906,132.2188 Q46.1063,131.7188 45.4188,130.6563 Q44.7313,129.5781 44.7313,128.2969 L44.7313,127.1406 Q44.7313,125.8125 45.3406,124.6719 Q45.9656,123.5156 47.0594,122.9063 Q48.1531,122.2813 49.3875,122.2813 Q50.1219,122.2813 50.7625,122.4531 Q51.4188,122.6094 51.9656,122.9688 Z " fill="#000000"/><text fill="#000000" font-family="sans-serif" font-size="14" lengthAdjust="spacing" textLength="102" x="96.8" y="126.5332">PlayerController</text><text fill="#000000" font-family="sans-serif" font-size="10" lengthAdjust="spacing" textLength="158" x="68.8" y="139.9902">nz.ac.vuw.ecs.swen225.gp22.app</text><line style="stroke:#181818;stroke-width:0.5;" x1="10" x2="254" y1="147.1875" y2="147.1875"/><rect fill="none" height="6" style="stroke:#C82930;stroke-width:1.0;" width="6" x="17" y="158.4922"/><text fill="#000000" font-family="sans-serif" font-size="14" lengthAdjust="spacing" textLength="220" x="29" y="165.7207">keysHeld: LinkedHashSet&lt;Integer&gt;</text><rect fill="none" height="6" style="stroke:#C82930;stroke-width:1.0;" width="6" x="17" y="176.1016"/><text fill="#000000" font-family="sans-serif" font-size="14" lengthAdjust="spacing" textLength="87" x="29" y="183.3301">player: Player</text><line style="stroke:#181818;stroke-width:0.5;" x1="10" x2="254" y1="190.4063" y2="190.4063"/><polygon fill="#FFFF44" points="20,199.7109,24,203.7109,20,207.7109,16,203.7109" style="stroke:#B38D22;stroke-width:1.0;"/><text fill="#000000" font-family="sans-serif" font-size="14" lengthAdjust="spacing" textLength="152" x="29" y="208.9395">PlayerController(Player)</text><ellipse cx="20" cy="222.3203" fill="#84BE84" rx="3" ry="3" style="stroke:#038048;stroke-width:1.0;"/><text fill="#000000" font-family="sans-serif" font-size="14" lengthAdjust="spacing" textLength="83" x="29" y="226.5488">pause(): void</text><ellipse cx="20" cy="239.9297" fill="#84BE84" rx="3" ry="3" style="stroke:#038048;stroke-width:1.0;"/><text fill="#000000" font-family="sans-serif" font-size="14" lengthAdjust="spacing" textLength="100" x="29" y="244.1582">unPause(): void</text><ellipse cx="20" cy="257.5391" fill="#84BE84" rx="3" ry="3" style="stroke:#038048;stroke-width:1.0;"/><text fill="#000000" font-family="sans-serif" font-size="14" lengthAdjust="spacing" textLength="95" x="29" y="261.7676">moveUp(): void</text><ellipse cx="20" cy="275.1484" fill="#84BE84" rx="3" ry="3" style="stroke:#038048;stroke-width:1.0;"/><text fill="#000000" font-family="sans-serif" font-size="14" lengthAdjust="spacing" textLength="113" x="29" y="279.377">moveDown(): void</text><ellipse cx="20" cy="292.7578" fill="#84BE84" rx="3" ry="3" style="stroke:#038048;stroke-width:1.0;"/><text fill="#000000" font-family="sans-serif" font-size="14" lengthAdjust="spacing" textLength="102" x="29" y="296.9863">moveLeft(): void</text><ellipse cx="20" cy="310.3672" fill="#84BE84" rx="3" ry="3" style="stroke:#038048;stroke-width:1.0;"/><text fill="#000000" font-family="sans-serif" font-size="14" lengthAdjust="spacing" textLength="111" x="29" y="314.5957">moveRight(): void</text><ellipse cx="20" cy="327.9766" fill="#84BE84" rx="3" ry="3" style="stroke:#038048;stroke-width:1.0;"/><text fill="#000000" font-family="sans-serif" font-size="14" lengthAdjust="spacing" textLength="162" x="29" y="332.2051">releaseDirection(int): void</text></g></a><!--MD5=[85ff4836a613686de580006803ddcc35]
class nz.ac.vuw.ecs.swen225.gp22.app.Keys--><a href="Keys.html" target="_top" title="Keys.html" xlink:actuate="onRequest" xlink:href="Keys.html" xlink:show="new" xlink:title="Keys.html" xlink:type="simple"><g id="elem_nz.ac.vuw.ecs.swen225.gp22.app.Keys"><rect codeLine="18" fill="#F1F1F1" height="40.1875" id="nz.ac.vuw.ecs.swen225.gp22.app.Keys" rx="2.5" ry="2.5" style="stroke:#181818;stroke-width:0.5;" width="190" x="37" y="7"/><ellipse cx="52" cy="27.0938" fill="#ADD1B2" rx="11" ry="11" style="stroke:#181818;stroke-width:1.0;"/><path d="M54.7656,22.9688 Q54.9219,22.75 55.1094,22.6406 Q55.2969,22.5313 55.5156,22.5313 Q55.8906,22.5313 56.125,22.7969 Q56.3594,23.0469 56.3594,23.6563 L56.3594,25.1094 Q56.3594,25.7188 56.125,25.9844 Q55.8906,26.25 55.5156,26.25 Q55.1719,26.25 54.9688,26.0469 Q54.7656,25.8594 54.6563,25.3438 Q54.6094,24.9844 54.4219,24.7969 Q54.0938,24.4219 53.4844,24.2031 Q52.875,23.9844 52.25,23.9844 Q51.4844,23.9844 50.8438,24.3125 Q50.2188,24.6406 49.7188,25.3906 Q49.2344,26.1406 49.2344,27.1719 L49.2344,28.2656 Q49.2344,29.5 50.125,30.3281 Q51.0156,31.1406 52.6094,31.1406 Q53.5469,31.1406 54.2031,30.8906 Q54.5938,30.7344 55.0156,30.2969 Q55.2813,30.0313 55.4219,29.9531 Q55.5781,29.875 55.7813,29.875 Q56.1094,29.875 56.3594,30.1406 Q56.625,30.3906 56.625,30.7344 Q56.625,31.0781 56.2813,31.4844 Q55.7813,32.0625 54.9844,32.3906 Q53.9063,32.8438 52.6094,32.8438 Q51.0938,32.8438 49.8906,32.2188 Q48.9063,31.7188 48.2188,30.6563 Q47.5313,29.5781 47.5313,28.2969 L47.5313,27.1406 Q47.5313,25.8125 48.1406,24.6719 Q48.7656,23.5156 49.8594,22.9063 Q50.9531,22.2813 52.1875,22.2813 Q52.9219,22.2813 53.5625,22.4531 Q54.2188,22.6094 54.7656,22.9688 Z " fill="#000000"/><text fill="#000000" font-family="sans-serif" font-size="14" lengthAdjust="spacing" textLength="31" x="129.5" y="26.5332">Keys</text><text fill="#000000" font-family="sans-serif" font-size="10" lengthAdjust="spacing" textLength="158" x="66" y="39.9902">nz.ac.vuw.ecs.swen225.gp22.app</text></g></a><!--MD5=[ccba440e93311c39eaa12c19285dcbf8]
reverse link nz.ac.vuw.ecs.swen225.gp22.app.Keys to nz.ac.vuw.ecs.swen225.gp22.app.PlayerController--><g id="link_nz.ac.vuw.ecs.swen225.gp22.app.Keys_nz.ac.vuw.ecs.swen225.gp22.app.PlayerController"><path codeLine="20" d="M132,67.45 C132,79.23 132,92.78 132,106.86 " fill="none" id="nz.ac.vuw.ecs.swen225.gp22.app.Keys-backto-nz.ac.vuw.ecs.swen225.gp22.app.PlayerController" style="stroke:#181818;stroke-width:1.0;"/><polygon fill="none" points="125,67.31,132,47.31,139,67.31,125,67.31" style="stroke:#181818;stroke-width:1.0;"/></g><rect fill="none" height="12.5781" style="stroke:none;stroke-width:1.0;" width="184" x="32" y="345.2813"/><text fill="#888888" font-family="sans-serif" font-size="10" lengthAdjust="spacing" textLength="184" x="32" y="355.6621">UMLDoclet 2.0.19, PlantUML 1.2022.8</text><!--MD5=[27b639ce45be2968f95149e378977a59]
@startuml
    set namespaceSeparator none
    hide empty fields
    hide empty methods

    class "<size:14>PlayerController\n<size:10>nz.ac.vuw.ecs.swen225.gp22.app" as nz.ac.vuw.ecs.swen225.gp22.app.PlayerController [[PlayerController.html]] {
        -keysHeld: LinkedHashSet<Integer>
        -player: Player
        #PlayerController(Player)
        +pause(): void
        +unPause(): void
        +moveUp(): void
        +moveDown(): void
        +moveLeft(): void
        +moveRight(): void
        +releaseDirection(int): void
    }

    class "<size:14>Keys\n<size:10>nz.ac.vuw.ecs.swen225.gp22.app" as nz.ac.vuw.ecs.swen225.gp22.app.Keys [[Keys.html]]

    nz.ac.vuw.ecs.swen225.gp22.app.Keys <|- - nz.ac.vuw.ecs.swen225.gp22.app.PlayerController

    center footer UMLDoclet 2.0.19, PlantUML 1.2022.8
@enduml

PlantUML version 1.2022.8(Sun Sep 25 22:00:33 NZDT 2022)
(APACHE source distribution)
Java Runtime: OpenJDK Runtime Environment
JVM: OpenJDK 64-Bit Server VM
Default Encoding: Cp1252
Language: en
Country: NZ
--></g></svg>