<?xml version="1.0" encoding="UTF-8" standalone="no"?><svg xmlns="http://www.w3.org/2000/svg" xmlns:xlink="http://www.w3.org/1999/xlink" contentStyleType="text/css" height="514px" preserveAspectRatio="none" style="width:260px;height:514px;background:#FFFFFF;" version="1.1" viewBox="0 0 260 514" width="260px" zoomAndPan="magnify"><defs/><g><!--MD5=[fa1d4a2889fd770768af524d2efe71c0]
class nz.ac.vuw.ecs.swen225.gp22.recorder.GameRecorder--><a href="GameRecorder.html" target="_top" title="GameRecorder.html" xlink:actuate="onRequest" xlink:href="GameRecorder.html" xlink:show="new" xlink:title="GameRecorder.html" xlink:type="simple"><g id="elem_nz.ac.vuw.ecs.swen225.gp22.recorder.GameRecorder"><rect codeLine="5" fill="#F1F1F1" height="320.3281" id="nz.ac.vuw.ecs.swen225.gp22.recorder.GameRecorder" rx="2.5" ry="2.5" style="stroke:#181818;stroke-width:0.5;" width="246" x="7" y="168"/><ellipse cx="37.75" cy="188.0938" fill="#ADD1B2" rx="11" ry="11" style="stroke:#181818;stroke-width:1.0;"/><path d="M40.5156,183.9688 Q40.6719,183.75 40.8594,183.6406 Q41.0469,183.5313 41.2656,183.5313 Q41.6406,183.5313 41.875,183.7969 Q42.1094,184.0469 42.1094,184.6563 L42.1094,186.1094 Q42.1094,186.7188 41.875,186.9844 Q41.6406,187.25 41.2656,187.25 Q40.9219,187.25 40.7188,187.0469 Q40.5156,186.8594 40.4063,186.3438 Q40.3594,185.9844 40.1719,185.7969 Q39.8438,185.4219 39.2344,185.2031 Q38.625,184.9844 38,184.9844 Q37.2344,184.9844 36.5938,185.3125 Q35.9688,185.6406 35.4688,186.3906 Q34.9844,187.1406 34.9844,188.1719 L34.9844,189.2656 Q34.9844,190.5 35.875,191.3281 Q36.7656,192.1406 38.3594,192.1406 Q39.2969,192.1406 39.9531,191.8906 Q40.3438,191.7344 40.7656,191.2969 Q41.0313,191.0313 41.1719,190.9531 Q41.3281,190.875 41.5313,190.875 Q41.8594,190.875 42.1094,191.1406 Q42.375,191.3906 42.375,191.7344 Q42.375,192.0781 42.0313,192.4844 Q41.5313,193.0625 40.7344,193.3906 Q39.6563,193.8438 38.3594,193.8438 Q36.8438,193.8438 35.6406,193.2188 Q34.6563,192.7188 33.9688,191.6563 Q33.2813,190.5781 33.2813,189.2969 L33.2813,188.1406 Q33.2813,186.8125 33.8906,185.6719 Q34.5156,184.5156 35.6094,183.9063 Q36.7031,183.2813 37.9375,183.2813 Q38.6719,183.2813 39.3125,183.4531 Q39.9688,183.6094 40.5156,183.9688 Z " fill="#000000"/><text fill="#000000" font-family="sans-serif" font-size="14" lengthAdjust="spacing" textLength="97" x="96.25" y="187.5332">GameRecorder</text><text fill="#000000" font-family="sans-serif" font-size="10" lengthAdjust="spacing" textLength="179" x="55.25" y="200.9902">nz.ac.vuw.ecs.swen225.gp22.recorder</text><line style="stroke:#181818;stroke-width:0.5;" x1="8" x2="252" y1="208.1875" y2="208.1875"/><rect fill="none" height="6" style="stroke:#C82930;stroke-width:1.0;" width="6" x="15" y="219.4922"/><text fill="#000000" font-family="sans-serif" font-size="14" lengthAdjust="spacing" textLength="134" x="27" y="226.7207">isRecording: boolean</text><rect fill="none" height="6" style="stroke:#C82930;stroke-width:1.0;" width="6" x="15" y="237.1016"/><text fill="#000000" font-family="sans-serif" font-size="14" lengthAdjust="spacing" textLength="107" x="27" y="244.3301">replayFile: String</text><rect fill="none" height="6" style="stroke:#C82930;stroke-width:1.0;" width="6" x="15" y="254.7109"/><text fill="#000000" font-family="sans-serif" font-size="14" lengthAdjust="spacing" textLength="52" x="27" y="261.9395">level: int</text><rect fill="none" height="6" style="stroke:#C82930;stroke-width:1.0;" width="6" x="15" y="272.3203"/><text fill="#000000" font-family="sans-serif" font-size="14" lengthAdjust="spacing" textLength="193" x="27" y="279.5488">movementHistory: List&lt;Action&gt;</text><rect fill="none" height="6" style="stroke:#C82930;stroke-width:1.0;" width="6" x="15" y="289.9297"/><text fill="#000000" font-family="sans-serif" font-size="14" lengthAdjust="spacing" textLength="69" x="27" y="297.1582">prevDir: int</text><rect fill="none" height="6" style="stroke:#C82930;stroke-width:1.0;" width="6" x="15" y="307.5391"/><text fill="#000000" font-family="sans-serif" font-size="14" lengthAdjust="spacing" textLength="59" x="27" y="314.7676">frame: int</text><rect fill="none" height="6" style="stroke:#C82930;stroke-width:1.0;" width="6" x="15" y="325.1484"/><text fill="#000000" font-family="sans-serif" font-size="14" lengthAdjust="spacing" textLength="92" x="27" y="332.377">startFrame: int</text><rect fill="none" height="6" style="stroke:#C82930;stroke-width:1.0;" width="6" x="15" y="342.7578"/><text fill="#000000" font-family="sans-serif" font-size="14" lengthAdjust="spacing" textLength="88" x="27" y="349.9863">endFrame: int</text><rect fill="none" height="6" style="stroke:#C82930;stroke-width:1.0;" width="6" x="15" y="360.3672"/><text fill="#000000" font-family="sans-serif" font-size="14" lengthAdjust="spacing" textLength="73" x="27" y="367.5957">timeLeft: int</text><rect fill="none" height="6" style="stroke:#C82930;stroke-width:1.0;" width="6" x="15" y="377.9766"/><text fill="#000000" font-family="sans-serif" font-size="14" lengthAdjust="spacing" textLength="84" x="27" y="385.2051">tiles: Element</text><line style="stroke:#181818;stroke-width:0.5;" x1="8" x2="252" y1="392.2813" y2="392.2813"/><ellipse cx="18" cy="406.5859" fill="#84BE84" rx="3" ry="3" style="stroke:#038048;stroke-width:1.0;"/><text fill="#000000" font-family="sans-serif" font-size="14" lengthAdjust="spacing" textLength="220" x="27" y="410.8145">startRecording(Model, String): void</text><ellipse cx="18" cy="424.1953" fill="#84BE84" rx="3" ry="3" style="stroke:#038048;stroke-width:1.0;"/><text fill="#000000" font-family="sans-serif" font-size="14" lengthAdjust="spacing" textLength="133" x="27" y="428.4238">endRecording(): void</text><ellipse cx="18" cy="441.8047" fill="#84BE84" rx="3" ry="3" style="stroke:#038048;stroke-width:1.0;"/><text fill="#000000" font-family="sans-serif" font-size="14" lengthAdjust="spacing" textLength="145" x="27" y="446.0332">ping(int, boolean): void</text><rect fill="#F24D5C" height="6" style="stroke:#C82930;stroke-width:1.0;" width="6" x="15" y="456.4141"/><text fill="#000000" font-family="sans-serif" font-size="14" lengthAdjust="spacing" textLength="179" x="27" y="463.6426">setRecording(boolean): void</text><rect fill="#F24D5C" height="6" style="stroke:#C82930;stroke-width:1.0;" width="6" x="15" y="474.0234"/><text fill="#000000" font-family="sans-serif" font-size="14" lengthAdjust="spacing" textLength="139" x="27" y="481.252">saveRecording(): void</text></g></a><!--MD5=[05dc728495d45c37ddd07a23bda3fd1e]
class nz.ac.vuw.ecs.swen225.gp22.recorder.Recorder--><a href="Recorder.html" target="_top" title="Recorder.html" xlink:actuate="onRequest" xlink:href="Recorder.html" xlink:show="new" xlink:title="Recorder.html" xlink:type="simple"><g id="elem_nz.ac.vuw.ecs.swen225.gp22.recorder.Recorder"><rect codeLine="23" fill="#F1F1F1" height="101.0156" id="nz.ac.vuw.ecs.swen225.gp22.recorder.Recorder" rx="2.5" ry="2.5" style="stroke:#181818;stroke-width:0.5;" width="246" x="7" y="7"/><ellipse cx="37.3" cy="27.0938" fill="#B4A7E5" rx="11" ry="11" style="stroke:#181818;stroke-width:1.0;"/><path d="M38.2531,23.7344 L38.2531,30.3906 L39.9719,30.3906 Q40.5813,30.3906 40.8469,30.625 Q41.1125,30.8594 41.1125,31.25 Q41.1125,31.625 40.8469,31.8594 Q40.5813,32.0938 39.9719,32.0938 L34.8313,32.0938 Q34.2219,32.0938 33.9563,31.8594 Q33.6906,31.625 33.6906,31.2344 Q33.6906,30.8594 33.9563,30.625 Q34.2219,30.3906 34.8313,30.3906 L36.55,30.3906 L36.55,23.7344 L34.8313,23.7344 Q34.2219,23.7344 33.9563,23.5 Q33.6906,23.2656 33.6906,22.875 Q33.6906,22.5 33.9563,22.2656 Q34.2219,22.0313 34.8313,22.0313 L39.9719,22.0313 Q40.5813,22.0313 40.8469,22.2656 Q41.1125,22.5 41.1125,22.875 Q41.1125,23.2656 40.8469,23.5 Q40.5813,23.7344 39.9719,23.7344 L38.2531,23.7344 Z " fill="#000000"/><text fill="#000000" font-family="sans-serif" font-size="14" font-style="italic" lengthAdjust="spacing" textLength="59" x="115.2" y="26.5332">Recorder</text><text fill="#000000" font-family="sans-serif" font-size="10" font-style="italic" lengthAdjust="spacing" textLength="180" x="54.7" y="39.9902">nz.ac.vuw.ecs.swen225.gp22.recorder</text><line style="stroke:#181818;stroke-width:0.5;" x1="8" x2="252" y1="47.1875" y2="47.1875"/><ellipse cx="18" cy="61.4922" fill="#84BE84" rx="3" ry="3" style="stroke:#038048;stroke-width:1.0;"/><text fill="#000000" font-family="sans-serif" font-size="14" font-style="italic" lengthAdjust="spacing" textLength="220" x="27" y="65.7207">startRecording(Model, String): void</text><ellipse cx="18" cy="79.1016" fill="#84BE84" rx="3" ry="3" style="stroke:#038048;stroke-width:1.0;"/><text fill="#000000" font-family="sans-serif" font-size="14" font-style="italic" lengthAdjust="spacing" textLength="132" x="27" y="83.3301">endRecording(): void</text><ellipse cx="18" cy="96.7109" fill="#84BE84" rx="3" ry="3" style="stroke:#038048;stroke-width:1.0;"/><text fill="#000000" font-family="sans-serif" font-size="14" font-style="italic" lengthAdjust="spacing" textLength="144" x="27" y="100.9395">ping(int, boolean): void</text></g></a><!--MD5=[cf9a3938f2245f822792e6a365c14f21]
reverse link nz.ac.vuw.ecs.swen225.gp22.recorder.Recorder to nz.ac.vuw.ecs.swen225.gp22.recorder.GameRecorder--><g id="link_nz.ac.vuw.ecs.swen225.gp22.recorder.Recorder_nz.ac.vuw.ecs.swen225.gp22.recorder.GameRecorder"><path codeLine="29" d="M130,128.08 C130,140.59 130,154.08 130,167.95 " fill="none" id="nz.ac.vuw.ecs.swen225.gp22.recorder.Recorder-backto-nz.ac.vuw.ecs.swen225.gp22.recorder.GameRecorder" style="stroke:#181818;stroke-width:1.0;stroke-dasharray:7.0,7.0;"/><polygon fill="none" points="123,128.06,130,108.06,137,128.06,123,128.06" style="stroke:#181818;stroke-width:1.0;"/></g><rect fill="none" height="12.5781" style="stroke:none;stroke-width:1.0;" width="184" x="31" y="494.3281"/><text fill="#888888" font-family="sans-serif" font-size="10" lengthAdjust="spacing" textLength="184" x="31" y="504.709">UMLDoclet 2.0.19, PlantUML 1.2022.8</text><!--MD5=[1d098e4da4b4890f08c9b57c2c32850c]
@startuml
    set namespaceSeparator none
    hide empty fields
    hide empty methods

    class "<size:14>GameRecorder\n<size:10>nz.ac.vuw.ecs.swen225.gp22.recorder" as nz.ac.vuw.ecs.swen225.gp22.recorder.GameRecorder [[GameRecorder.html]] {
        -isRecording: boolean
        -replayFile: String
        -level: int
        -movementHistory: List<Action>
        -prevDir: int
        -frame: int
        -startFrame: int
        -endFrame: int
        -timeLeft: int
        -tiles: Element
        +startRecording(Model, String): void
        +endRecording(): void
        +ping(int, boolean): void
        -setRecording(boolean): void
        -saveRecording(): void
    }

    interface "<size:14>Recorder\n<size:10>nz.ac.vuw.ecs.swen225.gp22.recorder" as nz.ac.vuw.ecs.swen225.gp22.recorder.Recorder [[Recorder.html]] {
        {abstract} +startRecording(Model, String): void
        {abstract} +endRecording(): void
        {abstract} +ping(int, boolean): void
    }

    nz.ac.vuw.ecs.swen225.gp22.recorder.Recorder <|.. nz.ac.vuw.ecs.swen225.gp22.recorder.GameRecorder

    center footer UMLDoclet 2.0.19, PlantUML 1.2022.8
@enduml

PlantUML version 1.2022.8(Sun Sep 25 22:00:33 NZDT 2022)
(APACHE source distribution)
Java Runtime: OpenJDK Runtime Environment
JVM: OpenJDK 64-Bit Server VM
Default Encoding: Cp1252
Language: en
Country: NZ
--></g></svg>