<?xml version="1.0" encoding="UTF-8" standalone="no"?><svg xmlns="http://www.w3.org/2000/svg" xmlns:xlink="http://www.w3.org/1999/xlink" contentStyleType="text/css" height="965px" preserveAspectRatio="none" style="width:618px;height:965px;background:#FFFFFF;" version="1.1" viewBox="0 0 618 965" width="618px" zoomAndPan="magnify"><defs/><g><!--MD5=[1b02d7203d936c7abd83488c023a191e]
cluster nz.ac.vuw.ecs.swen225.gp22.recorder--><g id="cluster_nz.ac.vuw.ecs.swen225.gp22.recorder"><path d="M8.5,6 L276.5,6 A3.75,3.75 0 0 1 279,8.5 L286,29.6094 L608.5,29.6094 A2.5,2.5 0 0 1 611,32.1094 L611,936.5 A2.5,2.5 0 0 1 608.5,939 L8.5,939 A2.5,2.5 0 0 1 6,936.5 L6,8.5 A2.5,2.5 0 0 1 8.5,6 " fill="none" style="stroke:#000000;stroke-width:1.5;"/><line style="stroke:#000000;stroke-width:1.5;" x1="6" x2="286" y1="29.6094" y2="29.6094"/><text fill="#000000" font-family="sans-serif" font-size="14" font-weight="bold" lengthAdjust="spacing" textLength="267" x="10" y="22.5332">nz.ac.vuw.ecs.swen225.gp22.recorder</text></g><!--MD5=[dc491b58113ef3bd4d4d053f96f8cd5f]
class nz.ac.vuw.ecs.swen225.gp22.recorder.Action--><a href="Action.html" target="_top" title="Action.html" xlink:actuate="onRequest" xlink:href="Action.html" xlink:show="new" xlink:title="Action.html" xlink:type="simple"><g id="elem_nz.ac.vuw.ecs.swen225.gp22.recorder.Action"><rect codeLine="3" fill="#F1F1F1" height="206.4844" id="nz.ac.vuw.ecs.swen225.gp22.recorder.Action" rx="2.5" ry="2.5" style="stroke:#181818;stroke-width:0.5;" width="170" x="183" y="717"/><ellipse cx="244.25" cy="733" fill="#ADD1B2" rx="11" ry="11" style="stroke:#181818;stroke-width:1.0;"/><path d="M247.0156,728.875 Q247.1719,728.6563 247.3594,728.5469 Q247.5469,728.4375 247.7656,728.4375 Q248.1406,728.4375 248.375,728.7031 Q248.6094,728.9531 248.6094,729.5625 L248.6094,731.0156 Q248.6094,731.625 248.375,731.8906 Q248.1406,732.1563 247.7656,732.1563 Q247.4219,732.1563 247.2188,731.9531 Q247.0156,731.7656 246.9063,731.25 Q246.8594,730.8906 246.6719,730.7031 Q246.3438,730.3281 245.7344,730.1094 Q245.125,729.8906 244.5,729.8906 Q243.7344,729.8906 243.0938,730.2188 Q242.4688,730.5469 241.9688,731.2969 Q241.4844,732.0469 241.4844,733.0781 L241.4844,734.1719 Q241.4844,735.4063 242.375,736.2344 Q243.2656,737.0469 244.8594,737.0469 Q245.7969,737.0469 246.4531,736.7969 Q246.8438,736.6406 247.2656,736.2031 Q247.5313,735.9375 247.6719,735.8594 Q247.8281,735.7813 248.0313,735.7813 Q248.3594,735.7813 248.6094,736.0469 Q248.875,736.2969 248.875,736.6406 Q248.875,736.9844 248.5313,737.3906 Q248.0313,737.9688 247.2344,738.2969 Q246.1563,738.75 244.8594,738.75 Q243.3438,738.75 242.1406,738.125 Q241.1563,737.625 240.4688,736.5625 Q239.7813,735.4844 239.7813,734.2031 L239.7813,733.0469 Q239.7813,731.7188 240.3906,730.5781 Q241.0156,729.4219 242.1094,728.8125 Q243.2031,728.1875 244.4375,728.1875 Q245.1719,728.1875 245.8125,728.3594 Q246.4688,728.5156 247.0156,728.875 Z " fill="#000000"/><text fill="#000000" font-family="sans-serif" font-size="14" lengthAdjust="spacing" textLength="39" x="264.75" y="738.7285">Action</text><line style="stroke:#181818;stroke-width:0.5;" x1="184" x2="352" y1="749" y2="749"/><rect fill="none" height="6" style="stroke:#C82930;stroke-width:1.0;" width="6" x="191" y="760.3047"/><text fill="#000000" font-family="sans-serif" font-size="14" lengthAdjust="spacing" textLength="39" x="203" y="767.5332">dir: int</text><rect fill="none" height="6" style="stroke:#C82930;stroke-width:1.0;" width="6" x="191" y="777.9141"/><text fill="#000000" font-family="sans-serif" font-size="14" lengthAdjust="spacing" textLength="59" x="203" y="785.1426">frame: int</text><rect fill="none" height="6" style="stroke:#C82930;stroke-width:1.0;" width="6" x="191" y="795.5234"/><text fill="#000000" font-family="sans-serif" font-size="14" lengthAdjust="spacing" textLength="88" x="203" y="802.752">endFrame: int</text><line style="stroke:#181818;stroke-width:0.5;" x1="184" x2="352" y1="809.8281" y2="809.8281"/><polygon fill="#4177AF" points="194,820.1328,190,826.1328,198,826.1328" style="stroke:#1963A0;stroke-width:1.0;"/><text fill="#000000" font-family="sans-serif" font-size="14" lengthAdjust="spacing" textLength="87" x="203" y="828.3613">Action(int, int)</text><polygon fill="#4177AF" points="194,837.7422,190,843.7422,198,843.7422" style="stroke:#1963A0;stroke-width:1.0;"/><text fill="#000000" font-family="sans-serif" font-size="14" lengthAdjust="spacing" textLength="110" x="203" y="845.9707">Action(int, int, int)</text><ellipse cx="194" cy="859.3516" fill="#84BE84" rx="3" ry="3" style="stroke:#038048;stroke-width:1.0;"/><text fill="#000000" font-family="sans-serif" font-size="14" lengthAdjust="spacing" textLength="49" x="203" y="863.5801">dir(): int</text><ellipse cx="194" cy="876.9609" fill="#84BE84" rx="3" ry="3" style="stroke:#038048;stroke-width:1.0;"/><text fill="#000000" font-family="sans-serif" font-size="14" lengthAdjust="spacing" textLength="69" x="203" y="881.1895">frame(): int</text><ellipse cx="194" cy="894.5703" fill="#84BE84" rx="3" ry="3" style="stroke:#038048;stroke-width:1.0;"/><text fill="#000000" font-family="sans-serif" font-size="14" lengthAdjust="spacing" textLength="98" x="203" y="898.7988">endFrame(): int</text><ellipse cx="194" cy="912.1797" fill="#84BE84" rx="3" ry="3" style="stroke:#038048;stroke-width:1.0;"/><text fill="#000000" font-family="sans-serif" font-size="14" lengthAdjust="spacing" textLength="144" x="203" y="916.4082">setEndFrame(int): void</text></g></a><!--MD5=[fa1d4a2889fd770768af524d2efe71c0]
class nz.ac.vuw.ecs.swen225.gp22.recorder.GameRecorder--><a href="GameRecorder.html" target="_top" title="GameRecorder.html" xlink:actuate="onRequest" xlink:href="GameRecorder.html" xlink:show="new" xlink:title="GameRecorder.html" xlink:type="simple"><g id="elem_nz.ac.vuw.ecs.swen225.gp22.recorder.GameRecorder"><rect codeLine="15" fill="#F1F1F1" height="294.5313" id="nz.ac.vuw.ecs.swen225.gp22.recorder.GameRecorder" rx="2.5" ry="2.5" style="stroke:#181818;stroke-width:0.5;" width="246" x="349" y="274"/><ellipse cx="419.25" cy="290" fill="#ADD1B2" rx="11" ry="11" style="stroke:#181818;stroke-width:1.0;"/><path d="M422.0156,285.875 Q422.1719,285.6563 422.3594,285.5469 Q422.5469,285.4375 422.7656,285.4375 Q423.1406,285.4375 423.375,285.7031 Q423.6094,285.9531 423.6094,286.5625 L423.6094,288.0156 Q423.6094,288.625 423.375,288.8906 Q423.1406,289.1563 422.7656,289.1563 Q422.4219,289.1563 422.2188,288.9531 Q422.0156,288.7656 421.9063,288.25 Q421.8594,287.8906 421.6719,287.7031 Q421.3438,287.3281 420.7344,287.1094 Q420.125,286.8906 419.5,286.8906 Q418.7344,286.8906 418.0938,287.2188 Q417.4688,287.5469 416.9688,288.2969 Q416.4844,289.0469 416.4844,290.0781 L416.4844,291.1719 Q416.4844,292.4063 417.375,293.2344 Q418.2656,294.0469 419.8594,294.0469 Q420.7969,294.0469 421.4531,293.7969 Q421.8438,293.6406 422.2656,293.2031 Q422.5313,292.9375 422.6719,292.8594 Q422.8281,292.7813 423.0313,292.7813 Q423.3594,292.7813 423.6094,293.0469 Q423.875,293.2969 423.875,293.6406 Q423.875,293.9844 423.5313,294.3906 Q423.0313,294.9688 422.2344,295.2969 Q421.1563,295.75 419.8594,295.75 Q418.3438,295.75 417.1406,295.125 Q416.1563,294.625 415.4688,293.5625 Q414.7813,292.4844 414.7813,291.2031 L414.7813,290.0469 Q414.7813,288.7188 415.3906,287.5781 Q416.0156,286.4219 417.1094,285.8125 Q418.2031,285.1875 419.4375,285.1875 Q420.1719,285.1875 420.8125,285.3594 Q421.4688,285.5156 422.0156,285.875 Z " fill="#000000"/><text fill="#000000" font-family="sans-serif" font-size="14" lengthAdjust="spacing" textLength="97" x="439.75" y="295.7285">GameRecorder</text><line style="stroke:#181818;stroke-width:0.5;" x1="350" x2="594" y1="306" y2="306"/><rect fill="none" height="6" style="stroke:#C82930;stroke-width:1.0;" width="6" x="357" y="317.3047"/><text fill="#000000" font-family="sans-serif" font-size="14" lengthAdjust="spacing" textLength="134" x="369" y="324.5332">isRecording: boolean</text><rect fill="none" height="6" style="stroke:#C82930;stroke-width:1.0;" width="6" x="357" y="334.9141"/><text fill="#000000" font-family="sans-serif" font-size="14" lengthAdjust="spacing" textLength="107" x="369" y="342.1426">replayFile: String</text><rect fill="none" height="6" style="stroke:#C82930;stroke-width:1.0;" width="6" x="357" y="352.5234"/><text fill="#000000" font-family="sans-serif" font-size="14" lengthAdjust="spacing" textLength="52" x="369" y="359.752">level: int</text><rect fill="none" height="6" style="stroke:#C82930;stroke-width:1.0;" width="6" x="357" y="370.1328"/><text fill="#000000" font-family="sans-serif" font-size="14" lengthAdjust="spacing" textLength="69" x="369" y="377.3613">prevDir: int</text><rect fill="none" height="6" style="stroke:#C82930;stroke-width:1.0;" width="6" x="357" y="387.7422"/><text fill="#000000" font-family="sans-serif" font-size="14" lengthAdjust="spacing" textLength="59" x="369" y="394.9707">frame: int</text><rect fill="none" height="6" style="stroke:#C82930;stroke-width:1.0;" width="6" x="357" y="405.3516"/><text fill="#000000" font-family="sans-serif" font-size="14" lengthAdjust="spacing" textLength="92" x="369" y="412.5801">startFrame: int</text><rect fill="none" height="6" style="stroke:#C82930;stroke-width:1.0;" width="6" x="357" y="422.9609"/><text fill="#000000" font-family="sans-serif" font-size="14" lengthAdjust="spacing" textLength="88" x="369" y="430.1895">endFrame: int</text><rect fill="none" height="6" style="stroke:#C82930;stroke-width:1.0;" width="6" x="357" y="440.5703"/><text fill="#000000" font-family="sans-serif" font-size="14" lengthAdjust="spacing" textLength="73" x="369" y="447.7988">timeLeft: int</text><rect fill="none" height="6" style="stroke:#C82930;stroke-width:1.0;" width="6" x="357" y="458.1797"/><text fill="#000000" font-family="sans-serif" font-size="14" lengthAdjust="spacing" textLength="84" x="369" y="465.4082">tiles: Element</text><line style="stroke:#181818;stroke-width:0.5;" x1="350" x2="594" y1="472.4844" y2="472.4844"/><ellipse cx="360" cy="486.7891" fill="#84BE84" rx="3" ry="3" style="stroke:#038048;stroke-width:1.0;"/><text fill="#000000" font-family="sans-serif" font-size="14" lengthAdjust="spacing" textLength="220" x="369" y="491.0176">startRecording(Model, String): void</text><ellipse cx="360" cy="504.3984" fill="#84BE84" rx="3" ry="3" style="stroke:#038048;stroke-width:1.0;"/><text fill="#000000" font-family="sans-serif" font-size="14" lengthAdjust="spacing" textLength="133" x="369" y="508.627">endRecording(): void</text><ellipse cx="360" cy="522.0078" fill="#84BE84" rx="3" ry="3" style="stroke:#038048;stroke-width:1.0;"/><text fill="#000000" font-family="sans-serif" font-size="14" lengthAdjust="spacing" textLength="145" x="369" y="526.2363">ping(int, boolean): void</text><rect fill="#F24D5C" height="6" style="stroke:#C82930;stroke-width:1.0;" width="6" x="357" y="536.6172"/><text fill="#000000" font-family="sans-serif" font-size="14" lengthAdjust="spacing" textLength="179" x="369" y="543.8457">setRecording(boolean): void</text><rect fill="#F24D5C" height="6" style="stroke:#C82930;stroke-width:1.0;" width="6" x="357" y="554.2266"/><text fill="#000000" font-family="sans-serif" font-size="14" lengthAdjust="spacing" textLength="139" x="369" y="561.4551">saveRecording(): void</text></g></a><!--MD5=[05dc728495d45c37ddd07a23bda3fd1e]
class nz.ac.vuw.ecs.swen225.gp22.recorder.Recorder--><a href="Recorder.html" target="_top" title="Recorder.html" xlink:actuate="onRequest" xlink:href="Recorder.html" xlink:show="new" xlink:title="Recorder.html" xlink:type="simple"><g id="elem_nz.ac.vuw.ecs.swen225.gp22.recorder.Recorder"><rect codeLine="32" fill="#F1F1F1" height="100.8281" id="nz.ac.vuw.ecs.swen225.gp22.recorder.Recorder" rx="2.5" ry="2.5" style="stroke:#181818;stroke-width:0.5;" width="246" x="349" y="42"/><ellipse cx="438.25" cy="58" fill="#B4A7E5" rx="11" ry="11" style="stroke:#181818;stroke-width:1.0;"/><path d="M439.2031,54.6406 L439.2031,61.2969 L440.9219,61.2969 Q441.5313,61.2969 441.7969,61.5313 Q442.0625,61.7656 442.0625,62.1563 Q442.0625,62.5313 441.7969,62.7656 Q441.5313,63 440.9219,63 L435.7813,63 Q435.1719,63 434.9063,62.7656 Q434.6406,62.5313 434.6406,62.1406 Q434.6406,61.7656 434.9063,61.5313 Q435.1719,61.2969 435.7813,61.2969 L437.5,61.2969 L437.5,54.6406 L435.7813,54.6406 Q435.1719,54.6406 434.9063,54.4063 Q434.6406,54.1719 434.6406,53.7813 Q434.6406,53.4063 434.9063,53.1719 Q435.1719,52.9375 435.7813,52.9375 L440.9219,52.9375 Q441.5313,52.9375 441.7969,53.1719 Q442.0625,53.4063 442.0625,53.7813 Q442.0625,54.1719 441.7969,54.4063 Q441.5313,54.6406 440.9219,54.6406 L439.2031,54.6406 Z " fill="#000000"/><text fill="#000000" font-family="sans-serif" font-size="14" font-style="italic" lengthAdjust="spacing" textLength="59" x="458.75" y="63.7285">Recorder</text><line style="stroke:#181818;stroke-width:0.5;" x1="350" x2="594" y1="74" y2="74"/><line style="stroke:#181818;stroke-width:0.5;" x1="350" x2="594" y1="82" y2="82"/><ellipse cx="360" cy="96.3047" fill="#84BE84" rx="3" ry="3" style="stroke:#038048;stroke-width:1.0;"/><text fill="#000000" font-family="sans-serif" font-size="14" font-style="italic" lengthAdjust="spacing" textLength="220" x="369" y="100.5332">startRecording(Model, String): void</text><ellipse cx="360" cy="113.9141" fill="#84BE84" rx="3" ry="3" style="stroke:#038048;stroke-width:1.0;"/><text fill="#000000" font-family="sans-serif" font-size="14" font-style="italic" lengthAdjust="spacing" textLength="132" x="369" y="118.1426">endRecording(): void</text><ellipse cx="360" cy="131.5234" fill="#84BE84" rx="3" ry="3" style="stroke:#038048;stroke-width:1.0;"/><text fill="#000000" font-family="sans-serif" font-size="14" font-style="italic" lengthAdjust="spacing" textLength="144" x="369" y="135.752">ping(int, boolean): void</text></g></a><!--MD5=[df052cbb0e8374ae2910d084ee71ad38]
class nz.ac.vuw.ecs.swen225.gp22.recorder.Replay--><a href="Replay.html" target="_top" title="Replay.html" xlink:actuate="onRequest" xlink:href="Replay.html" xlink:show="new" xlink:title="Replay.html" xlink:type="simple"><g id="elem_nz.ac.vuw.ecs.swen225.gp22.recorder.Replay"><rect codeLine="38" fill="#F1F1F1" height="435.4063" id="nz.ac.vuw.ecs.swen225.gp22.recorder.Replay" rx="2.5" ry="2.5" style="stroke:#181818;stroke-width:0.5;" width="291" x="22.5" y="204"/><ellipse cx="141.75" cy="220" fill="#ADD1B2" rx="11" ry="11" style="stroke:#181818;stroke-width:1.0;"/><path d="M144.5156,215.875 Q144.6719,215.6563 144.8594,215.5469 Q145.0469,215.4375 145.2656,215.4375 Q145.6406,215.4375 145.875,215.7031 Q146.1094,215.9531 146.1094,216.5625 L146.1094,218.0156 Q146.1094,218.625 145.875,218.8906 Q145.6406,219.1563 145.2656,219.1563 Q144.9219,219.1563 144.7188,218.9531 Q144.5156,218.7656 144.4063,218.25 Q144.3594,217.8906 144.1719,217.7031 Q143.8438,217.3281 143.2344,217.1094 Q142.625,216.8906 142,216.8906 Q141.2344,216.8906 140.5938,217.2188 Q139.9688,217.5469 139.4688,218.2969 Q138.9844,219.0469 138.9844,220.0781 L138.9844,221.1719 Q138.9844,222.4063 139.875,223.2344 Q140.7656,224.0469 142.3594,224.0469 Q143.2969,224.0469 143.9531,223.7969 Q144.3438,223.6406 144.7656,223.2031 Q145.0313,222.9375 145.1719,222.8594 Q145.3281,222.7813 145.5313,222.7813 Q145.8594,222.7813 146.1094,223.0469 Q146.375,223.2969 146.375,223.6406 Q146.375,223.9844 146.0313,224.3906 Q145.5313,224.9688 144.7344,225.2969 Q143.6563,225.75 142.3594,225.75 Q140.8438,225.75 139.6406,225.125 Q138.6563,224.625 137.9688,223.5625 Q137.2813,222.4844 137.2813,221.2031 L137.2813,220.0469 Q137.2813,218.7188 137.8906,217.5781 Q138.5156,216.4219 139.6094,215.8125 Q140.7031,215.1875 141.9375,215.1875 Q142.6719,215.1875 143.3125,215.3594 Q143.9688,215.5156 144.5156,215.875 Z " fill="#000000"/><text fill="#000000" font-family="sans-serif" font-size="14" lengthAdjust="spacing" textLength="44" x="162.25" y="225.7285">Replay</text><line style="stroke:#181818;stroke-width:0.5;" x1="23.5" x2="312.5" y1="236" y2="236"/><rect fill="none" height="6" style="stroke:#C82930;stroke-width:1.0;" width="6" x="30.5" y="247.3047"/><text fill="#000000" font-family="sans-serif" font-size="14" lengthAdjust="spacing" text-decoration="underline" textLength="75" x="42.5" y="254.5332">timer: Timer</text><rect fill="none" height="6" style="stroke:#C82930;stroke-width:1.0;" width="6" x="30.5" y="264.9141"/><text fill="#000000" font-family="sans-serif" font-size="14" lengthAdjust="spacing" text-decoration="underline" textLength="122" x="42.5" y="272.1426">isRunning: boolean</text><rect fill="none" height="6" style="stroke:#C82930;stroke-width:1.0;" width="6" x="30.5" y="282.5234"/><text fill="#000000" font-family="sans-serif" font-size="14" lengthAdjust="spacing" text-decoration="underline" textLength="57" x="42.5" y="289.752">pings: int</text><rect fill="none" height="6" style="stroke:#C82930;stroke-width:1.0;" width="6" x="30.5" y="300.1328"/><text fill="#000000" font-family="sans-serif" font-size="14" lengthAdjust="spacing" text-decoration="underline" textLength="75" x="42.5" y="307.3613">endPing: int</text><rect fill="none" height="6" style="stroke:#C82930;stroke-width:1.0;" width="6" x="30.5" y="317.7422"/><text fill="#000000" font-family="sans-serif" font-size="14" lengthAdjust="spacing" text-decoration="underline" textLength="66" x="42.5" y="324.9707">frames: int</text><rect fill="none" height="6" style="stroke:#C82930;stroke-width:1.0;" width="6" x="30.5" y="335.3516"/><text fill="#000000" font-family="sans-serif" font-size="14" lengthAdjust="spacing" text-decoration="underline" textLength="62" x="42.5" y="342.5801">speed: int</text><rect fill="none" height="6" style="stroke:#C82930;stroke-width:1.0;" width="6" x="30.5" y="352.9609"/><text fill="#000000" font-family="sans-serif" font-size="14" lengthAdjust="spacing" text-decoration="underline" textLength="73" x="42.5" y="360.1895">timeLeft: int</text><rect fill="none" height="6" style="stroke:#C82930;stroke-width:1.0;" width="6" x="30.5" y="370.5703"/><text fill="#000000" font-family="sans-serif" font-size="14" lengthAdjust="spacing" text-decoration="underline" textLength="101" x="42.5" y="377.7988">levelNumber: int</text><rect fill="none" height="6" style="stroke:#C82930;stroke-width:1.0;" width="6" x="30.5" y="388.1797"/><text fill="#000000" font-family="sans-serif" font-size="14" lengthAdjust="spacing" text-decoration="underline" textLength="128" x="42.5" y="395.4082">pc: ChapsChallenge</text><rect fill="none" height="6" style="stroke:#C82930;stroke-width:1.0;" width="6" x="30.5" y="405.7891"/><text fill="#000000" font-family="sans-serif" font-size="14" lengthAdjust="spacing" text-decoration="underline" textLength="84" x="42.5" y="413.0176">tiles: Element</text><line style="stroke:#181818;stroke-width:0.5;" x1="23.5" x2="312.5" y1="420.0938" y2="420.0938"/><ellipse cx="33.5" cy="434.3984" fill="#84BE84" rx="3" ry="3" style="stroke:#038048;stroke-width:1.0;"/><text fill="#000000" font-family="sans-serif" font-size="14" lengthAdjust="spacing" text-decoration="underline" textLength="265" x="42.5" y="438.627">loadReplay(String, ChapsChallenge): void</text><ellipse cx="33.5" cy="452.0078" fill="#84BE84" rx="3" ry="3" style="stroke:#038048;stroke-width:1.0;"/><text fill="#000000" font-family="sans-serif" font-size="14" lengthAdjust="spacing" text-decoration="underline" textLength="99" x="42.5" y="456.2363">autoPlay(): void</text><ellipse cx="33.5" cy="469.6172" fill="#84BE84" rx="3" ry="3" style="stroke:#038048;stroke-width:1.0;"/><text fill="#000000" font-family="sans-serif" font-size="14" lengthAdjust="spacing" text-decoration="underline" textLength="112" x="42.5" y="473.8457">autoPause(): void</text><ellipse cx="33.5" cy="487.2266" fill="#84BE84" rx="3" ry="3" style="stroke:#038048;stroke-width:1.0;"/><text fill="#000000" font-family="sans-serif" font-size="14" lengthAdjust="spacing" text-decoration="underline" textLength="139" x="42.5" y="491.4551">increaseSpeed(): void</text><ellipse cx="33.5" cy="504.8359" fill="#84BE84" rx="3" ry="3" style="stroke:#038048;stroke-width:1.0;"/><text fill="#000000" font-family="sans-serif" font-size="14" lengthAdjust="spacing" text-decoration="underline" textLength="144" x="42.5" y="509.0645">decreaseSpeed(): void</text><ellipse cx="33.5" cy="522.4453" fill="#84BE84" rx="3" ry="3" style="stroke:#038048;stroke-width:1.0;"/><text fill="#000000" font-family="sans-serif" font-size="14" lengthAdjust="spacing" text-decoration="underline" textLength="96" x="42.5" y="526.6738">nextTick(): void</text><ellipse cx="33.5" cy="540.0547" fill="#84BE84" rx="3" ry="3" style="stroke:#038048;stroke-width:1.0;"/><text fill="#000000" font-family="sans-serif" font-size="14" lengthAdjust="spacing" text-decoration="underline" textLength="119" x="42.5" y="544.2832">getTiles(): Element</text><ellipse cx="33.5" cy="557.6641" fill="#84BE84" rx="3" ry="3" style="stroke:#038048;stroke-width:1.0;"/><text fill="#000000" font-family="sans-serif" font-size="14" lengthAdjust="spacing" text-decoration="underline" textLength="108" x="42.5" y="561.8926">getTimeLeft(): int</text><ellipse cx="33.5" cy="575.2734" fill="#84BE84" rx="3" ry="3" style="stroke:#038048;stroke-width:1.0;"/><text fill="#000000" font-family="sans-serif" font-size="14" lengthAdjust="spacing" text-decoration="underline" textLength="136" x="42.5" y="579.502">getLevelNumber(): int</text><ellipse cx="33.5" cy="592.8828" fill="#84BE84" rx="3" ry="3" style="stroke:#038048;stroke-width:1.0;"/><text fill="#000000" font-family="sans-serif" font-size="14" lengthAdjust="spacing" text-decoration="underline" textLength="132" x="42.5" y="597.1113">isRunning(): boolean</text><rect fill="#F24D5C" height="6" style="stroke:#C82930;stroke-width:1.0;" width="6" x="30.5" y="607.4922"/><text fill="#000000" font-family="sans-serif" font-size="14" lengthAdjust="spacing" text-decoration="underline" textLength="71" x="42.5" y="614.7207">step(): void</text><rect fill="#F24D5C" height="6" style="stroke:#C82930;stroke-width:1.0;" width="6" x="30.5" y="625.1016"/><text fill="#000000" font-family="sans-serif" font-size="14" lengthAdjust="spacing" text-decoration="underline" textLength="122" x="42.5" y="632.3301">cleanReplay(): void</text></g></a><!--MD5=[cf9a3938f2245f822792e6a365c14f21]
reverse link nz.ac.vuw.ecs.swen225.gp22.recorder.Recorder to nz.ac.vuw.ecs.swen225.gp22.recorder.GameRecorder--><g id="link_nz.ac.vuw.ecs.swen225.gp22.recorder.Recorder_nz.ac.vuw.ecs.swen225.gp22.recorder.GameRecorder"><path codeLine="63" d="M472,163.29 C472,195.68 472,235.47 472,273.99 " fill="none" id="nz.ac.vuw.ecs.swen225.gp22.recorder.Recorder-backto-nz.ac.vuw.ecs.swen225.gp22.recorder.GameRecorder" style="stroke:#181818;stroke-width:1.0;stroke-dasharray:7.0,7.0;"/><polygon fill="none" points="465,163.16,472,143.16,479,163.16,465,163.16" style="stroke:#181818;stroke-width:1.0;"/></g><!--MD5=[2de13684dc965a49227e2f60e89aaa8d]
link nz.ac.vuw.ecs.swen225.gp22.recorder.GameRecorder to nz.ac.vuw.ecs.swen225.gp22.recorder.Action--><g id="link_nz.ac.vuw.ecs.swen225.gp22.recorder.GameRecorder_nz.ac.vuw.ecs.swen225.gp22.recorder.Action"><path codeLine="64" d="M396.62,569.02 C372.15,616.58 345.48,668.41 322.8,712.48 " fill="none" id="nz.ac.vuw.ecs.swen225.gp22.recorder.GameRecorder-to-nz.ac.vuw.ecs.swen225.gp22.recorder.Action" style="stroke:#181818;stroke-width:1.0;"/><polygon fill="#181818" points="320.48,716.99,328.1461,710.8069,322.7616,712.5409,321.0276,707.1564,320.48,716.99" style="stroke:#181818;stroke-width:1.0;"/><text fill="#000000" font-family="sans-serif" font-size="13" lengthAdjust="spacing" textLength="100" x="340" y="683.4951">movementHistory</text><text fill="#000000" font-family="sans-serif" font-size="13" lengthAdjust="spacing" textLength="5" x="319.3066" y="705.9808">*</text></g><!--MD5=[f9ac218f8020fff3d06c9692e7389533]
link nz.ac.vuw.ecs.swen225.gp22.recorder.Replay to nz.ac.vuw.ecs.swen225.gp22.recorder.Action--><g id="link_nz.ac.vuw.ecs.swen225.gp22.recorder.Replay_nz.ac.vuw.ecs.swen225.gp22.recorder.Action"><path codeLine="65" d="M222.61,639.02 C228.93,664.1 235.16,688.78 240.87,711.44 " fill="none" id="nz.ac.vuw.ecs.swen225.gp22.recorder.Replay-to-nz.ac.vuw.ecs.swen225.gp22.recorder.Action" style="stroke:#181818;stroke-width:1.0;"/><polygon fill="#181818" points="242.16,716.55,243.8241,706.8427,240.9305,711.7035,236.0697,708.8099,242.16,716.55" style="stroke:#181818;stroke-width:1.0;"/><text fill="#000000" font-family="sans-serif" font-size="13" lengthAdjust="spacing" textLength="56" x="233" y="683.4951">actionList</text><text fill="#000000" font-family="sans-serif" font-size="13" lengthAdjust="spacing" textLength="5" x="235.1673" y="706.2041">*</text></g><rect fill="none" height="12.5781" style="stroke:none;stroke-width:1.0;" width="184" x="210" y="945"/><text fill="#888888" font-family="sans-serif" font-size="10" lengthAdjust="spacing" textLength="184" x="210" y="955.3809">UMLDoclet 2.0.19, PlantUML 1.2022.8</text><!--MD5=[09888f466021fe3441429590d39b08fb]
@startuml
    namespace nz.ac.vuw.ecs.swen225.gp22.recorder {

        class Action [[Action.html]] {
            -dir: int
            -frame: int
            -endFrame: int
            ~Action(int, int)
            ~Action(int, int, int)
            +dir(): int
            +frame(): int
            +endFrame(): int
            +setEndFrame(int): void
        }

        class GameRecorder [[GameRecorder.html]] {
            -isRecording: boolean
            -replayFile: String
            -level: int
            -prevDir: int
            -frame: int
            -startFrame: int
            -endFrame: int
            -timeLeft: int
            -tiles: Element
            +startRecording(Model, String): void
            +endRecording(): void
            +ping(int, boolean): void
            -setRecording(boolean): void
            -saveRecording(): void
        }

        interface Recorder [[Recorder.html]] {
            {abstract} +startRecording(Model, String): void
            {abstract} +endRecording(): void
            {abstract} +ping(int, boolean): void
        }

        class Replay [[Replay.html]] {
            {static} -timer: Timer
            {static} -isRunning: boolean
            {static} -pings: int
            {static} -endPing: int
            {static} -frames: int
            {static} -speed: int
            {static} -timeLeft: int
            {static} -levelNumber: int
            {static} -pc: ChapsChallenge
            {static} -tiles: Element
            {static} +loadReplay(String, ChapsChallenge): void
            {static} +autoPlay(): void
            {static} +autoPause(): void
            {static} +increaseSpeed(): void
            {static} +decreaseSpeed(): void
            {static} +nextTick(): void
            {static} +getTiles(): Element
            {static} +getTimeLeft(): int
            {static} +getLevelNumber(): int
            {static} +isRunning(): boolean
            {static} -step(): void
            {static} -cleanReplay(): void
        }

        Recorder <|.. GameRecorder
        GameRecorder - -> "*" Action: movementHistory
        Replay - -> "*" Action: actionList
    }

    center footer UMLDoclet 2.0.19, PlantUML 1.2022.8
@enduml

PlantUML version 1.2022.8(Sun Sep 25 22:00:33 NZDT 2022)
(APACHE source distribution)
Java Runtime: OpenJDK Runtime Environment
JVM: OpenJDK 64-Bit Server VM
Default Encoding: Cp1252
Language: en
Country: NZ
--></g></svg>