<?xml version="1.0" encoding="UTF-8" standalone="no"?><svg xmlns="http://www.w3.org/2000/svg" xmlns:xlink="http://www.w3.org/1999/xlink" contentStyleType="text/css" height="135px" preserveAspectRatio="none" style="width:267px;height:135px;background:#FFFFFF;" version="1.1" viewBox="0 0 267 135" width="267px" zoomAndPan="magnify"><defs/><g><!--MD5=[05dc728495d45c37ddd07a23bda3fd1e]
class nz.ac.vuw.ecs.swen225.gp22.recorder.Recorder--><a href="Recorder.html" target="_top" title="Recorder.html" xlink:actuate="onRequest" xlink:href="Recorder.html" xlink:show="new" xlink:title="Recorder.html" xlink:type="simple"><g id="elem_nz.ac.vuw.ecs.swen225.gp22.recorder.Recorder"><rect codeLine="5" fill="#F1F1F1" height="101.0156" id="nz.ac.vuw.ecs.swen225.gp22.recorder.Recorder" rx="2.5" ry="2.5" style="stroke:#181818;stroke-width:0.5;" width="246" x="7" y="7"/><ellipse cx="37.3" cy="27.0938" fill="#B4A7E5" rx="11" ry="11" style="stroke:#181818;stroke-width:1.0;"/><path d="M38.2531,23.7344 L38.2531,30.3906 L39.9719,30.3906 Q40.5813,30.3906 40.8469,30.625 Q41.1125,30.8594 41.1125,31.25 Q41.1125,31.625 40.8469,31.8594 Q40.5813,32.0938 39.9719,32.0938 L34.8313,32.0938 Q34.2219,32.0938 33.9563,31.8594 Q33.6906,31.625 33.6906,31.2344 Q33.6906,30.8594 33.9563,30.625 Q34.2219,30.3906 34.8313,30.3906 L36.55,30.3906 L36.55,23.7344 L34.8313,23.7344 Q34.2219,23.7344 33.9563,23.5 Q33.6906,23.2656 33.6906,22.875 Q33.6906,22.5 33.9563,22.2656 Q34.2219,22.0313 34.8313,22.0313 L39.9719,22.0313 Q40.5813,22.0313 40.8469,22.2656 Q41.1125,22.5 41.1125,22.875 Q41.1125,23.2656 40.8469,23.5 Q40.5813,23.7344 39.9719,23.7344 L38.2531,23.7344 Z " fill="#000000"/><text fill="#000000" font-family="sans-serif" font-size="14" font-style="italic" lengthAdjust="spacing" textLength="59" x="115.2" y="26.5332">Recorder</text><text fill="#000000" font-family="sans-serif" font-size="10" font-style="italic" lengthAdjust="spacing" textLength="180" x="54.7" y="39.9902">nz.ac.vuw.ecs.swen225.gp22.recorder</text><line style="stroke:#181818;stroke-width:0.5;" x1="8" x2="252" y1="47.1875" y2="47.1875"/><ellipse cx="18" cy="61.4922" fill="#84BE84" rx="3" ry="3" style="stroke:#038048;stroke-width:1.0;"/><text fill="#000000" font-family="sans-serif" font-size="14" font-style="italic" lengthAdjust="spacing" textLength="220" x="27" y="65.7207">startRecording(Model, String): void</text><ellipse cx="18" cy="79.1016" fill="#84BE84" rx="3" ry="3" style="stroke:#038048;stroke-width:1.0;"/><text fill="#000000" font-family="sans-serif" font-size="14" font-style="italic" lengthAdjust="spacing" textLength="132" x="27" y="83.3301">endRecording(): void</text><ellipse cx="18" cy="96.7109" fill="#84BE84" rx="3" ry="3" style="stroke:#038048;stroke-width:1.0;"/><text fill="#000000" font-family="sans-serif" font-size="14" font-style="italic" lengthAdjust="spacing" textLength="144" x="27" y="100.9395">ping(int, boolean): void</text></g></a><rect fill="none" height="12.5781" style="stroke:none;stroke-width:1.0;" width="184" x="37.5" y="115.0156"/><text fill="#888888" font-family="sans-serif" font-size="10" lengthAdjust="spacing" textLength="184" x="37.5" y="125.3965">UMLDoclet 2.0.19, PlantUML 1.2022.8</text><!--MD5=[5e531f8d9ee21c1c42898d35a5892acf]
@startuml
    set namespaceSeparator none
    hide empty fields
    hide empty methods

    interface "<size:14>Recorder\n<size:10>nz.ac.vuw.ecs.swen225.gp22.recorder" as nz.ac.vuw.ecs.swen225.gp22.recorder.Recorder [[Recorder.html]] {
        {abstract} +startRecording(Model, String): void
        {abstract} +endRecording(): void
        {abstract} +ping(int, boolean): void
    }

    center footer UMLDoclet 2.0.19, PlantUML 1.2022.8
@enduml

PlantUML version 1.2022.8(Sun Sep 25 22:00:33 NZDT 2022)
(APACHE source distribution)
Java Runtime: OpenJDK Runtime Environment
JVM: OpenJDK 64-Bit Server VM
Default Encoding: Cp1252
Language: en
Country: NZ
--></g></svg>