<?xml version="1.0" encoding="UTF-8" standalone="no"?><svg xmlns="http://www.w3.org/2000/svg" xmlns:xlink="http://www.w3.org/1999/xlink" contentStyleType="text/css" height="495px" preserveAspectRatio="none" style="width:312px;height:495px;background:#FFFFFF;" version="1.1" viewBox="0 0 312 495" width="312px" zoomAndPan="magnify"><defs/><g><!--MD5=[df052cbb0e8374ae2910d084ee71ad38]
class nz.ac.vuw.ecs.swen225.gp22.recorder.Replay--><a href="Replay.html" target="_top" title="Replay.html" xlink:actuate="onRequest" xlink:href="Replay.html" xlink:show="new" xlink:title="Replay.html" xlink:type="simple"><g id="elem_nz.ac.vuw.ecs.swen225.gp22.recorder.Replay"><rect codeLine="5" fill="#F1F1F1" height="461.2031" id="nz.ac.vuw.ecs.swen225.gp22.recorder.Replay" rx="2.5" ry="2.5" style="stroke:#181818;stroke-width:0.5;" width="291" x="7" y="7"/><ellipse cx="58.75" cy="27.0938" fill="#ADD1B2" rx="11" ry="11" style="stroke:#181818;stroke-width:1.0;"/><path d="M61.5156,22.9688 Q61.6719,22.75 61.8594,22.6406 Q62.0469,22.5313 62.2656,22.5313 Q62.6406,22.5313 62.875,22.7969 Q63.1094,23.0469 63.1094,23.6563 L63.1094,25.1094 Q63.1094,25.7188 62.875,25.9844 Q62.6406,26.25 62.2656,26.25 Q61.9219,26.25 61.7188,26.0469 Q61.5156,25.8594 61.4063,25.3438 Q61.3594,24.9844 61.1719,24.7969 Q60.8438,24.4219 60.2344,24.2031 Q59.625,23.9844 59,23.9844 Q58.2344,23.9844 57.5938,24.3125 Q56.9688,24.6406 56.4688,25.3906 Q55.9844,26.1406 55.9844,27.1719 L55.9844,28.2656 Q55.9844,29.5 56.875,30.3281 Q57.7656,31.1406 59.3594,31.1406 Q60.2969,31.1406 60.9531,30.8906 Q61.3438,30.7344 61.7656,30.2969 Q62.0313,30.0313 62.1719,29.9531 Q62.3281,29.875 62.5313,29.875 Q62.8594,29.875 63.1094,30.1406 Q63.375,30.3906 63.375,30.7344 Q63.375,31.0781 63.0313,31.4844 Q62.5313,32.0625 61.7344,32.3906 Q60.6563,32.8438 59.3594,32.8438 Q57.8438,32.8438 56.6406,32.2188 Q55.6563,31.7188 54.9688,30.6563 Q54.2813,29.5781 54.2813,28.2969 L54.2813,27.1406 Q54.2813,25.8125 54.8906,24.6719 Q55.5156,23.5156 56.6094,22.9063 Q57.7031,22.2813 58.9375,22.2813 Q59.6719,22.2813 60.3125,22.4531 Q60.9688,22.6094 61.5156,22.9688 Z " fill="#000000"/><text fill="#000000" font-family="sans-serif" font-size="14" lengthAdjust="spacing" textLength="44" x="146.75" y="26.5332">Replay</text><text fill="#000000" font-family="sans-serif" font-size="10" lengthAdjust="spacing" textLength="179" x="79.25" y="39.9902">nz.ac.vuw.ecs.swen225.gp22.recorder</text><line style="stroke:#181818;stroke-width:0.5;" x1="8" x2="297" y1="47.1875" y2="47.1875"/><rect fill="none" height="6" style="stroke:#C82930;stroke-width:1.0;" width="6" x="15" y="58.4922"/><text fill="#000000" font-family="sans-serif" font-size="14" lengthAdjust="spacing" text-decoration="underline" textLength="145" x="27" y="65.7207">actionList: List&lt;Action&gt;</text><rect fill="none" height="6" style="stroke:#C82930;stroke-width:1.0;" width="6" x="15" y="76.1016"/><text fill="#000000" font-family="sans-serif" font-size="14" lengthAdjust="spacing" text-decoration="underline" textLength="75" x="27" y="83.3301">timer: Timer</text><rect fill="none" height="6" style="stroke:#C82930;stroke-width:1.0;" width="6" x="15" y="93.7109"/><text fill="#000000" font-family="sans-serif" font-size="14" lengthAdjust="spacing" text-decoration="underline" textLength="122" x="27" y="100.9395">isRunning: boolean</text><rect fill="none" height="6" style="stroke:#C82930;stroke-width:1.0;" width="6" x="15" y="111.3203"/><text fill="#000000" font-family="sans-serif" font-size="14" lengthAdjust="spacing" text-decoration="underline" textLength="57" x="27" y="118.5488">pings: int</text><rect fill="none" height="6" style="stroke:#C82930;stroke-width:1.0;" width="6" x="15" y="128.9297"/><text fill="#000000" font-family="sans-serif" font-size="14" lengthAdjust="spacing" text-decoration="underline" textLength="75" x="27" y="136.1582">endPing: int</text><rect fill="none" height="6" style="stroke:#C82930;stroke-width:1.0;" width="6" x="15" y="146.5391"/><text fill="#000000" font-family="sans-serif" font-size="14" lengthAdjust="spacing" text-decoration="underline" textLength="66" x="27" y="153.7676">frames: int</text><rect fill="none" height="6" style="stroke:#C82930;stroke-width:1.0;" width="6" x="15" y="164.1484"/><text fill="#000000" font-family="sans-serif" font-size="14" lengthAdjust="spacing" text-decoration="underline" textLength="62" x="27" y="171.377">speed: int</text><rect fill="none" height="6" style="stroke:#C82930;stroke-width:1.0;" width="6" x="15" y="181.7578"/><text fill="#000000" font-family="sans-serif" font-size="14" lengthAdjust="spacing" text-decoration="underline" textLength="73" x="27" y="188.9863">timeLeft: int</text><rect fill="none" height="6" style="stroke:#C82930;stroke-width:1.0;" width="6" x="15" y="199.3672"/><text fill="#000000" font-family="sans-serif" font-size="14" lengthAdjust="spacing" text-decoration="underline" textLength="101" x="27" y="206.5957">levelNumber: int</text><rect fill="none" height="6" style="stroke:#C82930;stroke-width:1.0;" width="6" x="15" y="216.9766"/><text fill="#000000" font-family="sans-serif" font-size="14" lengthAdjust="spacing" text-decoration="underline" textLength="128" x="27" y="224.2051">pc: ChapsChallenge</text><rect fill="none" height="6" style="stroke:#C82930;stroke-width:1.0;" width="6" x="15" y="234.5859"/><text fill="#000000" font-family="sans-serif" font-size="14" lengthAdjust="spacing" text-decoration="underline" textLength="84" x="27" y="241.8145">tiles: Element</text><line style="stroke:#181818;stroke-width:0.5;" x1="8" x2="297" y1="248.8906" y2="248.8906"/><ellipse cx="18" cy="263.1953" fill="#84BE84" rx="3" ry="3" style="stroke:#038048;stroke-width:1.0;"/><text fill="#000000" font-family="sans-serif" font-size="14" lengthAdjust="spacing" text-decoration="underline" textLength="265" x="27" y="267.4238">loadReplay(String, ChapsChallenge): void</text><ellipse cx="18" cy="280.8047" fill="#84BE84" rx="3" ry="3" style="stroke:#038048;stroke-width:1.0;"/><text fill="#000000" font-family="sans-serif" font-size="14" lengthAdjust="spacing" text-decoration="underline" textLength="99" x="27" y="285.0332">autoPlay(): void</text><ellipse cx="18" cy="298.4141" fill="#84BE84" rx="3" ry="3" style="stroke:#038048;stroke-width:1.0;"/><text fill="#000000" font-family="sans-serif" font-size="14" lengthAdjust="spacing" text-decoration="underline" textLength="112" x="27" y="302.6426">autoPause(): void</text><ellipse cx="18" cy="316.0234" fill="#84BE84" rx="3" ry="3" style="stroke:#038048;stroke-width:1.0;"/><text fill="#000000" font-family="sans-serif" font-size="14" lengthAdjust="spacing" text-decoration="underline" textLength="139" x="27" y="320.252">increaseSpeed(): void</text><ellipse cx="18" cy="333.6328" fill="#84BE84" rx="3" ry="3" style="stroke:#038048;stroke-width:1.0;"/><text fill="#000000" font-family="sans-serif" font-size="14" lengthAdjust="spacing" text-decoration="underline" textLength="144" x="27" y="337.8613">decreaseSpeed(): void</text><ellipse cx="18" cy="351.2422" fill="#84BE84" rx="3" ry="3" style="stroke:#038048;stroke-width:1.0;"/><text fill="#000000" font-family="sans-serif" font-size="14" lengthAdjust="spacing" text-decoration="underline" textLength="96" x="27" y="355.4707">nextTick(): void</text><ellipse cx="18" cy="368.8516" fill="#84BE84" rx="3" ry="3" style="stroke:#038048;stroke-width:1.0;"/><text fill="#000000" font-family="sans-serif" font-size="14" lengthAdjust="spacing" text-decoration="underline" textLength="119" x="27" y="373.0801">getTiles(): Element</text><ellipse cx="18" cy="386.4609" fill="#84BE84" rx="3" ry="3" style="stroke:#038048;stroke-width:1.0;"/><text fill="#000000" font-family="sans-serif" font-size="14" lengthAdjust="spacing" text-decoration="underline" textLength="108" x="27" y="390.6895">getTimeLeft(): int</text><ellipse cx="18" cy="404.0703" fill="#84BE84" rx="3" ry="3" style="stroke:#038048;stroke-width:1.0;"/><text fill="#000000" font-family="sans-serif" font-size="14" lengthAdjust="spacing" text-decoration="underline" textLength="136" x="27" y="408.2988">getLevelNumber(): int</text><ellipse cx="18" cy="421.6797" fill="#84BE84" rx="3" ry="3" style="stroke:#038048;stroke-width:1.0;"/><text fill="#000000" font-family="sans-serif" font-size="14" lengthAdjust="spacing" text-decoration="underline" textLength="132" x="27" y="425.9082">isRunning(): boolean</text><rect fill="#F24D5C" height="6" style="stroke:#C82930;stroke-width:1.0;" width="6" x="15" y="436.2891"/><text fill="#000000" font-family="sans-serif" font-size="14" lengthAdjust="spacing" text-decoration="underline" textLength="71" x="27" y="443.5176">step(): void</text><rect fill="#F24D5C" height="6" style="stroke:#C82930;stroke-width:1.0;" width="6" x="15" y="453.8984"/><text fill="#000000" font-family="sans-serif" font-size="14" lengthAdjust="spacing" text-decoration="underline" textLength="122" x="27" y="461.127">cleanReplay(): void</text></g></a><rect fill="none" height="12.5781" style="stroke:none;stroke-width:1.0;" width="184" x="60" y="475.2031"/><text fill="#888888" font-family="sans-serif" font-size="10" lengthAdjust="spacing" textLength="184" x="60" y="485.584">UMLDoclet 2.0.19, PlantUML 1.2022.8</text><!--MD5=[f31b4409425723ce45d91468e03d3ff5]
@startuml
    set namespaceSeparator none
    hide empty fields
    hide empty methods

    class "<size:14>Replay\n<size:10>nz.ac.vuw.ecs.swen225.gp22.recorder" as nz.ac.vuw.ecs.swen225.gp22.recorder.Replay [[Replay.html]] {
        {static} -actionList: List<Action>
        {static} -timer: Timer
        {static} -isRunning: boolean
        {static} -pings: int
        {static} -endPing: int
        {static} -frames: int
        {static} -speed: int
        {static} -timeLeft: int
        {static} -levelNumber: int
        {static} -pc: ChapsChallenge
        {static} -tiles: Element
        {static} +loadReplay(String, ChapsChallenge): void
        {static} +autoPlay(): void
        {static} +autoPause(): void
        {static} +increaseSpeed(): void
        {static} +decreaseSpeed(): void
        {static} +nextTick(): void
        {static} +getTiles(): Element
        {static} +getTimeLeft(): int
        {static} +getLevelNumber(): int
        {static} +isRunning(): boolean
        {static} -step(): void
        {static} -cleanReplay(): void
    }

    center footer UMLDoclet 2.0.19, PlantUML 1.2022.8
@enduml

PlantUML version 1.2022.8(Sun Sep 25 22:00:33 NZDT 2022)
(APACHE source distribution)
Java Runtime: OpenJDK Runtime Environment
JVM: OpenJDK 64-Bit Server VM
Default Encoding: Cp1252
Language: en
Country: NZ
--></g></svg>